<?xml version="1.0" encoding="UTF-8"?> <svg xmlns="http://www.w3.org/2000/svg" viewBox="0 0 89.32 87.95"><defs><style>.cls-1{fill:#ebebeb;}.cls-2{fill:#fff;}.cls-3{fill:#dbdbdb;}.cls-4{fill:#455a64;}.cls-5{fill:#37474f;}.cls-6{fill:#ffc727;}.cls-7{fill:#ff9cbf;}.cls-8{opacity:0.2;}.cls-14,.cls-8{isolation:isolate;}.cls-9{fill:#263238;}.cls-10{fill:#eb9481;}.cls-11{fill:#45459c;}.cls-12{fill:#ad6359;}.cls-13{fill:#fa6a55;}.cls-14{opacity:0.1;}.cls-15{fill:#ff97b8;}.cls-16{fill:#d3766a;}.cls-17{fill:#dd6a57;}.cls-18{fill:#00c6b4;}</style></defs><g id="Layer_7" data-name="Layer 7"><rect class="cls-1" x="21.23" width="43.84" height="57.05"></rect><rect class="cls-2" x="22.3" y="1.07" width="41.71" height="54.92"></rect><rect class="cls-1" x="32.39" y="1.07" width="0.49" height="54.92"></rect><rect class="cls-1" x="42.91" y="1.07" width="0.49" height="54.92"></rect><rect class="cls-1" x="22.3" y="3.92" width="41.71" height="0.49"></rect><rect class="cls-1" x="53.42" y="1.07" width="0.49" height="54.92"></rect><polygon class="cls-1" points="40.27 76.58 64.81 76.58 65.31 66.52 39.76 66.52 40.27 76.58"></polygon><path class="cls-3" d="M63.64,71.13H53.39l-.2-3.49H63.87ZM53.51,71h10l.21-3.24H53.32Z"></path><path class="cls-3" d="M63.45,75.15H53.79L53.63,72h10ZM53.91,75h9.43l.18-2.9H53.76Z"></path><path class="cls-3" d="M59.5,69.76H57.78l-.11-.84h1.94Zm-1.61-.13h1.5l.08-.59H57.81Z"></path><path class="cls-3" d="M59.5,74H57.78l-.11-.84h1.94Zm-1.61-.12h1.5l.08-.6H57.81Z"></path><path class="cls-3" d="M51.58,71.13H41.32l-.19-3.49H51.8ZM41.44,71h10l.21-3.24H41.26Z"></path><path class="cls-3" d="M51.39,75.15H41.72L41.57,72h10ZM41.84,75h9.44l.18-2.9H41.7Z"></path><path class="cls-3" d="M47.44,69.76H45.71l-.1-.84h1.94Zm-1.62-.13h1.51l.08-.59H45.75Z"></path><path class="cls-3" d="M47.44,74H45.71l-.1-.84h1.94Zm-1.62-.12h1.51l.08-.6H45.75Z"></path><polygon class="cls-1" points="42.47 76.58 42.32 77.68 42.01 79.89 41.4 79.89 41.4 76.58 42.47 76.58"></polygon><polygon class="cls-3" points="42.47 76.58 42.32 77.68 41.4 77.68 41.4 76.58 42.47 76.58"></polygon><polygon class="cls-1" points="62.6 76.58 62.76 77.68 63.07 79.89 63.67 79.89 63.67 76.58 62.6 76.58"></polygon><polygon class="cls-3" points="62.6 76.58 62.76 77.68 63.67 77.68 63.67 76.58 62.6 76.58"></polygon><g id="freepik--Shadow--inject-7"><ellipse class="cls-1" cx="43.15" cy="84.73" rx="28.34" ry="3.22"></ellipse></g><path class="cls-4" d="M35.19,53.85h2.24a5.07,5.07,0,0,0,0-.56V51H34.66v2.29C34.66,53.55,35.19,53.85,35.19,53.85Z"></path><path class="cls-5" d="M34.66,53.32c0,.22.5.51.53.53s-.07-.5-.07-.5A3.55,3.55,0,0,0,34.66,53.32Z"></path><path class="cls-2" d="M35.07,51.7c.34,0,.67,0,1,0s.66,0,1,0c-.33,0-.66,0-1,0A8.41,8.41,0,0,1,35.07,51.7Z"></path><path class="cls-2" d="M35.07,52.07a7,7,0,0,1,.79,0,5.09,5.09,0,0,1,.78,0,6.79,6.79,0,0,1-.78,0A7,7,0,0,1,35.07,52.07Z"></path><path class="cls-2" d="M35.07,52.44l.79,0,.78,0a6.79,6.79,0,0,1-.78,0A7,7,0,0,1,35.07,52.44Z"></path><rect class="cls-5" x="55.49" y="34.8" width="2.82" height="2.82"></rect><path class="cls-2" d="M55.9,35.42c.33,0,.66,0,1,0s.66,0,1,0c-.33,0-.66,0-1,0S56.23,35.45,55.9,35.42Z"></path><path class="cls-2" d="M55.9,35.79a3.35,3.35,0,0,1,1,0A3.35,3.35,0,0,1,55.9,35.79Z"></path><path class="cls-2" d="M55.9,36.16a6.78,6.78,0,0,1,.78,0,5.22,5.22,0,0,1,.79,0A8.24,8.24,0,0,1,55.9,36.16Z"></path><path class="cls-2" d="M55.9,36.53c.33,0,.66,0,1,0s.66,0,1,0c-.33,0-.66,0-1,0S56.23,36.56,55.9,36.53Z"></path><path class="cls-2" d="M55.9,36.9c.26,0,.51,0,.77,0s.51,0,.76,0a7.82,7.82,0,0,1-1.53,0Z"></path><rect class="cls-4" x="37.61" y="42.75" width="2.82" height="2.82" transform="translate(-7.16 7.55) rotate(-10.13)"></rect><path class="cls-2" d="M37.9,43.56c.32-.09.65-.15,1-.21s.65-.11,1-.14c-.32.08-.65.15-1,.21S38.23,43.52,37.9,43.56Z"></path><path class="cls-2" d="M38,43.92a3.74,3.74,0,0,1,.48-.12,2.72,2.72,0,0,1,.49,0,3.53,3.53,0,0,1-1,.17Z"></path><path class="cls-2" d="M38,44.29a6.6,6.6,0,0,1,.77-.17,6.49,6.49,0,0,1,.77-.11,6.43,6.43,0,0,1-.76.17A7,7,0,0,1,38,44.29Z"></path><path class="cls-2" d="M38.1,44.65c.32-.08.64-.15,1-.21s.66-.1,1-.14c-.32.09-.65.15-1,.21S38.43,44.62,38.1,44.65Z"></path><path class="cls-2" d="M38.16,45c.25-.07.5-.12.75-.17a6.31,6.31,0,0,1,.76-.1c-.25.07-.5.12-.75.17S38.42,45,38.16,45Z"></path><rect class="cls-4" x="27.33" y="41.11" width="2.82" height="2.82"></rect><path class="cls-2" d="M27.75,41.73c.33,0,.66,0,1,0s.66,0,1,0c-.33,0-.66,0-1,0S28.07,41.76,27.75,41.73Z"></path><path class="cls-2" d="M27.75,42.1a4.1,4.1,0,0,1,1,0A3.29,3.29,0,0,1,27.75,42.1Z"></path><path class="cls-2" d="M27.75,42.47a10.15,10.15,0,0,1,1.56,0,7.63,7.63,0,0,1-1.56,0Z"></path><path class="cls-2" d="M27.75,42.85c.33,0,.66,0,1,0s.66,0,1,0l-1,0C28.41,42.88,28.07,42.87,27.75,42.85Z"></path><path class="cls-2" d="M27.75,43.22a7.72,7.72,0,0,1,1.52,0c-.25,0-.51,0-.76,0S28,43.24,27.75,43.22Z"></path><rect class="cls-5" x="27.54" y="50.47" width="2.82" height="2.82"></rect><path class="cls-2" d="M28,51.09c.33,0,.66,0,1,0a8.44,8.44,0,0,1,1,0c-.34,0-.67,0-1,0A8.19,8.19,0,0,1,28,51.09Z"></path><path class="cls-2" d="M28,51.46a3.29,3.29,0,0,1,1,0A3.29,3.29,0,0,1,28,51.46Z"></path><path class="cls-2" d="M28,51.83a10.15,10.15,0,0,1,1.56,0,6.79,6.79,0,0,1-.78,0A6.68,6.68,0,0,1,28,51.83Z"></path><path class="cls-2" d="M28,52.2q.49,0,1,0l1,0c-.34,0-.67,0-1,0S28.29,52.23,28,52.2Z"></path><path class="cls-2" d="M28,52.57a9.77,9.77,0,0,1,1.53,0,6.45,6.45,0,0,1-.76,0A6.62,6.62,0,0,1,28,52.57Z"></path><rect class="cls-5" x="45.34" y="42.04" width="2.82" height="2.82"></rect><path class="cls-2" d="M45.75,42.66c.33,0,.66,0,1,0s.66,0,1,0c-.33,0-.66,0-1,0S46.08,42.68,45.75,42.66Z"></path><path class="cls-2" d="M45.75,43a4.18,4.18,0,0,1,1,0,2.89,2.89,0,0,1-.5,0A2.81,2.81,0,0,1,45.75,43Z"></path><path class="cls-2" d="M45.75,43.4a10.29,10.29,0,0,1,1.57,0,7,7,0,0,1-.79,0A6.79,6.79,0,0,1,45.75,43.4Z"></path><path class="cls-2" d="M45.75,43.78c.33,0,.66,0,1,0s.66,0,1,0l-1,0C46.41,43.81,46.08,43.8,45.75,43.78Z"></path><path class="cls-2" d="M45.75,44.15a6.62,6.62,0,0,1,.77,0,6.45,6.45,0,0,1,.76,0c-.25,0-.51,0-.76,0S46,44.17,45.75,44.15Z"></path><rect class="cls-6" x="47.5" y="36.69" width="2.82" height="2.82" transform="translate(3.99 80.82) rotate(-81.49)"></rect><path class="cls-2" d="M48,37.17c.33,0,.66.06,1,.11s.65.1,1,.18c-.33,0-.66-.06-1-.11S48.36,37.24,48,37.17Z"></path><path class="cls-2" d="M48,37.53a4,4,0,0,1,.5,0,3.88,3.88,0,0,1,.49.11,2.74,2.74,0,0,1-.5,0A2.88,2.88,0,0,1,48,37.53Z"></path><path class="cls-2" d="M47.93,37.9c.26,0,.52.05.78.08s.51.09.76.15a6.48,6.48,0,0,1-.77-.08A6.55,6.55,0,0,1,47.93,37.9Z"></path><path class="cls-2" d="M47.87,38.27c.34,0,.66.06,1,.11s.66.11,1,.18c-.33,0-.66-.06-1-.11S48.2,38.34,47.87,38.27Z"></path><path class="cls-2" d="M47.82,38.64a7.64,7.64,0,0,1,1.51.22A8.59,8.59,0,0,1,47.82,38.64Z"></path><rect class="cls-7" x="39.17" y="45.07" width="2.82" height="2.82"></rect><path class="cls-2" d="M39.59,45.69c.33,0,.66,0,1,0s.67,0,1,0c-.33,0-.67,0-1,0S39.92,45.71,39.59,45.69Z"></path><path class="cls-2" d="M39.59,46.06a3.29,3.29,0,0,1,1,0A4.1,4.1,0,0,1,39.59,46.06Z"></path><path class="cls-2" d="M39.59,46.43c.26,0,.52,0,.78,0a6.79,6.79,0,0,1,.78,0,10.15,10.15,0,0,1-1.56,0Z"></path><path class="cls-2" d="M39.59,46.8c.33,0,.66,0,1,0a8.35,8.35,0,0,1,1,0c-.33,0-.67,0-1,0S39.92,46.83,39.59,46.8Z"></path><path class="cls-2" d="M39.59,47.17c.25,0,.51,0,.76,0s.51,0,.77,0a6.62,6.62,0,0,1-.77,0A6.45,6.45,0,0,1,39.59,47.17Z"></path><rect class="cls-6" x="26.65" y="37.14" width="2.82" height="2.82"></rect><path class="cls-2" d="M27.07,37.76c.33,0,.66,0,1,0a8.41,8.41,0,0,1,1,0c-.34,0-.67,0-1,0A8.19,8.19,0,0,1,27.07,37.76Z"></path><path class="cls-2" d="M27.07,38.13a3.29,3.29,0,0,1,1,0A3.29,3.29,0,0,1,27.07,38.13Z"></path><path class="cls-2" d="M27.07,38.5q.39,0,.78,0t.78,0a8.13,8.13,0,0,1-1.56,0Z"></path><path class="cls-2" d="M27.07,38.87l1,0,1,0c-.34,0-.67,0-1,0S27.4,38.9,27.07,38.87Z"></path><path class="cls-2" d="M27.07,39.25a6.45,6.45,0,0,1,.76,0,6.62,6.62,0,0,1,.77,0A9.77,9.77,0,0,1,27.07,39.25Z"></path><rect class="cls-6" x="50.19" y="47.24" width="2.82" height="2.82"></rect><path class="cls-2" d="M50.6,47.86l1,0c.33,0,.66,0,1,0-.33,0-.66,0-1,0S50.94,47.89,50.6,47.86Z"></path><path class="cls-2" d="M50.6,48.23a4.18,4.18,0,0,1,1,0,2.7,2.7,0,0,1-.49,0A2.92,2.92,0,0,1,50.6,48.23Z"></path><path class="cls-2" d="M50.6,48.6c.26,0,.52,0,.79,0s.52,0,.78,0A8.24,8.24,0,0,1,50.6,48.6Z"></path><path class="cls-2" d="M50.6,49c.34,0,.67,0,1,0s.66,0,1,0q-.5,0-1,0Z"></path><path class="cls-2" d="M50.6,49.35a6.62,6.62,0,0,1,.77,0,6.45,6.45,0,0,1,.76,0A9.77,9.77,0,0,1,50.6,49.35Z"></path><path class="cls-6" d="M61.78,41.37H59a1.59,1.59,0,0,1-.14-.56V38.55h2.82v2.29A1.44,1.44,0,0,0,61.78,41.37Z"></path><path class="cls-2" d="M59.3,39.22c.33,0,.66,0,1,0a8.19,8.19,0,0,1,1,0q-.49,0-1,0C60,39.25,59.63,39.24,59.3,39.22Z"></path><path class="cls-2" d="M59.3,39.59c.3,0,.6,0,.9,0a6.7,6.7,0,0,1,.89,0c-.3,0-.6,0-.89,0S59.6,39.61,59.3,39.59Z"></path><path class="cls-2" d="M59.3,40a6.78,6.78,0,0,1,.78,0,6.87,6.87,0,0,1,.79,0,6.85,6.85,0,0,1-.79,0C59.82,40,59.56,40,59.3,40Z"></path><path class="cls-2" d="M59.3,40.33c.33,0,.66,0,1,0s.66,0,1,0c-.33,0-.66,0-1,0S59.63,40.36,59.3,40.33Z"></path><path class="cls-6" d="M24.84,46.11h2.81a1.4,1.4,0,0,0,.14-.56V43.29H25v2.29A1.44,1.44,0,0,1,24.84,46.11Z"></path><path class="cls-2" d="M25.33,44q.5,0,1,0l1,0c-.34,0-.67,0-1,0S25.66,44,25.33,44Z"></path><path class="cls-2" d="M25.33,44.33a8.83,8.83,0,0,1,.89,0c.3,0,.6,0,.9,0q-.45,0-.9,0C25.93,44.36,25.63,44.36,25.33,44.33Z"></path><path class="cls-2" d="M25.33,44.7a7.62,7.62,0,0,1,1.56,0A10.16,10.16,0,0,1,25.33,44.7Z"></path><path class="cls-2" d="M25.33,45.07c.33,0,.66,0,1,0s.66,0,1,0c-.34,0-.67,0-1,0S25.66,45.1,25.33,45.07Z"></path><path class="cls-6" d="M37.93,53.07H35.11a1.49,1.49,0,0,1-.14-.56V50.26h2.82v2.28A1.54,1.54,0,0,0,37.93,53.07Z"></path><path class="cls-2" d="M35.46,50.92c.33,0,.66,0,1,0a8.35,8.35,0,0,1,1,0c-.33,0-.67,0-1,0S35.79,51,35.46,50.92Z"></path><path class="cls-2" d="M35.46,51.29c.3,0,.59,0,.89,0l.9,0c-.3,0-.6,0-.9,0A8.83,8.83,0,0,1,35.46,51.29Z"></path><path class="cls-2" d="M35.46,51.66l.78,0,.78,0a7.62,7.62,0,0,1-1.56,0Z"></path><path class="cls-2" d="M35.46,52c.33,0,.66,0,1,0s.67,0,1,0c-.33,0-.67,0-1,0S35.79,52.06,35.46,52Z"></path><path class="cls-4" d="M48.29,37.62H45.48a1.4,1.4,0,0,1-.14-.56V34.8h2.81v2.29A2,2,0,0,0,48.29,37.62Z"></path><path class="cls-2" d="M45.82,35.47c.33,0,.66,0,1,0a8.19,8.19,0,0,1,1,0q-.5,0-1,0C46.48,35.5,46.15,35.49,45.82,35.47Z"></path><path class="cls-2" d="M45.82,35.84q.45,0,.9,0c.3,0,.59,0,.89,0-.3,0-.6,0-.89,0S46.12,35.87,45.82,35.84Z"></path><path class="cls-2" d="M45.82,36.21c.26,0,.52,0,.78,0a6.68,6.68,0,0,1,.78,0A8.13,8.13,0,0,1,45.82,36.21Z"></path><path class="cls-2" d="M45.82,36.58c.33,0,.66,0,1,0a8.19,8.19,0,0,1,1,0c-.33,0-.66,0-1,0S46.15,36.61,45.82,36.58Z"></path><path class="cls-5" d="M38.64,39H35.82a1.59,1.59,0,0,1-.14-.56V36.16H38.5v2.29A1.67,1.67,0,0,0,38.64,39Z"></path><path class="cls-2" d="M36.17,36.82c.33,0,.66,0,1,0a8.29,8.29,0,0,1,1,0c-.33,0-.66,0-1,0S36.5,36.85,36.17,36.82Z"></path><path class="cls-2" d="M36.17,37.2c.3,0,.6,0,.89,0s.6,0,.9,0c-.3,0-.6,0-.9,0S36.47,37.23,36.17,37.2Z"></path><path class="cls-2" d="M36.17,37.57c.26,0,.52,0,.78,0a6.79,6.79,0,0,1,.78,0,8.13,8.13,0,0,1-1.56,0Z"></path><path class="cls-2" d="M36.17,37.94c.33,0,.66,0,1,0s.67,0,1,0c-.33,0-.66,0-1,0S36.5,38,36.17,37.94Z"></path><path class="cls-5" d="M52.28,52.44H49.47a1.32,1.32,0,0,1-.14-.56V49.63h2.81v2.28A1.88,1.88,0,0,0,52.28,52.44Z"></path><path class="cls-2" d="M49.81,50.29c.33,0,.66,0,1,0a8.35,8.35,0,0,1,1,0c-.33,0-.67,0-1,0S50.14,50.32,49.81,50.29Z"></path><path class="cls-2" d="M49.81,50.66l.89,0,.9,0c-.3,0-.6,0-.9,0A8.83,8.83,0,0,1,49.81,50.66Z"></path><path class="cls-2" d="M49.81,51q.39,0,.78,0t.78,0a7.63,7.63,0,0,1-1.56,0Z"></path><path class="cls-2" d="M49.81,51.41c.33,0,.66,0,1,0s.67,0,1,0c-.33,0-.67,0-1,0S50.14,51.43,49.81,51.41Z"></path><path class="cls-4" d="M57.81,45.53H55.58a3.41,3.41,0,0,1,0-.55V42.72h2.82V45C58.34,45.23,57.81,45.53,57.81,45.53Z"></path><path class="cls-5" d="M58.34,45c0,.22-.5.52-.53.53s.07-.49.07-.49A2.32,2.32,0,0,1,58.34,45Z"></path><path class="cls-2" d="M55.94,43.38q.5,0,1,0t1,0c-.33,0-.66,0-1,0S56.27,43.41,55.94,43.38Z"></path><path class="cls-2" d="M55.94,43.75q.39,0,.78,0t.78,0A8.13,8.13,0,0,1,55.94,43.75Z"></path><path class="cls-2" d="M55.94,44.13a7.63,7.63,0,0,1,1.56,0l-.78,0Z"></path><path class="cls-4" d="M47.27,47.51h2.24a5.11,5.11,0,0,0,.05-.55V44.7H46.75V47C46.75,47.21,47.27,47.51,47.27,47.51Z"></path><path class="cls-5" d="M46.75,47c0,.22.49.51.52.53S47.2,47,47.2,47A2.28,2.28,0,0,0,46.75,47Z"></path><path class="cls-2" d="M47.16,45.36l1,0c.34,0,.67,0,1,0-.33,0-.66,0-1,0S47.49,45.39,47.16,45.36Z"></path><path class="cls-2" d="M47.16,45.73l.78,0,.78,0A8.13,8.13,0,0,1,47.16,45.73Z"></path><path class="cls-2" d="M47.16,46.11a7.63,7.63,0,0,1,1.56,0A10.15,10.15,0,0,1,47.16,46.11Z"></path><path class="cls-4" d="M26.82,38.2H24.58a5.07,5.07,0,0,1,0-.56V35.38h2.82v2.29C27.34,37.9,26.82,38.2,26.82,38.2Z"></path><path class="cls-5" d="M27.34,37.67c0,.22-.49.51-.52.53s.06-.5.06-.5Z"></path><path class="cls-2" d="M24.94,36.05c.33,0,.66,0,1,0a8.28,8.28,0,0,1,1,0c-.33,0-.66,0-1,0S25.27,36.07,24.94,36.05Z"></path><path class="cls-2" d="M24.94,36.42c.26,0,.52,0,.78,0a6.85,6.85,0,0,1,.79,0A8.24,8.24,0,0,1,24.94,36.42Z"></path><path class="cls-2" d="M24.94,36.79a6.78,6.78,0,0,1,.78,0,6.87,6.87,0,0,1,.79,0A8.24,8.24,0,0,1,24.94,36.79Z"></path><path class="cls-6" d="M40.24,40.69H38a3.53,3.53,0,0,1,0-.56V37.87h2.82v2.29C40.78,40.39,40.24,40.69,40.24,40.69Z"></path><g class="cls-8"><path d="M40.78,40.16c0,.22-.5.51-.53.53s.07-.5.07-.5A3.44,3.44,0,0,1,40.78,40.16Z"></path></g><path class="cls-2" d="M38.37,38.54c.33,0,.66,0,1,0s.67,0,1,0c-.33,0-.66,0-1,0S38.7,38.57,38.37,38.54Z"></path><path class="cls-2" d="M38.37,38.91l.78,0,.78,0a8.13,8.13,0,0,1-1.56,0Z"></path><path class="cls-2" d="M38.37,39.28a6.78,6.78,0,0,1,.78,0,5.09,5.09,0,0,1,.78,0,8.13,8.13,0,0,1-1.56,0Z"></path><path class="cls-9" d="M37.73,35.05a5.12,5.12,0,0,0-2.65,1.13,3.66,3.66,0,0,0-.9,1.13A2.84,2.84,0,0,0,34,38a2.39,2.39,0,0,0,.58,2,2.88,2.88,0,0,0,1.23.71,5.85,5.85,0,0,0,1.43.23,11.64,11.64,0,0,0,1.45-.06,4.82,4.82,0,0,0,1.39-.4,3.68,3.68,0,0,0,1.16-.83,3,3,0,0,0,.7-1.24,2,2,0,0,0-.08-1.4,2.39,2.39,0,0,0-1-1,4.4,4.4,0,0,0-1.36-.52,5.67,5.67,0,0,0-2.89.15,5.65,5.65,0,0,1,2.91-.21,4.57,4.57,0,0,1,1.38.5,2.57,2.57,0,0,1,1,1.06,1.83,1.83,0,0,1,.18.73,2.31,2.31,0,0,1-.08.74,3.05,3.05,0,0,1-.72,1.29,3.84,3.84,0,0,1-1.2.88,5.09,5.09,0,0,1-1.43.41,10.41,10.41,0,0,1-1.48,0,6.1,6.1,0,0,1-1.46-.24,3,3,0,0,1-1.28-.74,2.27,2.27,0,0,1-.61-1.35,2.61,2.61,0,0,1,0-.74,2.76,2.76,0,0,1,.24-.7A3.57,3.57,0,0,1,35,36.14,5,5,0,0,1,37.73,35.05Z"></path><path class="cls-9" d="M28.37,37a2.85,2.85,0,0,1,.92-.94,2,2,0,0,1,.62-.25,2.15,2.15,0,0,1,.67,0,1.57,1.57,0,0,1,1.15.65.89.89,0,0,1,.15.31.7.7,0,0,1,0,.35.41.41,0,0,1-.48.31l-.14-.06A.54.54,0,0,1,31.1,37a1,1,0,0,1,0-.35A1.66,1.66,0,0,1,31.3,36a2,2,0,0,1,1-.88,2,2,0,0,1,1.33-.05,2.28,2.28,0,0,1,1.07.79l0,0a2.36,2.36,0,0,0-1.08-.7A1.67,1.67,0,0,0,33,35.1a2.25,2.25,0,0,0-.62.15,2,2,0,0,0-.94.82,1.72,1.72,0,0,0-.2.59.81.81,0,0,0,0,.31.49.49,0,0,0,.12.25.27.27,0,0,0,.26,0,.27.27,0,0,0,.17-.19.78.78,0,0,0-.14-.58,1.5,1.5,0,0,0-1.07-.63,2.36,2.36,0,0,0-.65,0,2.25,2.25,0,0,0-.61.23,2.67,2.67,0,0,0-.93.9Z"></path><polygon class="cls-9" points="33.99 35.75 34.66 35.81 34.68 35.14 34.8 35.97 33.99 35.75"></polygon><rect class="cls-7" x="57.38" y="10.86" width="2.82" height="2.82"></rect><path class="cls-2" d="M59.78,11.48c-.33,0-.66,0-1,0s-.66,0-1,0l1,0C59.12,11.51,59.45,11.5,59.78,11.48Z"></path><path class="cls-2" d="M59.78,11.85a3.35,3.35,0,0,0-1,0A4.18,4.18,0,0,0,59.78,11.85Z"></path><path class="cls-2" d="M59.78,12.22c-.26,0-.52,0-.78,0a7.09,7.09,0,0,0-.79,0,8.24,8.24,0,0,0,1.57,0Z"></path><path class="cls-2" d="M59.78,12.59c-.33,0-.66,0-1,0a8.19,8.19,0,0,0-1,0c.33,0,.66,0,1,0S59.45,12.62,59.78,12.59Z"></path><path class="cls-2" d="M59.78,13c-.26,0-.51,0-.77,0s-.51,0-.76,0A7.82,7.82,0,0,0,59.78,13Z"></path><path class="cls-5" d="M48.21,12.69H51a1.49,1.49,0,0,0,.14-.55V9.88H48.35v2.28A1.8,1.8,0,0,1,48.21,12.69Z"></path><path class="cls-2" d="M50.68,10.54c-.33,0-.67,0-1,0a8.19,8.19,0,0,0-1,0c.33,0,.66,0,1,0S50.35,10.57,50.68,10.54Z"></path><path class="cls-2" d="M50.68,10.91l-.9,0-.89,0c.3,0,.6,0,.89,0S50.38,10.94,50.68,10.91Z"></path><path class="cls-2" d="M50.68,11.29a7.72,7.72,0,0,0-1.57,0,10.29,10.29,0,0,0,1.57,0Z"></path><path class="cls-2" d="M50.68,11.65c-.33,0-.67,0-1,0l-1,0c.33,0,.66,0,1,0S50.35,11.68,50.68,11.65Z"></path><path class="cls-4" d="M60,11.92h2.23a3.53,3.53,0,0,0,.05-.56V9.1H59.49v2.28C59.5,11.61,60,11.92,60,11.92Z"></path><path class="cls-5" d="M59.5,11.38c0,.23.5.52.53.54s-.07-.5-.07-.5A2.32,2.32,0,0,0,59.5,11.38Z"></path><path class="cls-2" d="M61.9,9.77c-.33,0-.66,0-1,0a8.19,8.19,0,0,0-1,0l1,0Z"></path><path class="cls-2" d="M61.9,10.14a7.62,7.62,0,0,0-1.56,0A10.16,10.16,0,0,0,61.9,10.14Z"></path><path class="cls-2" d="M61.9,10.51a7.62,7.62,0,0,0-1.56,0A10.15,10.15,0,0,0,61.9,10.51Z"></path><path class="cls-6" d="M46.6,14.41h2.24a5.54,5.54,0,0,0,0-.56V11.59H46.07v2.28C46.07,14.1,46.6,14.41,46.6,14.41Z"></path><g class="cls-8"><path d="M46.07,13.87c0,.23.5.52.53.53s-.07-.49-.07-.49A2.38,2.38,0,0,0,46.07,13.87Z"></path></g><path class="cls-2" d="M48.48,12.25l-1,0-1,0c.33,0,.66,0,1,0S48.14,12.28,48.48,12.25Z"></path><path class="cls-2" d="M48.48,12.63a7,7,0,0,0-.79,0,6.78,6.78,0,0,0-.78,0,8.24,8.24,0,0,0,1.57,0Z"></path><path class="cls-2" d="M48.48,13a7.09,7.09,0,0,0-.79,0,6.79,6.79,0,0,0-.78,0,10.29,10.29,0,0,0,1.57,0Z"></path><path class="cls-9" d="M49.11,8.76A5.13,5.13,0,0,1,51.77,9.9,3.38,3.38,0,0,1,52.66,11a2.6,2.6,0,0,1,.23.68,2.42,2.42,0,0,1,0,.71,2.2,2.2,0,0,1-.59,1.28,3,3,0,0,1-1.24.71,5.69,5.69,0,0,1-1.43.22,8.8,8.8,0,0,1-1.45-.06,4.74,4.74,0,0,1-1.38-.39,3.6,3.6,0,0,1-1.17-.84,3,3,0,0,1-.7-1.23,2.1,2.1,0,0,1,.08-1.4,2.41,2.41,0,0,1,1-1,4.45,4.45,0,0,1,1.35-.52,5.67,5.67,0,0,1,2.89.15,5.6,5.6,0,0,0-2.9-.21,4.48,4.48,0,0,0-1.38.5,2.59,2.59,0,0,0-1,1.06,2,2,0,0,0-.18.72,2.41,2.41,0,0,0,.09.75,3.11,3.11,0,0,0,.72,1.29,3.81,3.81,0,0,0,1.2.87,4.7,4.7,0,0,0,1.43.41,9,9,0,0,0,1.47.06,5.94,5.94,0,0,0,1.46-.24,2.86,2.86,0,0,0,1.28-.75A2.26,2.26,0,0,0,53,12.44a2.36,2.36,0,0,0,0-.75,2.18,2.18,0,0,0-.24-.69,3.45,3.45,0,0,0-.93-1.15A5.19,5.19,0,0,0,49.11,8.76Z"></path><path class="cls-9" d="M58.48,10.68a2.7,2.7,0,0,0-.93-.94,2,2,0,0,0-.62-.25,2.49,2.49,0,0,0-.67,0,1.64,1.64,0,0,0-1.15.65,1.57,1.57,0,0,0-.15.32.69.69,0,0,0,0,.35.4.4,0,0,0,.48.3.35.35,0,0,0,.14-.06.54.54,0,0,0,.18-.32,1.36,1.36,0,0,0,0-.35,1.84,1.84,0,0,0-.21-.65,2,2,0,0,0-1-.88,2,2,0,0,0-1.34-.05,2.31,2.31,0,0,0-1.06.79l0,0a2.38,2.38,0,0,1,1.07-.7,1.94,1.94,0,0,1,.63-.07,2.1,2.1,0,0,1,.62.16,1.88,1.88,0,0,1,.94.82,1.55,1.55,0,0,1,.21.59,1.6,1.6,0,0,1,0,.31.44.44,0,0,1-.13.24.23.23,0,0,1-.25,0,.27.27,0,0,1-.17-.2.8.8,0,0,1,.14-.58,1.49,1.49,0,0,1,1.07-.62,2.29,2.29,0,0,1,.64,0,2.12,2.12,0,0,1,.61.22,2.92,2.92,0,0,1,.94.91Z"></path><polygon class="cls-9" points="52.85 9.47 52.18 9.53 52.17 8.86 52.05 9.68 52.85 9.47"></polygon><path class="cls-9" d="M45.8,45.35a7.38,7.38,0,0,0-.24,1.87,5.26,5.26,0,0,0,.34,1.84,3.6,3.6,0,0,0,.46.81,4.14,4.14,0,0,0,1.39,1.21l.42.21a3.38,3.38,0,0,0,.44.18v0a4.46,4.46,0,0,1-1.72-.84,3.66,3.66,0,0,1-1.09-1.56,5.32,5.32,0,0,1-.31-1.89,7.38,7.38,0,0,1,.3-1.87Z"></path><polygon class="cls-9" points="47.87 51.77 48.55 51.47 48.19 50.81 48.76 51.54 47.87 51.77"></polygon><rect class="cls-5" x="55.22" y="18.28" width="2.82" height="2.82"></rect><path class="cls-2" d="M55.63,18.89q.49,0,1,0c.33,0,.67,0,1,0-.33,0-.66,0-1,0S56,18.92,55.63,18.89Z"></path><path class="cls-2" d="M55.63,19.27a3.29,3.29,0,0,1,1,0,4,4,0,0,1-.49,0A4.07,4.07,0,0,1,55.63,19.27Z"></path><path class="cls-2" d="M55.63,19.64a8.13,8.13,0,0,1,1.56,0q-.39,0-.78,0T55.63,19.64Z"></path><path class="cls-2" d="M55.63,20c.33,0,.66,0,1,0s.67,0,1,0c-.33,0-.66,0-1,0S56,20,55.63,20Z"></path><path class="cls-2" d="M55.63,20.38c.26,0,.51,0,.77,0a6.45,6.45,0,0,1,.76,0,6.44,6.44,0,0,1-.76,0A6.61,6.61,0,0,1,55.63,20.38Z"></path><rect class="cls-6" x="60.07" y="23.48" width="2.82" height="2.82"></rect><path class="cls-2" d="M60.48,24.09c.33,0,.66,0,1,0s.66,0,1,0c-.33,0-.66,0-1,0S60.81,24.12,60.48,24.09Z"></path><path class="cls-2" d="M60.48,24.47a3.15,3.15,0,0,1,1,0l-.49,0A4.36,4.36,0,0,1,60.48,24.47Z"></path><path class="cls-2" d="M60.48,24.84a7.72,7.72,0,0,1,1.57,0A10.29,10.29,0,0,1,60.48,24.84Z"></path><path class="cls-2" d="M60.48,25.21c.33,0,.66,0,1,0s.66,0,1,0c-.33,0-.66,0-1,0S60.81,25.24,60.48,25.21Z"></path><path class="cls-2" d="M60.48,25.58c.26,0,.51,0,.77,0a6.45,6.45,0,0,1,.76,0A7.82,7.82,0,0,1,60.48,25.58Z"></path><path class="cls-5" d="M62.16,28.67H59.34a1.49,1.49,0,0,1-.14-.55V25.86H62v2.28A1.54,1.54,0,0,0,62.16,28.67Z"></path><path class="cls-2" d="M59.69,26.52q.5,0,1,0l1,0c-.34,0-.67,0-1,0S60,26.55,59.69,26.52Z"></path><path class="cls-2" d="M59.69,26.9a8.83,8.83,0,0,1,.89,0c.3,0,.6,0,.9,0q-.45,0-.9,0C60.28,26.93,60,26.92,59.69,26.9Z"></path><path class="cls-2" d="M59.69,27.27a7.63,7.63,0,0,1,1.56,0q-.39,0-.78,0T59.69,27.27Z"></path><path class="cls-2" d="M59.69,27.64c.33,0,.66,0,1,0s.66,0,1,0c-.34,0-.67,0-1,0A8.19,8.19,0,0,1,59.69,27.64Z"></path><path class="cls-4" d="M57.15,23.75h2.24a3.52,3.52,0,0,0,0-.56V20.93H56.62v2.29C56.62,23.44,57.15,23.75,57.15,23.75Z"></path><path class="cls-5" d="M56.62,23.21c0,.23.5.52.53.54s-.07-.5-.07-.5A2.32,2.32,0,0,0,56.62,23.21Z"></path><path class="cls-2" d="M57,21.6c.33,0,.66,0,1,0s.67,0,1,0c-.33,0-.67,0-1,0S57.37,21.62,57,21.6Z"></path><path class="cls-2" d="M57,22a7.63,7.63,0,0,1,1.56,0A10.15,10.15,0,0,1,57,22Z"></path><path class="cls-2" d="M57,22.34a7.63,7.63,0,0,1,1.56,0A10.15,10.15,0,0,1,57,22.34Z"></path><path class="cls-9" d="M55.68,21.58a6.58,6.58,0,0,0-.24,1.87,5,5,0,0,0,.34,1.84,4.36,4.36,0,0,0,.45.82,4.15,4.15,0,0,0,1.4,1.2c.14.09.28.14.42.22s.29.12.44.18v0a4.46,4.46,0,0,1-1.72-.84,3.68,3.68,0,0,1-1.1-1.56,5.27,5.27,0,0,1-.3-1.89,6.64,6.64,0,0,1,.3-1.87Z"></path><polygon class="cls-9" points="57.75 28.01 58.43 27.7 58.07 27.04 58.64 27.77 57.75 28.01"></polygon><path class="cls-9" d="M55,39a7.63,7.63,0,0,1,.82,0l.83,0c.27,0,.55,0,.83,0s.55,0,.82,0l-.82,0H55.82Z"></path><path class="cls-9" d="M55,39.39a7.65,7.65,0,0,1,1.79,0A7.65,7.65,0,0,1,55,39.39Z"></path><path class="cls-9" d="M55,39.79a5.85,5.85,0,0,1,.73,0l.73,0c.24,0,.49,0,.73,0s.49,0,.73,0l-.73,0H55.73Z"></path><path class="cls-9" d="M55,40.18l.59,0h1.19l.6,0-.6,0h-.59c-.2,0-.4,0-.6,0Z"></path><rect class="cls-5" x="35.15" y="26.19" width="2.82" height="2.82"></rect><path class="cls-2" d="M35.56,26.82c.33,0,.66,0,1,0s.66,0,1,0c-.33,0-.66,0-1,0S35.89,26.84,35.56,26.82Z"></path><path class="cls-2" d="M35.56,27.18a4.18,4.18,0,0,1,1,0A3.35,3.35,0,0,1,35.56,27.18Z"></path><path class="cls-2" d="M35.56,27.55q.39,0,.78,0l.79,0A8.24,8.24,0,0,1,35.56,27.55Z"></path><path class="cls-2" d="M35.56,27.93c.33,0,.66,0,1,0s.66,0,1,0q-.49,0-1,0C36.23,28,35.89,28,35.56,27.93Z"></path><path class="cls-2" d="M35.56,28.3a6.62,6.62,0,0,1,.77,0,6.45,6.45,0,0,1,.76,0,9.9,9.9,0,0,1-1.54,0Z"></path><path class="cls-6" d="M41.44,32.76H38.62a1.49,1.49,0,0,1-.14-.56V30H41.3v2.28A1.44,1.44,0,0,0,41.44,32.76Z"></path><path class="cls-2" d="M39,30.61c.33,0,.66,0,1,0s.66,0,1,0c-.33,0-.66,0-1,0S39.29,30.64,39,30.61Z"></path><path class="cls-2" d="M39,31c.3,0,.6,0,.9,0s.59,0,.89,0c-.3,0-.6,0-.89,0S39.26,31,39,31Z"></path><path class="cls-2" d="M39,31.35q.39,0,.78,0c.27,0,.53,0,.79,0a7.72,7.72,0,0,1-1.57,0Z"></path><path class="cls-2" d="M39,31.73c.33,0,.66,0,1,0a8.19,8.19,0,0,1,1,0q-.5,0-1,0C39.63,31.76,39.29,31.75,39,31.73Z"></path><path class="cls-9" d="M34.66,30.39l.82,0h1.66l.82,0-.82,0H35.48Z"></path><path class="cls-9" d="M34.66,30.78a8.92,8.92,0,0,1,1.79,0A6.71,6.71,0,0,1,34.66,30.78Z"></path><path class="cls-9" d="M34.66,31.18l.73,0h1.46l.73,0-.73,0H35.39Z"></path><path class="cls-9" d="M34.66,31.58a3.81,3.81,0,0,1,.59,0l.6,0c.19,0,.39,0,.59,0s.4,0,.6,0l-.6,0H35.25Z"></path><path class="cls-2" d="M39.26,16.27q.5,0,1,0c.33,0,.66,0,1,0-.33,0-.66,0-1,0S39.59,16.3,39.26,16.27Z"></path><path class="cls-2" d="M39.26,16.64c.29,0,.59,0,.89,0a8.72,8.72,0,0,1,.89,0,9.92,9.92,0,0,1-1.78,0Z"></path><path class="cls-2" d="M39.26,17a7.63,7.63,0,0,1,1.56,0q-.39,0-.78,0T39.26,17Z"></path><path class="cls-2" d="M39.26,17.39c.33,0,.66,0,1,0a8.19,8.19,0,0,1,1,0c-.33,0-.66,0-1,0S39.59,17.41,39.26,17.39Z"></path><path class="cls-9" d="M38.28,48.7l.83,0,.82,0c.27,0,.56,0,.83,0l.83,0-.83,0H39.11Z"></path><path class="cls-9" d="M38.28,49.09l.64,0H40.2l.63,0-.63,0h-.64c-.22,0-.42,0-.64,0Z"></path><path class="cls-9" d="M38.28,49.49l.73,0h.73c.25,0,.49,0,.74,0l.73,0-.73,0H39Z"></path><path class="cls-2" d="M30.5,15.87l-1,0c-.33,0-.67,0-1,0,.33,0,.67,0,1,0S30.17,15.9,30.5,15.87Z"></path><rect class="cls-4" x="26.98" y="9.1" width="2.82" height="2.82" transform="translate(13.05 36.6) rotate(-79.87)"></rect><path class="cls-2" d="M29.37,10.63c-.25-.07-.5-.12-.76-.17a5,5,0,0,0-.78-.1c.26.07.51.12.77.17S29.11,10.61,29.37,10.63Z"></path><path class="cls-2" d="M29.31,11c-.32-.09-.65-.15-1-.21s-.65-.11-1-.14c.32.08.64.15,1,.21S29,11,29.31,11Z"></path><path class="cls-2" d="M29.24,11.36c-.24-.07-.49-.12-.74-.17s-.51-.08-.76-.1a6.11,6.11,0,0,0,.74.17C28.74,11.3,29,11.34,29.24,11.36Z"></path><rect class="cls-6" x="25.41" y="11.41" width="2.82" height="2.82"></rect><path class="cls-2" d="M27.82,12c-.34,0-.67,0-1,0s-.66,0-1,0c.33,0,.66,0,1,0A8.35,8.35,0,0,0,27.82,12Z"></path><path class="cls-2" d="M27.82,12.4a3.35,3.35,0,0,0-1,0A3.35,3.35,0,0,0,27.82,12.4Z"></path><path class="cls-2" d="M27.82,12.77l-.78,0c-.26,0-.53,0-.79,0a7.72,7.72,0,0,0,1.57,0Z"></path><path class="cls-2" d="M27.82,13.14l-1,0q-.5,0-1,0c.33,0,.66,0,1,0S27.48,13.17,27.82,13.14Z"></path><path class="cls-2" d="M27.82,13.51c-.26,0-.51,0-.77,0s-.51,0-.76,0a6.45,6.45,0,0,0,.76,0A6.62,6.62,0,0,0,27.82,13.51Z"></path><path class="cls-2" d="M30.12,15.1c-.33,0-.67,0-1,0s-.66,0-1,0l1,0C29.45,15.13,29.79,15.12,30.12,15.1Z"></path><path class="cls-2" d="M30.12,15.47c-.3,0-.6,0-.9,0a8.83,8.83,0,0,0-.89,0c.3,0,.6,0,.89,0S29.82,15.5,30.12,15.47Z"></path><path class="cls-2" d="M30.12,15.84c-.26,0-.52,0-.78,0a7,7,0,0,0-.79,0,5.17,5.17,0,0,0,.79,0A6.78,6.78,0,0,0,30.12,15.84Z"></path><path class="cls-9" d="M29.12,15l-.82,0H26.64l-.82,0,.82,0H28.3Z"></path><path class="cls-9" d="M29.12,15.43l-.63,0H27.21l-.64,0a4.49,4.49,0,0,0,.64,0l.64,0c.21,0,.42,0,.64,0S28.91,15.46,29.12,15.43Z"></path><path class="cls-9" d="M29.12,15.83l-.73,0H26.93l-.73,0,.73,0h1.46Z"></path><path class="cls-4" d="M45.37,31.05H47.6a3.43,3.43,0,0,0,0-.56V28.23H44.84v2.29C44.84,30.75,45.37,31.05,45.37,31.05Z"></path><path class="cls-5" d="M44.84,30.52c0,.22.49.51.52.53s-.06-.5-.06-.5Z"></path><path class="cls-2" d="M45.25,28.9c.33,0,.66,0,1,0s.66,0,1,0c-.33,0-.66,0-1,0S45.58,28.93,45.25,28.9Z"></path><path class="cls-2" d="M45.25,29.27c.26,0,.52,0,.78,0a7,7,0,0,1,.79,0,7,7,0,0,1-.79,0A6.78,6.78,0,0,1,45.25,29.27Z"></path><path class="cls-2" d="M45.25,29.64a6.78,6.78,0,0,1,.78,0,5.22,5.22,0,0,1,.79,0,7,7,0,0,1-.79,0A6.79,6.79,0,0,1,45.25,29.64Z"></path><rect class="cls-4" x="47.73" y="18.18" width="2.82" height="2.82" transform="translate(-2.68 8.95) rotate(-10.13)"></rect><path class="cls-2" d="M48,19c.32-.09.65-.15,1-.21s.65-.11,1-.14c-.32.08-.65.15-1,.21S48.35,19,48,19Z"></path><path class="cls-2" d="M48.09,19.35a4.21,4.21,0,0,1,.48-.12,2.73,2.73,0,0,1,.5-.05,3.67,3.67,0,0,1-1,.17Z"></path><path class="cls-2" d="M48.15,19.72a7.08,7.08,0,0,1,.77-.17,6.49,6.49,0,0,1,.77-.11,6.43,6.43,0,0,1-.76.17A7,7,0,0,1,48.15,19.72Z"></path><path class="cls-2" d="M48.22,20.08c.32-.08.65-.15,1-.21s.65-.1,1-.14a10,10,0,0,1-1,.21C48.87,20,48.55,20.05,48.22,20.08Z"></path><path class="cls-2" d="M48.28,20.45c.25-.07.5-.12.75-.17a6.31,6.31,0,0,1,.76-.1c-.25.07-.5.12-.75.17S48.54,20.43,48.28,20.45Z"></path><rect class="cls-6" x="49.3" y="20.5" width="2.82" height="2.82"></rect><path class="cls-2" d="M49.71,21.12c.33,0,.66,0,1,0s.67,0,1,0c-.33,0-.66,0-1,0S50,21.14,49.71,21.12Z"></path><path class="cls-2" d="M49.71,21.49a3.29,3.29,0,0,1,1,0A4.1,4.1,0,0,1,49.71,21.49Z"></path><path class="cls-2" d="M49.71,21.86c.26,0,.52,0,.78,0a7.09,7.09,0,0,1,.79,0,7,7,0,0,1-.79,0A6.78,6.78,0,0,1,49.71,21.86Z"></path><path class="cls-2" d="M49.71,22.23c.33,0,.66,0,1,0a8.35,8.35,0,0,1,1,0c-.33,0-.66,0-1,0S50,22.26,49.71,22.23Z"></path><path class="cls-2" d="M49.71,22.6c.26,0,.51,0,.77,0s.51,0,.76,0a7.34,7.34,0,0,1-1.53,0Z"></path><path class="cls-7" d="M48.11,30.27H45.29a1.49,1.49,0,0,1-.14-.56V27.45H48v2.29A1.44,1.44,0,0,0,48.11,30.27Z"></path><path class="cls-2" d="M45.64,28.12c.33,0,.66,0,1,0s.66,0,1,0c-.33,0-.66,0-1,0A8.19,8.19,0,0,1,45.64,28.12Z"></path><path class="cls-2" d="M45.64,28.49c.29,0,.59,0,.89,0s.59,0,.89,0a8.83,8.83,0,0,1-.89,0A8.7,8.7,0,0,1,45.64,28.49Z"></path><path class="cls-2" d="M45.64,28.86q.39,0,.78,0t.78,0a7.63,7.63,0,0,1-1.56,0Z"></path><path class="cls-2" d="M45.64,29.24c.33,0,.66,0,1,0s.66,0,1,0q-.49,0-1,0T45.64,29.24Z"></path><path class="cls-4" d="M37.83,14.74h2.24a5.11,5.11,0,0,0,0-.55V11.93H37.3v2.28C37.3,14.44,37.83,14.74,37.83,14.74Z"></path><path class="cls-2" d="M37.72,12.59c.33,0,.66,0,1,0a8.19,8.19,0,0,1,1,0c-.33,0-.66,0-1,0S38.05,12.62,37.72,12.59Z"></path><path class="cls-2" d="M37.72,13q.39,0,.78,0t.78,0a7.63,7.63,0,0,1-1.56,0Z"></path><path class="cls-2" d="M37.72,13.33l.78,0,.78,0a7.63,7.63,0,0,1-1.56,0Z"></path><path class="cls-7" d="M40.57,14H37.76a1.32,1.32,0,0,1-.14-.55V11.15h2.81v2.28A1.8,1.8,0,0,0,40.57,14Z"></path><path class="cls-2" d="M38.1,12.18l.89,0,.9,0c-.3,0-.6,0-.9,0A8.83,8.83,0,0,1,38.1,12.18Z"></path><path class="cls-2" d="M38.1,12.56a7.62,7.62,0,0,1,1.56,0l-.78,0Z"></path><path class="cls-2" d="M38.1,12.93c.33,0,.66,0,1,0s.67,0,1,0c-.33,0-.67,0-1,0S38.43,13,38.1,12.93Z"></path><path class="cls-4" d="M28.51,32.77h2.24a3.43,3.43,0,0,0,0-.56V30H28v2.28C28,32.47,28.51,32.77,28.51,32.77Z"></path><path class="cls-2" d="M28.39,30.62c.33,0,.67,0,1,0a8.19,8.19,0,0,1,1,0c-.33,0-.66,0-1,0S28.72,30.65,28.39,30.62Z"></path><path class="cls-2" d="M28.39,31c.26,0,.53,0,.79,0s.52,0,.78,0a7.72,7.72,0,0,1-1.57,0Z"></path><path class="cls-2" d="M28.39,31.36c.26,0,.53,0,.79,0l.78,0a7.72,7.72,0,0,1-1.57,0Z"></path><path class="cls-7" d="M31.25,32H28.43a1.49,1.49,0,0,1-.14-.55V29.18h2.82v2.28A1.54,1.54,0,0,0,31.25,32Z"></path><path class="cls-2" d="M28.78,29.84c.33,0,.66,0,1,0s.66,0,1,0c-.34,0-.67,0-1,0S29.11,29.87,28.78,29.84Z"></path><path class="cls-2" d="M28.78,30.21c.3,0,.59,0,.89,0s.6,0,.9,0c-.3,0-.6,0-.9,0A8.7,8.7,0,0,1,28.78,30.21Z"></path><path class="cls-2" d="M28.78,30.59a7.62,7.62,0,0,1,1.56,0q-.39,0-.78,0T28.78,30.59Z"></path><path class="cls-2" d="M28.78,31c.33,0,.66,0,1,0s.66,0,1,0c-.34,0-.67,0-1,0S29.11,31,28.78,31Z"></path><path class="cls-9" d="M48.4,24.13l.83,0,.83,0c.26,0,.55,0,.82,0l.83,0-.83,0H49.23Z"></path><path class="cls-9" d="M48.4,24.52l.64,0h1.28l.64,0-.64,0h-.64c-.21,0-.42,0-.64,0Z"></path><path class="cls-9" d="M48.4,24.92l.73,0,.74,0c.24,0,.48,0,.73,0l.73,0-.73,0H49.13Z"></path><g id="freepik--Plant--inject-7"><path class="cls-3" d="M69.75,69.86A7.82,7.82,0,0,1,70,71.32s0,.11,0,.09.13.06.13,0v-.15a9.82,9.82,0,0,1,1-.89,1.91,1.91,0,0,0,.57-.9c.28-1,0-2,.35-2.93a14.48,14.48,0,0,1,1.24-2.29,5.32,5.32,0,0,0,.84-2.54,3,3,0,0,0-.59-2.18c-.58-.56-1.28-.14-1.72.36a9.48,9.48,0,0,0-2.09,5.18,20.65,20.65,0,0,0-.24,3.14A8.61,8.61,0,0,0,69.75,69.86Z"></path><path class="cls-9" d="M70,71.7a18.16,18.16,0,0,1,0-3h0c0-.8-.08-1.59,0-2.39a13.85,13.85,0,0,1,.36-2.56h0a16.34,16.34,0,0,0-.28,2.51c0,.45,0,.9,0,1.35l0,.44h0a15.66,15.66,0,0,1,2.38-6.28s.06,0,0,0a16.35,16.35,0,0,0-1.93,4.65c.61-1.13,1.54-2.06,2.22-3.15h0c-.62,1.21-1.63,2.16-2.28,3.35q-.17.74-.27,1.47a17.5,17.5,0,0,0-.15,2,21.57,21.57,0,0,0,1.06-2.09s0,0,0,0a8.1,8.1,0,0,1-1.09,2.23c0,.49,0,1,0,1.45.08,1.29.3,2.56.4,3.84,0,0,0,0-.06,0A29.09,29.09,0,0,1,70,71.7Z"></path><path class="cls-9" d="M71.37,61.77s0,0,0,0q-.31,1-.54,2a0,0,0,0,1,0,0,0,0,0,0,1,0,0A7.19,7.19,0,0,1,71.37,61.77Z"></path><path class="cls-3" d="M65.39,64.5a9.54,9.54,0,0,0,.55,1.11A6,6,0,0,1,66.88,68a5.34,5.34,0,0,0,.17,1.19,3.7,3.7,0,0,0,.47.93c.46.66,1,1.24,1.46,1.93a8.28,8.28,0,0,1,1,2.34s.08,0,.07,0h0a16.89,16.89,0,0,0-.67-5.7,20.08,20.08,0,0,0-.93-2.37,5.68,5.68,0,0,0-1.26-1.81c-.36-.32-1.13-.93-1.64-.6C65.28,64,65.3,64.26,65.39,64.5Z"></path><path class="cls-9" d="M67.32,68.85a16.35,16.35,0,0,0,1.12,1.6l.56.73c.09.11.19.23.27.35,0-.2-.1-.4-.16-.6A22.27,22.27,0,0,0,68.26,68a19.29,19.29,0,0,0-1.33-2.6s0,0,0,0c.41.67.82,1.34,1.16,2a9.87,9.87,0,0,1,.49,1.21A17.4,17.4,0,0,0,68,66.09m0,0a8.88,8.88,0,0,1,.68,2.68h0c.08.25.16.5.23.75.3,1.08.57,2.16.81,3.25a10.88,10.88,0,0,0-.18-2.13s0,0,0,0a6.8,6.8,0,0,1,.19,2.25L70,74.13c.19.88.42,1.79.53,2.68a0,0,0,0,1,0,0s0,0,0,0c-.14-.48-.21-1-.32-1.47s-.22-1-.34-1.48c-.16-.71-.33-1.42-.52-2.13a3,3,0,0,0-.52-.71c-.18-.24-.37-.48-.55-.73a10.3,10.3,0,0,1-.93-1.43s0,0,0,0Z"></path><path class="cls-9" d="M67.24,68a9.77,9.77,0,0,1,1.09,1.74,0,0,0,0,1,0,0L67.22,68S67.23,68,67.24,68Z"></path><path class="cls-3" d="M75.41,66.32A2.13,2.13,0,0,0,75,67.77c.07.33.3.6.35.93.09.73-.64,1.21-1.17,1.56-1.31.87-3.12,1.64-3.36,3.4,0,.06-.12,0-.11,0h0a6.64,6.64,0,0,1,0-2.7,8.94,8.94,0,0,1,1.06-2.53,14.6,14.6,0,0,1,2.84-3.77c.33-.29,1-.81,1.27-.16S75.72,65.8,75.41,66.32Z"></path><path class="cls-9" d="M74.21,69.19c-.88.94-2.27,1.47-3,2.53a10.56,10.56,0,0,1,2.32-4.35,0,0,0,0,0,0-.05h-.05a8.62,8.62,0,0,0-1.89,2.74A12.27,12.27,0,0,1,72.38,68s0,0,0,0a8.18,8.18,0,0,0-.88,2.34A17,17,0,0,0,70.59,78a0,0,0,0,0,.06,0,22.17,22.17,0,0,1,.45-6l0-.12c.82-1.14,2.2-1.67,3.09-2.75C74.23,69.19,74.22,69.18,74.21,69.19Z"></path><path class="cls-9" d="M74.41,68.37,73,69.64s0,0,0,0a6.4,6.4,0,0,0,1.39-1.26s0,0,0,0A0,0,0,0,0,74.41,68.37Z"></path><path class="cls-9" d="M74.48,66.56a13.89,13.89,0,0,1-1.37,1.88s0,0,0,0a6.8,6.8,0,0,0,1.39-1.89s0,0,0,0Z"></path><polygon class="cls-4" points="72.42 79.83 68.4 79.83 68.94 74.42 71.8 74.42 72.42 79.83"></polygon><polygon class="cls-9" points="71.9 75.3 68.85 75.3 68.94 74.42 71.8 74.42 71.9 75.3"></polygon><rect class="cls-4" x="68.52" y="73.82" width="3.77" height="0.86"></rect></g><rect class="cls-3" x="16.78" y="66.89" width="25.76" height="0.56" transform="translate(-40.63 88.42) rotate(-82.99)"></rect><rect class="cls-3" x="2.57" y="66.89" width="25.76" height="0.56" transform="translate(-53.1 74.31) rotate(-82.99)"></rect><g id="freepik--Floor--inject-7"><polygon class="cls-9" points="13.34 79.89 20.79 79.85 28.25 79.84 43.15 79.82 58.06 79.84 65.51 79.85 72.96 79.89 65.51 79.92 58.06 79.93 43.15 79.95 28.25 79.93 20.79 79.92 13.34 79.89"></polygon></g><rect class="cls-3" x="16.39" y="58.92" width="14.27" height="0.56"></rect><rect class="cls-3" x="15.62" y="64.17" width="14.27" height="0.56"></rect><rect class="cls-3" x="14.85" y="69.42" width="14.27" height="0.56"></rect><rect class="cls-3" x="14.35" y="74.67" width="14.27" height="0.56"></rect><g id="freepik--character-2--inject-7"><path class="cls-9" d="M58.84,42.46c-1.16,1-.84,2.45-1.33,3.24-.29.49-1.26,1-1.45,1.55-.32.91.46,1.24.28,1.74-.25.7-1.19.65-1.36,1.8s1.1,2.37,4.1,2.7,4.65-.77,4.76-1.74-.89-1.3-1-2c0-.47.58-.79.61-1.65s-.81-1.14-.93-1.86.27-2.5-.8-3.4A2.38,2.38,0,0,0,58.84,42.46Z"></path><path class="cls-9" d="M59,42.49a2.54,2.54,0,0,0-.77.89,5.56,5.56,0,0,0-.43,1.18,3.47,3.47,0,0,1-.23.71,2,2,0,0,1-.4.5,10.22,10.22,0,0,0-1,.84,1.28,1.28,0,0,0-.38,1.16,4.18,4.18,0,0,0,.31.64A.55.55,0,0,1,56,49a4.86,4.86,0,0,1-.54.33,1.76,1.76,0,0,0-.44.42,1.49,1.49,0,0,0-.28,1.15,2.73,2.73,0,0,0,1.87,1.8l.33.14s0,0,0,0c-.81-.37-1.76-.79-2.07-1.7A1.4,1.4,0,0,1,55,50a1.84,1.84,0,0,1,.43-.45c.16-.12.35-.19.52-.31a.57.57,0,0,0,.26-.49,1.42,1.42,0,0,0-.23-.6,1.17,1.17,0,0,1-.19-.63,1.21,1.21,0,0,1,.24-.6A4.62,4.62,0,0,1,57,46a2,2,0,0,0,.73-1c.07-.22.11-.44.16-.65a5.94,5.94,0,0,1,.18-.6,2.89,2.89,0,0,1,.63-1,2.43,2.43,0,0,1,.25-.2S59,42.48,59,42.49Z"></path><path class="cls-9" d="M64,51a1.08,1.08,0,0,0-.21-.43,4,4,0,0,0-.34-.37.83.83,0,0,1-.25-.41.85.85,0,0,1,.13-.54,5.12,5.12,0,0,0,.27-.52,1.86,1.86,0,0,0-.19-1.68l-.32-.49a2.51,2.51,0,0,1-.26-.58c-.14-.46-.17-.93-.28-1.39A7.46,7.46,0,0,0,62,43.25h0a5.5,5.5,0,0,1,.42,1.24c.1.4.14.81.21,1.21a3,3,0,0,0,.15.59,3.4,3.4,0,0,0,.26.5,2.93,2.93,0,0,1,.47,1.05,1.81,1.81,0,0,1-.2,1.12c-.15.3-.38.63-.24,1s.4.48.59.72a1.19,1.19,0,0,1,.2.95,1.79,1.79,0,0,1-1.79,1.3,0,0,0,0,0,0,0,0,0,0,0,0,0,0,2,2,0,0,0,1.75-1A1.45,1.45,0,0,0,64,51Z"></path><path class="cls-10" d="M52.86,84.45c.28.09,8.14,0,8.44-.2a11,11,0,0,0,.18-2.61s.13-5.13.13-5.13l-5,0-.17,5.13s-3,1.39-3.3,1.63S52.58,84.36,52.86,84.45Z"></path><path class="cls-6" d="M55.22,82.23s0,0,0,0Z"></path><path class="cls-9" d="M52.86,84.45c.28.09,8.14,0,8.44-.2a8.31,8.31,0,0,0,.18-2.16c-1.45.3-7,1.43-7.18,1-.06-.18.42-.51.72-.69-.83.39-1.74.84-1.91,1S52.58,84.36,52.86,84.45Z"></path><path class="cls-10" d="M63.09,53.85s-.76,13.29-1,14.31c0,.23-.65,13.06-.65,13.06l-5.06-.08s.22-11,.46-13,1.4-14.25,1.4-14.25Z"></path><path class="cls-10" d="M64,85.07c.29,0,7.91-1.91,8.16-2.17a11.31,11.31,0,0,0-.42-2.58v0c-.06-.28-1.67-5-1.67-5l-5,1.28,1.68,4.89,0,.08s-2.59,2-2.83,2.36S63.7,85.05,64,85.07Z"></path><path class="cls-9" d="M64,85.07c.29,0,7.91-1.91,8.16-2.17a7.48,7.48,0,0,0-.3-2c-1.15.51-6.68,2.92-6.94,2.47,0-.09,0-.26.19-.44a13.2,13.2,0,0,0-1.12,1C63.74,84.22,63.7,85.05,64,85.07Z"></path><path class="cls-10" d="M66.6,81l4.94-1.19S67.83,68.72,67.6,68c-.17-.52-1.88-6.36-2.35-9.12,0,0,.71-2-.88-5H58.29a18.16,18.16,0,0,0,.87,4.72,9.07,9.07,0,0,1,1.42.64s1.79,9.21,2.08,10.11C63.28,71.26,66.6,81,66.6,81Z"></path><path class="cls-11" d="M58.19,53.85s-1.55,14.47-1.54,15a9.15,9.15,0,0,0,3.35,1c3.37.32,7.66-2,7.66-2l-2.28-8.93a7.11,7.11,0,0,0-1-5Z"></path><path class="cls-2" d="M59.29,54.64a.07.07,0,0,1-.09.06.09.09,0,0,1-.07-.06.08.08,0,0,1,.09-.07A.07.07,0,0,1,59.29,54.64Zm1.19-.08a.08.08,0,0,0-.08.08.08.08,0,0,0,.09.06.07.07,0,0,0,.07-.06.07.07,0,0,0-.07-.09h0Zm1.27,0a.08.08,0,0,0-.08.08.08.08,0,0,0,.09.06.07.07,0,0,0,.07-.06.08.08,0,0,0-.07-.09h0Zm1.27,0a.08.08,0,0,0-.08.08.08.08,0,0,0,.08.07h0a.07.07,0,0,0,.08-.07h0a.08.08,0,0,0-.07-.09h0Zm1.27,0a.08.08,0,0,0-.08.08.08.08,0,0,0,.08.07h0a.07.07,0,0,0,.08-.07h0a.08.08,0,0,0-.07-.09h0ZM58,56.32h0a.78.78,0,0,1,0,.14h0a.08.08,0,0,0,.08-.08A.08.08,0,0,0,58,56.32Zm1.27,0a.07.07,0,0,0-.08.07h0a.08.08,0,0,0,.09.07.12.12,0,0,0,.07-.07.08.08,0,0,0-.08-.08Zm1.27,0a.07.07,0,0,0-.08.08h0a.08.08,0,0,0,.08.08.09.09,0,0,0,.08-.08.08.08,0,0,0-.08-.08Zm1.26,0a.08.08,0,0,0-.08.08h0a.09.09,0,0,0,.08.08.09.09,0,0,0,.09-.08.08.08,0,0,0-.08-.08Zm1.27,0a.08.08,0,0,0-.08.08h0s0,.07.08.08a.08.08,0,0,0,.08-.08h0a.07.07,0,0,0-.07-.08Zm1.27,0a.08.08,0,0,0-.08.08h0s0,.07.08.08a.08.08,0,0,0,.08-.08h0a.07.07,0,0,0-.07-.08Zm-5.71-.88a.08.08,0,0,0,0,.16h0a.07.07,0,0,0,.08-.08h0a.08.08,0,0,0-.08-.08Zm1.27,0a.09.09,0,0,0-.08.08h0a.09.09,0,0,0,.08.08.08.08,0,0,0,0-.16Zm1.27,0a.09.09,0,0,0-.08.08h0a.08.08,0,0,0,.08.08h0a.09.09,0,0,0,.08-.08h0a.09.09,0,0,0-.08-.08Zm1.27,0a.09.09,0,0,0-.08.08h0a.08.08,0,0,0,.08.08h0a.09.09,0,0,0,.08-.08h0a.09.09,0,0,0-.08-.08Zm1.27,0a.08.08,0,0,0-.08.08h0a.08.08,0,0,0,.08.08h0a.09.09,0,0,0,.08-.08h0a.09.09,0,0,0-.08-.08Zm1.27,0a.08.08,0,0,0-.08.08h0a.08.08,0,0,0,.07.08h0a.09.09,0,0,0,.08-.08h0a.09.09,0,0,0-.08-.08Zm-7,2.64a.07.07,0,0,0-.08.07h0a.08.08,0,0,0,.09.07.12.12,0,0,0,.07-.07.08.08,0,0,0-.08-.08Zm1.27,0a.07.07,0,0,0-.08.07h0a.08.08,0,0,0,.09.07.12.12,0,0,0,.07-.07.08.08,0,0,0-.08-.08Zm1.26,0a.08.08,0,0,0-.08.08h0a.09.09,0,0,0,.08.08.09.09,0,0,0,.09-.08.08.08,0,0,0-.08-.08Zm1.27,0a.08.08,0,0,0-.08.08h0a.09.09,0,0,0,.08.08.1.1,0,0,0,.09-.08.08.08,0,0,0-.08-.08Zm1.27,0a.08.08,0,0,0-.08.08h0s0,.07.08.08a.08.08,0,0,0,.08-.08h0a.07.07,0,0,0-.08-.08Zm1.27,0a.08.08,0,0,0-.08.08h0s0,.07.08.08a.09.09,0,0,0,.08-.08h0a.07.07,0,0,0-.08-.08Zm-5.71-.88a.09.09,0,0,0-.08.08h0a.08.08,0,0,0,.16,0h0a.08.08,0,0,0-.08-.08Zm1.27,0a.09.09,0,0,0-.08.08h0a.07.07,0,0,0,.08.08.08.08,0,0,0,.08-.08.09.09,0,0,0-.08-.08Zm1.27,0a.08.08,0,0,0-.08.08h0a.07.07,0,0,0,.08.08h0a.08.08,0,0,0,.08-.08.09.09,0,0,0-.08-.08Zm1.27,0a.08.08,0,0,0-.08.08h0a.07.07,0,0,0,.08.08h0a.08.08,0,0,0,.08-.08.09.09,0,0,0-.08-.08Zm1.27,0a.08.08,0,0,0-.08.08h0a.07.07,0,0,0,.08.08h0s.07,0,.08-.08a.09.09,0,0,0-.08-.08Zm1.26,0a.08.08,0,0,0-.07.08h0a.07.07,0,0,0,.07.08h0a.07.07,0,0,0,.08-.08.08.08,0,0,0-.07-.08Zm-7,2.64a.08.08,0,0,0-.08.08.09.09,0,0,0,.08.08.1.1,0,0,0,.09-.08.08.08,0,0,0-.08-.08Zm1.27,0a.08.08,0,0,0-.08.08.09.09,0,0,0,.08.08.08.08,0,0,0,.08-.08c0-.05,0-.08-.08-.08Zm1.27,0a.08.08,0,0,0-.08.08.1.1,0,0,0,.09.07.08.08,0,0,0,.07-.07.07.07,0,0,0-.08-.08Zm1.27,0a.08.08,0,0,0-.08.08.1.1,0,0,0,.09.07.08.08,0,0,0,.07-.07.07.07,0,0,0-.08-.08Zm1.27,0a.08.08,0,0,0-.08.08A.09.09,0,0,0,63,60h0a.09.09,0,0,0,.08-.08h0a.08.08,0,0,0-.08-.08Zm1.27,0a.07.07,0,0,0-.08.08.08.08,0,0,0,.08.08h0a.09.09,0,0,0,.08-.08h0a.08.08,0,0,0-.08-.08Zm1.27,0a.07.07,0,0,0-.08.08.08.08,0,0,0,.08.08h0a.09.09,0,0,0,.08-.08h0a.08.08,0,0,0-.08-.08Zm-7-.88a.08.08,0,0,0-.08.08h0a.07.07,0,0,0,.08.08.08.08,0,0,0,.08-.08h0a.09.09,0,0,0-.08-.08Zm1.27,0a.08.08,0,0,0-.08.08h0a.07.07,0,0,0,.08.08.08.08,0,0,0,.08-.08.09.09,0,0,0-.08-.08Zm1.27,0A.08.08,0,0,0,61,59h0a.07.07,0,0,0,.08.08h0a.08.08,0,0,0,0-.16Zm1.26,0s-.07,0-.08.08h0a.08.08,0,0,0,.08.08h0a.07.07,0,0,0,.08-.08.08.08,0,0,0-.07-.08Zm1.27,0a.09.09,0,0,0-.08.08h0a.08.08,0,0,0,.08.08h0a.07.07,0,0,0,.08-.08.08.08,0,0,0-.07-.08Zm1.27,0a.09.09,0,0,0-.08.08h0a.08.08,0,0,0,.08.08h0A.07.07,0,0,0,65,59a.08.08,0,0,0-.07-.08Zm-7,2.64a.08.08,0,0,0-.08.08.09.09,0,0,0,.08.08.08.08,0,1,0,0-.16Zm1.27,0a.08.08,0,0,0,0,.16.09.09,0,0,0,.08-.08.08.08,0,0,0-.08-.08Zm1.27,0a.07.07,0,0,0-.08.08s.05.07.09.07a.1.1,0,0,0,.07-.07.07.07,0,0,0-.08-.08Zm1.27,0a.07.07,0,0,0-.08.08.08.08,0,0,0,.09.07.1.1,0,0,0,.07-.07.08.08,0,0,0-.08-.08Zm1.27,0a.07.07,0,0,0-.08.08.08.08,0,0,0,.08.08h0a.09.09,0,0,0,.08-.08h0A.08.08,0,0,0,63,61.6Zm1.27,0a.07.07,0,0,0-.08.08.08.08,0,0,0,.08.08h0a.08.08,0,0,0,.08-.07v0a.08.08,0,0,0-.08-.07Zm1.26,0s-.07,0-.08.08a.09.09,0,0,0,.08.08h0a.08.08,0,0,0,.08-.08h0a.07.07,0,0,0-.07-.08Zm-7-.88a.09.09,0,0,0-.08.08.08.08,0,0,0,.08.08.07.07,0,0,0,.08-.08h0a.08.08,0,0,0-.07-.08Zm1.27,0a.09.09,0,0,0-.08.08.08.08,0,0,0,.08.08.07.07,0,0,0,.08-.08h0a.08.08,0,0,0-.07-.08Zm1.27,0a.1.1,0,0,0-.07.09.08.08,0,0,0,.07.07.07.07,0,0,0,.07-.09A.08.08,0,0,0,61.11,60.72Zm1.27,0a.1.1,0,0,0-.07.09s0,.07.07.07a.07.07,0,0,0,.07-.09A.08.08,0,0,0,62.38,60.72Zm1.27,0s-.08.05-.07.09,0,.07.07.07a.07.07,0,0,0,.07-.09A.08.08,0,0,0,63.65,60.72Zm1.27,0a.08.08,0,0,0-.07.09.07.07,0,0,0,.07.07.08.08,0,0,0,.07-.09A.1.1,0,0,0,64.92,60.72Zm-7,2.64a.08.08,0,0,0-.08.08h0a.08.08,0,0,0,.09.07.1.1,0,0,0,.07-.07.08.08,0,0,0-.07-.08Zm1.27,0a.07.07,0,0,0-.08.08h0a.08.08,0,0,0,.09.07.12.12,0,0,0,.07-.07.08.08,0,0,0-.07-.08Zm1.27,0a.07.07,0,0,0-.08.08h0a.08.08,0,0,0,.08.08.08.08,0,1,0,0-.16Zm1.26,0a.07.07,0,0,0-.07.08h0a.07.07,0,0,0,.07.08.09.09,0,0,0,.09-.08.09.09,0,0,0-.08-.08Zm1.27,0a.08.08,0,0,0-.08.08h0a.09.09,0,0,0,.08.08.08.08,0,0,0,.08-.08h0a.08.08,0,0,0-.07-.08Zm1.27,0a.08.08,0,0,0-.08.08h0a.09.09,0,0,0,.08.08.08.08,0,0,0,.08-.08h0a.08.08,0,0,0-.07-.08Zm1.27,0a.08.08,0,0,0-.08.08h0a.09.09,0,0,0,.08.08.08.08,0,0,0,.08-.08h0a.08.08,0,0,0-.07-.08Zm-8.25-.88h0a.51.51,0,0,1,0,.13l0,0a.07.07,0,0,0,.08-.08h0a.08.08,0,0,0-.07-.08Zm1.27,0a.09.09,0,0,0-.08.08.08.08,0,0,0,.08.08h0a.07.07,0,0,0,.08-.08h0a.08.08,0,0,0-.07-.08Zm1.27,0a.09.09,0,0,0-.08.08h0a.08.08,0,0,0,.08.08.07.07,0,0,0,.08-.08.08.08,0,0,0-.07-.08Zm1.27,0a.09.09,0,0,0-.08.08h0a.07.07,0,0,0,.08.08h0a.08.08,0,0,0,.08-.08h0a.08.08,0,0,0-.07-.08Zm1.27,0a.09.09,0,0,0-.08.08h0a.07.07,0,0,0,.08.08h0a.08.08,0,0,0,.08-.08h0a.08.08,0,0,0-.07-.08Zm1.27,0a.08.08,0,0,0-.08.08h0a.07.07,0,0,0,.08.08h0a.08.08,0,0,0,.08-.08h0a.08.08,0,0,0-.07-.08Zm1.27,0a.08.08,0,0,0-.08.08h0a.07.07,0,0,0,.07.08h0a.08.08,0,0,0,.08-.08h0a.08.08,0,0,0-.07-.08Zm1.27,0a.08.08,0,0,0-.08.08h0a.07.07,0,0,0,.07.08h0a.08.08,0,0,0,.08-.08h0s0-.07-.08-.08ZM58,65.12a.07.07,0,0,0-.08.07.08.08,0,0,0,.08.09A.09.09,0,0,0,58,65.2h0A.08.08,0,0,0,58,65.12Zm1.27,0a.07.07,0,0,0-.08.07.08.08,0,0,0,.08.09.09.09,0,0,0,.08-.08h0a.08.08,0,0,0-.08-.08Zm1.27,0a.08.08,0,0,0-.09.08.09.09,0,0,0,.09.08.09.09,0,0,0,.08-.08h0a.08.08,0,0,0-.08-.08h0Zm1.26,0a.08.08,0,0,0-.08.08.09.09,0,0,0,.08.08.09.09,0,0,0,.09-.08h0a.08.08,0,0,0-.09-.08Zm1.27,0a.08.08,0,0,0-.07.09.12.12,0,0,0,.07.07.08.08,0,0,0,.07-.09A.07.07,0,0,0,63,65.12Zm1.27,0a.08.08,0,0,0-.07.09.12.12,0,0,0,.07.07.08.08,0,0,0,.07-.09A.07.07,0,0,0,64.29,65.12Zm1.27,0a.08.08,0,0,0-.07.09.12.12,0,0,0,.07.07.08.08,0,0,0,.07-.09A.07.07,0,0,0,65.56,65.12Zm1.27,0a.07.07,0,0,0-.07.09.1.1,0,0,0,.07.07s.08,0,.07-.09A.07.07,0,0,0,66.83,65.12Zm-9.52-.88a.09.09,0,0,0-.08.08h0a.09.09,0,0,0,.08.08.08.08,0,0,0,.08-.08.08.08,0,0,0-.07-.08Zm1.27,0a.09.09,0,0,0-.08.08h0a.09.09,0,0,0,.08.08.08.08,0,0,0,.08-.08h0a.08.08,0,0,0-.07-.08Zm1.27,0a.09.09,0,0,0-.08.08h0a.09.09,0,0,0,.08.08.08.08,0,0,0,0-.16Zm1.27,0a.09.09,0,0,0-.08.08h0a.09.09,0,0,0,.08.08h0a.08.08,0,1,0,0-.16Zm1.27,0a.09.09,0,0,0-.08.08h0a.09.09,0,0,0,.08.08h0a.08.08,0,0,0,0-.16Zm1.27,0a.09.09,0,0,0-.08.08h0a.08.08,0,0,0,.08.08h0a.08.08,0,1,0,0-.16Zm1.27,0a.08.08,0,0,0-.08.08h0a.08.08,0,0,0,.08.08h0a.08.08,0,0,0,0-.16Zm1.27,0a.08.08,0,0,0-.08.08h0a.08.08,0,0,0,.08.08h0a.08.08,0,1,0,0-.16h0ZM58,66.88a.07.07,0,0,0-.08.08A.08.08,0,0,0,58,67,.09.09,0,0,0,58,67a.08.08,0,0,0-.08-.08Zm1.27,0a.07.07,0,0,0-.08.08.08.08,0,0,0,.08.08A.09.09,0,0,0,59.3,67a.08.08,0,0,0-.08-.08Zm1.27,0a.07.07,0,0,0-.08.08.08.08,0,0,0,.09.07.12.12,0,0,0,.07-.07.08.08,0,0,0-.09-.08h0Zm1.26,0s-.07,0-.08.08a.1.1,0,0,0,.1.07.12.12,0,0,0,.07-.07.09.09,0,0,0-.09-.08Zm1.27,0a.08.08,0,0,0-.08.08A.08.08,0,0,0,63,67h0A.07.07,0,0,0,63.1,67h0a.07.07,0,0,0-.08-.08Zm1.27,0a.08.08,0,0,0-.08.08.08.08,0,0,0,.08.07h0a.07.07,0,0,0,.08-.07h0a.07.07,0,0,0-.08-.08Zm1.27,0a.08.08,0,0,0-.08.08.08.08,0,0,0,.08.07h0a.07.07,0,0,0,.08-.07h0a.07.07,0,0,0-.08-.08Zm1.27,0a.08.08,0,0,0-.08.08.08.08,0,0,0,.08.07h0a.07.07,0,0,0,.08-.07h0a.08.08,0,0,0-.08-.08ZM57.31,66a.08.08,0,0,0-.08.08h0a.08.08,0,1,0,.16,0h0a.07.07,0,0,0-.08-.08Zm1.27,0a.08.08,0,0,0-.08.08h0a.08.08,0,0,0,.16,0h0a.07.07,0,0,0-.08-.08Zm1.27,0a.08.08,0,0,0-.08.07h0a.08.08,0,0,0,.08.08.09.09,0,0,0,.08-.08.08.08,0,0,0-.08-.08Zm1.27,0a.07.07,0,0,0-.08.07h0a.08.08,0,0,0,.08.08h0a.09.09,0,0,0,.08-.08.08.08,0,0,0-.08-.08Zm1.27,0a.07.07,0,0,0-.08.07h0a.08.08,0,0,0,.08.08h0a.09.09,0,0,0,.08-.08.08.08,0,0,0-.08-.08Zm1.27,0a.07.07,0,0,0-.08.07h0a.08.08,0,0,0,.08.08h0s.07,0,.08-.08a.08.08,0,0,0-.08-.08Zm1.26,0a.07.07,0,0,0-.07.07h0a.08.08,0,0,0,.07.08h0a.08.08,0,0,0,.08-.08.07.07,0,0,0-.07-.08Zm1.27,0a.08.08,0,0,0-.08.07h0a.09.09,0,0,0,.08.08h0a.08.08,0,0,0,.08-.08.07.07,0,0,0-.08-.08Zm-9.51,2.64h0c0,.07,0,.12,0,.15h0a.09.09,0,0,0,.08-.08h0A.08.08,0,0,0,56.68,68.64Zm1.27,0a.07.07,0,0,0-.08.08.07.07,0,0,0,.07.08.09.09,0,0,0,.09-.08.08.08,0,0,0-.08-.08Zm1.27,0a.08.08,0,0,0-.09.08.09.09,0,0,0,.08.08.09.09,0,0,0,.09-.08.08.08,0,0,0-.08-.08Zm1.26,0a.08.08,0,0,0-.08.08.1.1,0,0,0,.09.07.08.08,0,0,0,.07-.07A.07.07,0,0,0,60.48,68.64Zm1.27,0a.08.08,0,0,0-.08.08.1.1,0,0,0,.09.07.08.08,0,0,0,.07-.07A.07.07,0,0,0,61.75,68.64Zm1.27,0a.08.08,0,0,0-.08.08.09.09,0,0,0,.08.08h0a.09.09,0,0,0,.08-.08h0a.08.08,0,0,0-.08-.08Zm1.27,0a.08.08,0,0,0-.08.08.09.09,0,0,0,.08.08h0a.09.09,0,0,0,.08-.08h0a.08.08,0,0,0-.08-.08Zm1.27,0a.07.07,0,0,0-.08.08,0,0,0,0,0,0,0l.14-.06a.08.08,0,0,0-.07,0Zm-8.25-.88a.08.08,0,0,0,0,.16h0a.08.08,0,0,0,.08-.08h0a.09.09,0,0,0-.08-.08Zm1.27,0a.08.08,0,1,0,0,.16h0a.08.08,0,0,0,.08-.08h0a.09.09,0,0,0-.08-.08Zm1.27,0a.08.08,0,0,0-.08.08h0a.08.08,0,0,0,.08.08.08.08,0,1,0,0-.16Zm1.27,0a.08.08,0,0,0-.08.08h0a.08.08,0,0,0,.07.08h0a.09.09,0,0,0,.08-.08h0a.09.09,0,0,0-.08-.08Zm1.27,0a.08.08,0,0,0-.08.08h0a.08.08,0,0,0,.07.08h0a.09.09,0,0,0,.08-.08h0a.09.09,0,0,0-.08-.08Zm1.27,0a.08.08,0,0,0-.08.08h0a.08.08,0,0,0,.07.08h0a.09.09,0,0,0,.08-.08h0s0-.08-.08-.08Zm1.26,0a.08.08,0,0,0-.07.08h0a.07.07,0,0,0,.07.08h0a.08.08,0,0,0,.08-.08h0a.08.08,0,0,0-.07-.08Zm1.27,0a.09.09,0,0,0-.08.08h0a.09.09,0,0,0,.08.08h0a.08.08,0,0,0,.08-.08h0a.08.08,0,0,0-.08-.08Zm1.27,0a.09.09,0,0,0-.08.08h0a.1.1,0,0,0,0,.07l.12-.07h0a.08.08,0,0,0-.08-.08Zm-7.61,1.76a.08.08,0,0,0-.08.08h0a.08.08,0,0,0,.08.08.08.08,0,0,0,0-.16Zm1.27,0a.08.08,0,0,0-.08.08h0a.08.08,0,0,0,.07.08h0a.09.09,0,0,0,.08-.08h0a.09.09,0,0,0-.08-.08Zm1.27,0a.08.08,0,0,0-.08.08h0s0,0,0,0l.14,0v0a.08.08,0,0,0-.07-.08Z"></path><path class="cls-12" d="M60.42,48.27c-.9,1.24-4.31,4-5.84,3.84-1.23-.15-4.28-2-5.08-2.56s1-3.31,1.63-3,3,2.53,3.74,2.51a43.91,43.91,0,0,0,4.65-1.71C60.45,46.93,61,47.52,60.42,48.27Z"></path><path class="cls-10" d="M50.67,45.89a4.77,4.77,0,0,0-1.59-.4,1.32,1.32,0,0,0-1,.94c0,.21.21,1.5.76,1.5s.22-1,.24-1.1,0-.26.14-.25,1.91.87,1.91.87Z"></path><path class="cls-10" d="M50.64,46a9.85,9.85,0,0,0-2-.57,1.29,1.29,0,0,0-1,.94c0,.21.21,1.5.76,1.5s.22-1,.24-1.11,0-.26.14-.25,1.91.87,1.91.87Z"></path><path class="cls-9" d="M48.53,47.78a.73.73,0,0,0,.09-.32,1.35,1.35,0,0,0,0-.35,1.55,1.55,0,0,1-.07-.31.6.6,0,0,1,.08-.29c0-.07.12,0,.19,0a2,2,0,0,1,.3.14l.31.16.32.17s0,0,0,0h0l-.28-.13-.31-.14-.29-.14s-.11,0-.14,0-.07.11-.08.14a.61.61,0,0,0,0,.3,1.45,1.45,0,0,1,.06.3.88.88,0,0,1,0,.28,1.71,1.71,0,0,1-.13.23S48.52,47.79,48.53,47.78Z"></path><path class="cls-10" d="M52.38,47.42S50.86,46,50.54,45.76a15,15,0,0,0-3.68-1.69c-.37,0-.51.73,1.31,1.52.95.42,1.12,1,1.11,1.27s-.31.87-.82.86-.84-.76-1.31-.84-.16.77.17,1.27a3.08,3.08,0,0,0,1.37,1.07c.44.17,1.82.76,1.82.76Z"></path><path class="cls-9" d="M47.82,47.36a1.36,1.36,0,0,0,.67.35.62.62,0,0,0,.55-.38.91.91,0,0,0,.14-.7,1.15,1.15,0,0,0-.34-.57,3,3,0,0,0-.7-.47s0,0,0,0c.23.1,1,.4,1.12,1.05a1.07,1.07,0,0,1-.14.72.73.73,0,0,1-.53.42,1.2,1.2,0,0,1-.78-.41S47.81,47.35,47.82,47.36Z"></path><path class="cls-13" d="M52.07,47l-1,4.52a17.46,17.46,0,0,0,3.72.76c1.24,0,4.27-2.2,5.31-3.31s1.13-2.37-.87-1.68-4.28,1.61-4.35,1.62S52.07,47,52.07,47Z"></path><path class="cls-9" d="M52.44,49.56c.07-.33.34-1.64.37-2,0,0,0,0,0,0-.11.32-.41,1.63-.48,2-.14.65-.29,1.31-.38,2h0C52.16,50.89,52.3,50.22,52.44,49.56Z"></path><g class="cls-14"><path d="M60.09,49c-1,1.12-4.07,3.31-5.31,3.31a7.66,7.66,0,0,1-1.44-.17l7.44-4.69C60.91,47.76,60.63,48.38,60.09,49Z"></path></g><path class="cls-13" d="M57.78,54.78a25.24,25.24,0,0,0,7.29.18s-1.87-6-3.37-7.55a1.26,1.26,0,0,0-1.92-.15,13.15,13.15,0,0,0-2,3.11,2.24,2.24,0,0,0,.42,1.45Z"></path><path class="cls-9" d="M58.66,48.74a6.51,6.51,0,0,0-.43.64l.15-.37h0c0,.09-.09.18-.13.27s-.07.17-.1.26h0a3.46,3.46,0,0,0-.4.82,1.55,1.55,0,0,0,0,.8,3.12,3.12,0,0,0,.15.39,1.61,1.61,0,0,0,.21.3c0,.28-.08.56-.12.83a7.4,7.4,0,0,0-.08.81s0,0,0,0h0l0-.05h0c.06-.25.08-.51.12-.76l.1-.82L58,51.52a2.7,2.7,0,0,1-.14-.4,1.47,1.47,0,0,1,0-.78,3.17,3.17,0,0,1,.37-.79l.45-.79S58.66,48.73,58.66,48.74Z"></path><polygon class="cls-5" points="53.67 58.34 56.33 57.39 54.91 54.91 52.26 55.85 53.67 58.34"></polygon><path class="cls-2" d="M54.83,55.59c-.32.09-.64.19-.95.3s-.62.23-.92.37c.33-.09.64-.2.95-.31A6.76,6.76,0,0,0,54.83,55.59Z"></path><path class="cls-2" d="M55,55.92a2.75,2.75,0,0,0-.49.14,4.32,4.32,0,0,0-.45.19,3.92,3.92,0,0,0,.49-.13A4.43,4.43,0,0,0,55,55.92Z"></path><path class="cls-2" d="M55.21,56.25a6.65,6.65,0,0,0-.76.23,7.22,7.22,0,0,0-.72.29,6.65,6.65,0,0,0,.76-.23A7.22,7.22,0,0,0,55.21,56.25Z"></path><path class="cls-2" d="M55.39,56.57c-.32.09-.64.2-1,.31a8,8,0,0,0-.92.36c.32-.09.64-.19.95-.3A9.29,9.29,0,0,0,55.39,56.57Z"></path><path class="cls-2" d="M55.58,56.9a5.79,5.79,0,0,0-.74.23c-.24.08-.47.18-.7.28A7.73,7.73,0,0,0,55.58,56.9Z"></path><polygon class="cls-6" points="53.56 57.15 56.22 56.21 54.8 53.72 52.15 54.66 53.56 57.15"></polygon><path class="cls-2" d="M54.72,54.41c-.32.09-.64.19-.95.3s-.62.23-.92.37c.33-.09.64-.2,1-.31A9.06,9.06,0,0,0,54.72,54.41Z"></path><path class="cls-2" d="M54.91,54.73a3.94,3.94,0,0,0-.49.14,4.43,4.43,0,0,0-.45.2,2.75,2.75,0,0,0,.49-.14A2.57,2.57,0,0,0,54.91,54.73Z"></path><path class="cls-2" d="M55.1,55.06c-.26.07-.51.14-.76.23l-.72.29a5.11,5.11,0,0,0,.76-.23C54.62,55.26,54.86,55.17,55.1,55.06Z"></path><path class="cls-2" d="M55.28,55.39c-.32.08-.64.19-1,.3s-.62.23-.92.36a9.56,9.56,0,0,0,1-.3A9.24,9.24,0,0,0,55.28,55.39Z"></path><path class="cls-2" d="M55.47,55.72c-.26.06-.5.14-.74.22s-.47.18-.7.29a8.78,8.78,0,0,0,1.44-.51Z"></path><path class="cls-4" d="M54.88,57.12,57,56.37a4.9,4.9,0,0,0-.24-.52l-1.13-2L53,54.8l1.14,2C54.22,57,54.88,57.12,54.88,57.12Z"></path><path class="cls-5" d="M54.11,56.82c.11.2.73.29.76.3s-.31-.42-.31-.42A3.74,3.74,0,0,0,54.11,56.82Z"></path><path class="cls-2" d="M55.56,54.59c-.32.09-.64.19-1,.3s-.62.23-.92.37c.32-.09.64-.2,1-.31S55.26,54.72,55.56,54.59Z"></path><path class="cls-2" d="M55.75,54.92a6.65,6.65,0,0,0-.76.23,7.22,7.22,0,0,0-.72.29,6.65,6.65,0,0,0,.76-.23C55.27,55.12,55.52,55,55.75,54.92Z"></path><path class="cls-2" d="M55.93,55.25a6.49,6.49,0,0,0-.75.23,7.22,7.22,0,0,0-.72.29,6.65,6.65,0,0,0,.76-.23A6.22,6.22,0,0,0,55.93,55.25Z"></path><path class="cls-10" d="M62.1,47.82c1.24,1.68,3.62,5.67,2.82,6.55a14,14,0,0,1-5.44,2.92c-.42.11-1.85-3-1.45-3.22s3.87-1.32,3.86-1.61-.36-1.54-.65-3.28C60.9,47.14,61.51,47,62.1,47.82Z"></path><path class="cls-10" d="M59.57,53.9s-1.27-.41-2.12-.64a5.09,5.09,0,0,0-1.68-.21c-.58.1-3,.88-2.78,1.46s2.11-.41,2.11-.41-2.05.77-1.74,1.36,2.37-.75,2.37-.75-2.09.84-1.67,1.4,2.25-.68,2.25-.68-1.79.72-1.49,1.18S57,56.19,57,56.19a3,3,0,0,0,2.48,1.1A25.63,25.63,0,0,0,59.57,53.9Z"></path><path class="cls-9" d="M55.8,53.79c-.25.09-.5.17-.73.27s-.47.21-.7.33a4.78,4.78,0,0,0-.84.57,9.38,9.38,0,0,1,1.56-.84l.7-.32Z"></path><path class="cls-9" d="M56.18,54.64a8.6,8.6,0,0,0-1.79.78s0,0,0,0c.3-.14,1.51-.64,1.77-.78C56.19,54.65,56.19,54.64,56.18,54.64Z"></path><path class="cls-9" d="M56.64,55.31a5.65,5.65,0,0,0-1.3.59s0,0,0,0c.42-.2.72-.31,1.29-.59Z"></path><path class="cls-13" d="M59.16,53.56,61,57.62s3.49-2.18,4.13-3.38S63,48.81,62.31,48s-1.25-1-1.19.43a34.83,34.83,0,0,0,.66,4S59.16,53.56,59.16,53.56Z"></path><path class="cls-9" d="M60.86,55.14c-.13-.31-.67-1.53-.83-1.81h0c.1.32.62,1.56.75,1.87.27.62.53,1.24.84,1.83h0C61.41,56.38,61.13,55.76,60.86,55.14Z"></path><path class="cls-9" d="M61.5,50.85c-.1-.54-.19-1.08-.28-1.63h0c0,.31.06.62.1.92l-.14-.47s0,0,0,0a2.64,2.64,0,0,0,.17.61l.09.56c.05.27.29,1.45.33,1.58-.46.16-.86.35-1.3.53l-.66.28a6.31,6.31,0,0,0-.66.29s0,.06,0,.09,0,0,0,0,0,0,0,0l.65-.25.65-.27c.44-.18,1.36-.56,1.36-.57S61.55,51.13,61.5,50.85Z"></path><path class="cls-2" d="M60.44,46.76c-.75.32-1.49,1.63-1.34,1.81s.73-.3.73-.3.05.54.38.56.87-.7,1-1.22C61.39,46.83,61.09,46.48,60.44,46.76Z"></path><path class="cls-10" d="M61.08,47.22c0,.13-.63,1-1.21,1-.2,0-.2-1.06-.2-1.06l0-.07L59.4,46l1.25-.83.18-.11.11.67v.06s0,0,0,.06L61,46c0,.05,0,.08,0,.13v.14A5.21,5.21,0,0,1,61.08,47.22Z"></path><path class="cls-9" d="M61,45.69A2.25,2.25,0,0,1,59.65,47L59.4,46l1.25-.83.18-.11S60.89,45.32,61,45.69Z"></path><path class="cls-10" d="M57.79,44c-.55,1.87.5,2.41.9,2.53s1.63.43,2.37-1.37,0-2.64-.77-2.93S58.35,42.1,57.79,44Z"></path><path class="cls-9" d="M58.15,43.72h.14a.22.22,0,0,0,.14,0,.06.06,0,0,0,0-.08.14.14,0,0,0-.15-.08.24.24,0,0,0-.18,0,.08.08,0,0,0,0,.1A.05.05,0,0,0,58.15,43.72Z"></path><path class="cls-9" d="M59.44,44.07,59.32,44a.24.24,0,0,1-.11-.09.08.08,0,0,1,0-.08.19.19,0,0,1,.18,0,.22.22,0,0,1,.12.13.07.07,0,0,1,0,.1Z"></path><path class="cls-9" d="M59,44.45h0c0,.13-.07.28,0,.35h0C58.93,44.76,59,44.56,59,44.45Z"></path><path class="cls-9" d="M59.17,44.35c.21,0,.1.46-.09.42S59,44.31,59.17,44.35Z"></path><path class="cls-9" d="M59.24,44.39s.06.08.1.1a.19.19,0,0,0,.14-.05h0c0,.08-.07.15-.16.14s-.11-.09-.11-.18S59.23,44.38,59.24,44.39Z"></path><path class="cls-9" d="M58.31,44.24h0c0,.13-.08.28-.21.29h0C58.23,44.55,58.3,44.36,58.31,44.24Z"></path><path class="cls-9" d="M58.23,44.08c-.21-.07-.32.34-.14.41S58.4,44.13,58.23,44.08Z"></path><path class="cls-9" d="M58.14,44.08s-.09,0-.13,0-.06-.06-.08-.11h0a.17.17,0,0,0,0,.2c.07,0,.14,0,.18-.09S58.15,44.07,58.14,44.08Z"></path><path class="cls-9" d="M58.76,45.5a.27.27,0,0,1-.12.06l-.14-.07m0,0a.18.18,0,0,0,.15.11.14.14,0,0,0,.12-.09s0,0,0,0Z"></path><path class="cls-9" d="M58.32,45.16a.51.51,0,0,0,.15.23.24.24,0,0,0,.14,0c.11,0,.14-.08.16-.17v-.13A.77.77,0,0,1,58.32,45.16Z"></path><path class="cls-15" d="M58.47,45.39a.24.24,0,0,0,.14,0c.11,0,.14-.08.16-.17A.27.27,0,0,0,58.47,45.39Z"></path><path class="cls-9" d="M58.35,44.9a1.87,1.87,0,0,0-.1.28l0,0h0a.45.45,0,0,0,.46,0s0,0,0,0a.64.64,0,0,1-.41,0s.14-.31.13-.32h-.22c.15-.39.36-.75.51-1.13,0,0,0,0,0,0h0a6.64,6.64,0,0,0-.6,1.19C58.11,44.92,58.31,44.9,58.35,44.9Z"></path><path class="cls-9" d="M60.94,45.08c-.44-.1-.29-.8-.29-.8s-.5-.15-.36-1a1.26,1.26,0,0,1-1,.39c-.15,0,.41-.28.41-.28a2,2,0,0,1-1.73,0,1.78,1.78,0,0,1,1.27-1.34,1.83,1.83,0,0,1,2.06.82,1.31,1.31,0,0,1,.5,1C61.7,44.5,61.12,45.11,60.94,45.08Z"></path><path class="cls-10" d="M60.86,45.81h-.09l-.09,0-.11,0-.06-.07a.5.5,0,0,1,0-.13l.21-.48s.54-.51.78-.31S61.2,45.76,60.86,45.81Z"></path><path class="cls-9" d="M61.3,45a.83.83,0,0,0-.53.42.18.18,0,0,1,.26,0s0,0,0,0h0a.2.2,0,0,0-.24,0,1.07,1.07,0,0,0-.14.16s0,0,0,0h0c0-.28.35-.63.66-.6Z"></path><path class="cls-2" d="M60.85,45.72a.09.09,0,0,1-.12.05h0a.09.09,0,0,1,0-.12.1.1,0,0,1,.12,0,.09.09,0,0,1,.05.12Z"></path><path class="cls-2" d="M61.06,45.63a.07.07,0,0,1-.09,0,.06.06,0,0,1,0-.08.07.07,0,0,1,.08,0h0A.07.07,0,0,1,61.06,45.63Z"></path></g><g id="freepik--character-1--inject-7"><path class="cls-16" d="M20,20.63C18.16,22,15.09,26,15.49,26.85c.81,1.81,3.58,4.07,4.28,4.49.42.24,3-2.58,2.6-2.9A40,40,0,0,1,19,25.88c0-.18,1.12-2.27,1.94-4C21.88,19.82,20.81,20,20,20.63Z"></path><path class="cls-17" d="M21.94,28.25s1.33.6,2.18,1a5.71,5.71,0,0,1,1.52,1.07c.4.5,1.75,2.86,1.18,3.2s-1.41-1.87-1.41-1.87,1.1,2.12.42,2.37-1.38-2.33-1.38-2.33,1.09,2.2.34,2.35c-.56.12-1.33-2.2-1.33-2.2s.92,1.9.35,2S22.34,32,22.34,32c-1.53.12-2.52-.34-2.91-1.07A26.57,26.57,0,0,1,21.94,28.25Z"></path><path class="cls-9" d="M25.07,30.93c.14.24.28.49.4.74s.22.51.32.78a5.47,5.47,0,0,1,.26,1.06,11.4,11.4,0,0,0-.65-1.81c-.12-.26-.22-.52-.34-.77Z"></path><path class="cls-9" d="M24.14,31.33c.17.32.34.63.49,1s.26.64.39,1c0,0,0,0,0,0-.14-.32-.29-.62-.44-.94l-.42-1Z"></path><path class="cls-9" d="M23.28,31.54a7.69,7.69,0,0,1,.64,1.51s0,0,0,0c-.2-.51-.35-.91-.62-1.5C23.26,31.54,23.28,31.53,23.28,31.54Z"></path><path class="cls-18" d="M21.67,27.88l-2.48,3.45s-3.89-3.41-3.87-4.7,2.8-4.72,4.42-6,1.92-.26,1.33,1.17-2,4-1.92,4.09S21.67,27.88,21.67,27.88Z"></path><path class="cls-9" d="M19.82,29.09l.53-.7.25-.33c.08-.12.18-.24.26-.37h0c-.11.1-.2.23-.3.34l-.27.32-.55.68c-.36.46-.7.92-1,1.39a0,0,0,0,0,0,0h0C19.08,30,19.46,29.55,19.82,29.09Z"></path><path class="cls-16" d="M16.27,50.14l-.42,5.79a23.4,23.4,0,0,0,.08,2.38m0,0a.71.71,0,0,0,.07.32h0a84.83,84.83,0,0,0,8.72.33c.29-.09.06-.91-.25-1.17s-3.38-1.74-3.38-1.74l.37-5.78Z"></path><path class="cls-2" d="M15.84,54.84v1.09a23.4,23.4,0,0,0,.08,2.38m0,0a1.14,1.14,0,0,0,.07.32h0a84.83,84.83,0,0,0,8.72.33c.29-.09.06-.91-.25-1.17s-3.38-1.74-3.38-1.74V55Z"></path><path class="cls-9" d="M21.59,56.06a1.9,1.9,0,0,0-1.61.4s0,0,0,0a7.14,7.14,0,0,1,1.57-.36s0,0,0-.05Z"></path><path class="cls-9" d="M22,56.28a1.91,1.91,0,0,0-1.6.4s0,0,0,0A8.42,8.42,0,0,1,22,56.35s0,0,0,0Z"></path><path class="cls-9" d="M22.37,56.51a1.92,1.92,0,0,0-1.6.4s0,0,0,0a7.36,7.36,0,0,1,1.58-.36,0,0,0,0,0,0,0S22.39,56.51,22.37,56.51Z"></path><path class="cls-5" d="M24.73,59c-.28.08-8.42-.13-8.72-.33a10.52,10.52,0,0,1-.16-2.7v0l5.24.07v.09s3.07,1.48,3.39,1.74S25,58.87,24.73,59Z"></path><path class="cls-4" d="M15.85,55.89v0A10.47,10.47,0,0,0,16,58.63a32.1,32.1,0,0,0,3.8.26c2.28.08,4.76.12,4.92.07s.05-.91-.26-1.17-3.38-1.74-3.38-1.74V56l-1.75,0Z"></path><path class="cls-9" d="M24.64,58.64c-1.37-.07-6.9-.22-8.26-.18h0c1.36.1,6.89.21,8.26.2C24.68,58.66,24.68,58.64,24.64,58.64Z"></path><g class="cls-14"><path d="M19.34,55.94c.13.87.33,2.17.47,2.94,2.28.08,4.76.12,4.92.07s.05-.91-.26-1.17-3.38-1.73-3.38-1.73V56Z"></path></g><path class="cls-5" d="M15.37,56l5.89.06s2.1-22.15.64-27.83H17.51A8.28,8.28,0,0,0,17,33.31l-.21,9.76Z"></path><path class="cls-9" d="M15.81,54.93a3.59,3.59,0,0,1,.47,0l.52,0,1,0c.68,0,1.35,0,2,0l1.15,0a0,0,0,1,1,0,0L19,55c-.67,0-1.34,0-2,0a5.52,5.52,0,0,1-.58,0c-.19,0-.39,0-.58,0C15.8,55,15.8,54.94,15.81,54.93Z"></path><path class="cls-9" d="M21.3,49.18c.07-1.58.12-3.17.16-4.74q.13-4.75.07-9.51c0-1.78-.07-3.56-.12-5.34a0,0,0,0,1,0,0c.17,3.18.23,6.37.23,9.56s-.06,6.34-.22,9.51c-.08,1.77-.66,4-.82,5.8h0C20.67,52.84,21.23,50.78,21.3,49.18Z"></path><path class="cls-16" d="M22.74,50.83l.05,5.32a23,23,0,0,0,.08,2.37h0a.88.88,0,0,0,.07.32h0a85,85,0,0,0,8.72.33c.29-.09.06-.91-.25-1.17S28,56.28,28,56.28L27.93,51Z"></path><path class="cls-2" d="M22.78,55.06v1.09a23,23,0,0,0,.08,2.37h0a1.83,1.83,0,0,0,.07.32h0a85,85,0,0,0,8.72.33c.29-.09.06-.91-.25-1.17S28,56.28,28,56.28V55.17Z"></path><path class="cls-9" d="M28.53,56.28a1.88,1.88,0,0,0-1.6.4s0,0,0,0a7.72,7.72,0,0,1,1.58-.37s0,0,0,0Z"></path><path class="cls-9" d="M28.92,56.5a1.91,1.91,0,0,0-1.6.4s0,0,0,0a8.61,8.61,0,0,1,1.58-.36s0,0,0,0A0,0,0,0,0,28.92,56.5Z"></path><path class="cls-9" d="M29.32,56.73a1.94,1.94,0,0,0-1.61.4s0,0,0,0a7.1,7.1,0,0,1,1.58-.36s0,0,0,0S29.33,56.73,29.32,56.73Z"></path><path class="cls-4" d="M31.67,59.18c-.29.08-8.42-.13-8.72-.33a11.07,11.07,0,0,1-.16-2.7v0l5.24.07v.09s3.08,1.48,3.39,1.74S32,59.09,31.67,59.18Z"></path><path class="cls-9" d="M31.58,58.86c-1.36-.07-6.89-.22-8.25-.19,0,0,0,0,0,0,1.35.1,6.88.21,8.25.2C31.61,58.88,31.61,58.86,31.58,58.86Z"></path><path class="cls-5" d="M20.06,33.82s1.8,7.84,1.76,9,.58,13.42.58,13.42l6.11,0S28,43.8,27.89,42.56c-.17-2.32-2.21-8.69-3.66-14.38H17.64a11.55,11.55,0,0,0,1.41,5.13S19.67,33.6,20.06,33.82Z"></path><path class="cls-9" d="M18,32.77c.5.28,1,.52,1.54.77l.78.36.39.18.38.15v0h0a2.71,2.71,0,0,1-.41-.09l-.38-.1c.13.48.22,1,.32,1.46s.21,1.07.32,1.6c.22,1.07.43,2.13.64,3.2.11.52.22,1,.29,1.56a10.64,10.64,0,0,1,.12,1.59c0,1.08,0,2.17.06,3.25s0,2.43,0,3.65c0,0,0,0,0,0-.13-2.16-.18-4.32-.23-6.48,0-.53,0-1.07-.08-1.6s-.16-1-.26-1.56l-.66-3.17-.36-1.78c-.07-.3-.12-.6-.18-.9s-.12-.58-.16-.87c-.22-.08-.44-.16-.66-.26a7.29,7.29,0,0,1-1.47-.93S17.93,32.75,18,32.77Z"></path><path class="cls-9" d="M22.5,55.11c.74,0,1.5,0,2.24,0s1.46,0,2.18.07c.42,0,.83,0,1.24.08h0c-.74,0-1.47,0-2.21,0s-1.45,0-2.18,0l-1.24-.07S22.46,55.11,22.5,55.11Z"></path><path class="cls-9" d="M23.75,33.15c.2.68.37,1.37.55,2.06s.37,1.39.56,2.08c.36,1.34.7,2.68,1,4.05a25,25,0,0,1,.46,4.14c0,1.42,0,2.85,0,4.27s0,2.85-.05,4.28c0,.17,0,.35,0,.53h0c0-1.42,0-2.84,0-4.26s0-2.84,0-4.26a25.82,25.82,0,0,0-.36-4.21c-.24-1.37-.58-2.71-.93-4.06l-.6-2.29c-.2-.76-.42-1.54-.59-2.32a0,0,0,0,1,0,0Z"></path><path class="cls-17" d="M22.49,21.44c-.44.08-1.23-.69-1.49-1.25,0,0,.07-.42.14-.89a8.85,8.85,0,0,0,.11-.9l1.81.57a5.25,5.25,0,0,0-.25,1.11v.14C22.85,20.46,22.92,21.37,22.49,21.44Z"></path><path class="cls-9" d="M22.83,20.21v0h-.19c-1.09-.11-1.29-1.35-1.33-1.81l1.76.55a4.89,4.89,0,0,0-.25,1.12A.49.49,0,0,0,22.83,20.21Z"></path><path class="cls-17" d="M20.73,16.47a4.44,4.44,0,0,0,1,2.86A1.5,1.5,0,0,0,24,18.89a4.36,4.36,0,0,0-1-3.54A1.63,1.63,0,0,0,20.73,16.47Z"></path><path class="cls-9" d="M22.78,17.35v0c0,.12.07.27,0,.34h0C22.88,17.65,22.84,17.46,22.78,17.35Z"></path><path class="cls-9" d="M22.63,17.25c-.21.05-.1.45.09.41S22.8,17.21,22.63,17.25Z"></path><path class="cls-9" d="M23.48,17.16s0,0,0,0,.08.27.21.28h0C23.56,17.47,23.49,17.28,23.48,17.16Z"></path><path class="cls-9" d="M23.56,17c.2-.07.32.33.14.39S23.4,17.06,23.56,17Z"></path><path class="cls-9" d="M22.42,17.11l.14-.1a.3.3,0,0,0,.13-.12.11.11,0,0,0,0-.11.24.24,0,0,0-.22,0,.28.28,0,0,0-.14.18.09.09,0,0,0,.06.12Z"></path><path class="cls-9" d="M23.66,16.75a.48.48,0,0,1-.17,0,.25.25,0,0,1-.17,0,.08.08,0,0,1,0-.1.2.2,0,0,1,.2-.1.34.34,0,0,1,.22.07.09.09,0,0,1,0,.13A.09.09,0,0,1,23.66,16.75Z"></path><path class="cls-9" d="M23,18.52s.07.06.12.05l.13-.07h0a.19.19,0,0,1-.14.11.13.13,0,0,1-.13-.08S22.94,18.52,23,18.52Z"></path><path class="cls-9" d="M23,18.11a.45.45,0,0,0,.33.12l.16,0h.05a.05.05,0,0,0,0,0h0a2.15,2.15,0,0,0-.07-.24s.24,0,.22,0a6.4,6.4,0,0,0-.5-1.25h0c.11.4.29.78.42,1.18a.83.83,0,0,0-.22,0s.1.28.1.32h0a.62.62,0,0,1-.48,0S23,18.1,23,18.11Z"></path><path class="cls-9" d="M23.4,18.16a.54.54,0,0,1-.16.21.23.23,0,0,1-.14,0c-.11,0-.14-.09-.14-.17a.53.53,0,0,1,0-.13A.72.72,0,0,0,23.4,18.16Z"></path><path class="cls-15" d="M23.24,18.37a.23.23,0,0,1-.14,0c-.11,0-.14-.09-.14-.17A.25.25,0,0,1,23.24,18.37Z"></path><path class="cls-9" d="M21.09,17.94c.47-.11.37-1,.37-1s.77-.31.75-.94a1.89,1.89,0,0,0,1.42,0,.8.8,0,0,0,.17-1.13c-.11-.13-.37.21-.37.21s-.12-.37-.23-.39-.17.24-.17.24a5.53,5.53,0,0,0-1.52.09,1.35,1.35,0,0,0-.88,1s-.36.17-.42.45S20.8,18,21.09,17.94Z"></path><path class="cls-9" d="M22.18,15.91a1.21,1.21,0,0,1,0,.38.74.74,0,0,1-.16.32,1,1,0,0,1-.3.21l-.18.07-.18.05.19,0,.19-.06a.78.78,0,0,0,.33-.21.6.6,0,0,0,.16-.35A.86.86,0,0,0,22.18,15.91Z"></path><path class="cls-9" d="M20.64,16.07a1.18,1.18,0,0,1,.16-.58.9.9,0,0,1,.45-.39l.14-.06.14,0,.31,0h.31l.31,0-.31-.06c-.1,0-.21,0-.31,0a1.67,1.67,0,0,0-.62.12.92.92,0,0,0-.46.41A1.12,1.12,0,0,0,20.64,16.07Z"></path><path class="cls-6" d="M22.61,18.11a.61.61,0,1,1,.47-.84h0a.61.61,0,0,1-.32.8ZM22.44,17a.53.53,0,0,0,.15,1,.52.52,0,0,0,.45-.59.5.5,0,0,0,0-.13.53.53,0,0,0-.56-.32Z"></path><path class="cls-6" d="M24,17.74c-.23,0-.47-.17-.56-.48a.74.74,0,0,1,0-.44.38.38,0,0,1,.47-.26.46.46,0,0,1,.15.09.73.73,0,0,1,.24.38c.08.32,0,.64-.28.7Zm-.22-1.1h0a.32.32,0,0,0-.21.21.58.58,0,0,0,0,.39c.07.28.29.46.49.41s.3-.32.22-.6a.61.61,0,0,0-.21-.34A.29.29,0,0,0,23.73,16.64Z"></path><path class="cls-6" d="M23.08,17.35l-.07,0c.07-.1.25-.26.43-.14l0,.06C23.24,17.13,23.09,17.34,23.08,17.35Z"></path><path class="cls-6" d="M20.63,18.19l-.08,0s.09-.36.25-.43A11.73,11.73,0,0,1,22,17.48v.08a10.84,10.84,0,0,0-1.13.25C20.73,17.86,20.65,18.1,20.63,18.19Z"></path><path class="cls-17" d="M21.33,17.94s-.51-.54-.77-.34.21,1,.55,1.09a.33.33,0,0,0,.41-.22v0Z"></path><path class="cls-9" d="M20.7,17.84a.84.84,0,0,1,.51.45.19.19,0,0,0-.26,0s0,0,0,0m0,0a.2.2,0,0,1,.23,0l.14.16s.05,0,0,0h0c0-.3-.33-.67-.64-.65Z"></path><path class="cls-18" d="M16.64,30.54s8.49.48,8.57.4-.69-8.56-2.27-10.23c-.38-.41-1.71-.87-2.13-.59a7.39,7.39,0,0,0-2.14,3.24,25.43,25.43,0,0,0-1,3.05A28.91,28.91,0,0,0,16.64,30.54Z"></path><path class="cls-9" d="M18.81,22.94c-.33.76-.65,1.53-.91,2.33s-.5,1.58-.7,2.39c-.11.47-.21.93-.29,1.4,0,0,0,0,0,0h0c.22-.8.43-1.61.67-2.41s.5-1.59.76-2.39c.15-.44.31-.88.47-1.32C18.84,22.93,18.82,22.92,18.81,22.94Z"></path><path class="cls-16" d="M21.79,22.15c1.35,1.77,4.15,4.94,5.73,5s5.08-2.1,6-2.71c.39-.27-1.76-3-2.23-2.83s-3.4,1.95-3.77,2-3-1.83-4.64-2.82C20.91,19.61,20.71,20.7,21.79,22.15Z"></path><path class="cls-17" d="M30.05,22.29a19.13,19.13,0,0,1,1.46-2,8.81,8.81,0,0,1,2.58-1,5.7,5.7,0,0,1,2.3.68c.23.22-.16.76-1.06.69a8.18,8.18,0,0,0-1.27-.09c-.24,0-1,.63-.89,1a1,1,0,0,0,.91.5c.37-.07.6-.44,1.06-.66s1-.13,1,.06-.17.34-.68.88a8.81,8.81,0,0,1-1.23,1.6c-.34.27-1.45.91-1.45.91Z"></path><path class="cls-5" d="M34.09,23.39l2.81.16a1.65,1.65,0,0,0,.17-.56c0-.56.13-2.25.13-2.25l-2.81-.16s-.1,1.71-.13,2.28A1.73,1.73,0,0,1,34.09,23.39Z"></path><path class="cls-2" d="M34.71,21.25c.33,0,.66,0,1,0s.66.06,1,.11c-.33,0-.66,0-1,0S35,21.3,34.71,21.25Z"></path><path class="cls-2" d="M34.68,21.62q.45,0,.9,0a8.81,8.81,0,0,1,.88.11c-.29,0-.59,0-.89,0S35,21.67,34.68,21.62Z"></path><path class="cls-2" d="M34.65,22c.27,0,.53,0,.78,0a6.93,6.93,0,0,1,.78.1A10.25,10.25,0,0,1,34.65,22Z"></path><path class="cls-2" d="M34.63,22.36c.33,0,.66,0,1,0s.66.06,1,.11c-.34,0-.67,0-1,0S35,22.41,34.63,22.36Z"></path><path class="cls-17" d="M31.51,20.26A5.11,5.11,0,0,1,34,19c.62-.08,2.32,1.35,2.17,1.7s-.48.28-.95.1c-.18-.07-1-.64-1.25-.48a6,6,0,0,0-.83,1.12Z"></path><path class="cls-9" d="M36.11,20.54a2.34,2.34,0,0,0-1.1-1.1s0,0,0,0a5,5,0,0,1,1.09,1.09S36.11,20.54,36.11,20.54Z"></path><path class="cls-17" d="M31.51,20.26A5.11,5.11,0,0,1,34,19c.62-.08,1.85,1.51,1.7,1.87s-.63.27-1.12-.05c-.15-.1-.62-.64-.83-.48s-1.05.79-1.05.79Z"></path><path class="cls-9" d="M35,21a1.53,1.53,0,0,1-.55-.39,1.37,1.37,0,0,0-.45-.35.39.39,0,0,0-.24,0,.64.64,0,0,0-.22.14l-.23.19-.17.16s0,0,0,0a2.34,2.34,0,0,1,.41-.29.8.8,0,0,1,.22-.13.4.4,0,0,1,.26.05c.15.09.27.24.43.35A1.28,1.28,0,0,0,35,21S35,21,35,21Z"></path><path class="cls-9" d="M35.66,20.46a1.69,1.69,0,0,0-.37-.58,5.66,5.66,0,0,0-.49-.49l-.28-.23a.92.92,0,0,0-.3-.18,1.33,1.33,0,0,0-.79.11v0a1.55,1.55,0,0,1,.67-.1.79.79,0,0,1,.31.17l.24.2a3.54,3.54,0,0,1,.85,1,.59.59,0,0,1,0,.66s0,0,0,0A.49.49,0,0,0,35.66,20.46Z"></path><path class="cls-17" d="M31.15,20.65c.18-.22.64-1.18.91-1.44s1.43-1.12,1.84-1-.27,1-.64,1.32a2,2,0,0,0-.49,1Z"></path><path class="cls-9" d="M33.8,19a3.8,3.8,0,0,0-.37.33,3.34,3.34,0,0,0-.33.32,3.11,3.11,0,0,0-.28.62c-.06.35-.14,1.08-.3,1.77a3.42,3.42,0,0,1-.29.75c0,.06,0,.11,0,0a7.16,7.16,0,0,0,.68-2.53,2.08,2.08,0,0,1,.26-.59c.19-.24.43-.44.62-.68C33.82,19,33.81,19,33.8,19Z"></path><path class="cls-18" d="M30,22.22l2.43,3.2S28.65,27.68,27,27.2s-4.55-3.76-5.49-5.3-.27-2.19,1.3-1.25,4.49,2.75,4.61,2.79S30,22.22,30,22.22Z"></path><path class="cls-9" d="M30.46,24.19l-.52-.69c-.08-.12-.17-.23-.25-.34l-.28-.35s0,0,0,0l.25.38.23.35c.17.24.33.48.5.71.34.47.7.94,1.05,1.4,0,0,0,0,0,0C31.12,25.15,30.79,24.67,30.46,24.19Z"></path><path class="cls-9" d="M28.44,27.12a2.27,2.27,0,0,1-1.29.08,3,3,0,0,1-1.26-.65,19.72,19.72,0,0,1-2.33-2.15c-.41-.44-.81-.9-1.19-1.37h0c.25.35.5.69.77,1L23.06,24l-.4-.37s0,0,0,0l.39.39c.11.09.21.19.33.27a16.46,16.46,0,0,0,1.15,1.22c.4.38.82.74,1.25,1.08A3.06,3.06,0,0,0,27,27.3a2.5,2.5,0,0,0,1.43-.15S28.45,27.12,28.44,27.12Z"></path></g><path class="cls-3" d="M26.81,3a.39.39,0,0,1-.18-.2.84.84,0,0,1-.06-.33.79.79,0,0,1,.06-.32.46.46,0,0,1,.18-.21.41.41,0,0,1,.25-.07.45.45,0,0,1,.25.07.51.51,0,0,1,.17.21.66.66,0,0,1,.07.32.7.7,0,0,1-.07.33.42.42,0,0,1-.17.2.45.45,0,0,1-.25.07A.41.41,0,0,1,26.81,3Zm.45-.22a.62.62,0,0,0,.07-.31.62.62,0,0,0-.07-.31.23.23,0,0,0-.2-.1.22.22,0,0,0-.2.1.53.53,0,0,0-.07.31.53.53,0,0,0,.07.31.23.23,0,0,0,.2.11A.24.24,0,0,0,27.26,2.76Z"></path><path class="cls-3" d="M28.09,1.87V3h-.22v-1h-.24V1.87Z"></path><path class="cls-3" d="M37.18,3a.39.39,0,0,1-.18-.2.84.84,0,0,1-.06-.33A.79.79,0,0,1,37,2.13a.46.46,0,0,1,.18-.21.41.41,0,0,1,.25-.07.43.43,0,0,1,.25.07.51.51,0,0,1,.17.21.66.66,0,0,1,.07.32.7.7,0,0,1-.07.33.42.42,0,0,1-.17.2.43.43,0,0,1-.25.07A.41.41,0,0,1,37.18,3Zm.45-.22a.62.62,0,0,0,.07-.31.62.62,0,0,0-.07-.31.23.23,0,0,0-.2-.1.22.22,0,0,0-.2.1.53.53,0,0,0-.07.31.53.53,0,0,0,.07.31.23.23,0,0,0,.2.11A.24.24,0,0,0,37.63,2.76Z"></path><path class="cls-3" d="M38.91,2.85V3H38V2.89l.47-.44a.35.35,0,0,0,.1-.13.26.26,0,0,0,0-.11.17.17,0,0,0,0-.13.27.27,0,0,0-.17,0,.32.32,0,0,0-.27.12L38,2a.37.37,0,0,1,.18-.14.75.75,0,0,1,.26,0,.5.5,0,0,1,.31.09.31.31,0,0,1,.11.25.33.33,0,0,1,0,.17,1,1,0,0,1-.15.2l-.32.29Z"></path><path class="cls-3" d="M47.81,3a.44.44,0,0,1-.18-.2.84.84,0,0,1-.06-.33.79.79,0,0,1,.06-.32.53.53,0,0,1,.18-.21.41.41,0,0,1,.25-.07.43.43,0,0,1,.25.07.53.53,0,0,1,.18.21.79.79,0,0,1,.06.32.84.84,0,0,1-.06.33.44.44,0,0,1-.18.2.43.43,0,0,1-.25.07A.41.41,0,0,1,47.81,3Zm.45-.22a.53.53,0,0,0,.07-.31.53.53,0,0,0-.07-.31.25.25,0,0,0-.4,0,.53.53,0,0,0-.07.31.53.53,0,0,0,.07.31.24.24,0,0,0,.4,0Z"></path><path class="cls-3" d="M49.43,2.46a.36.36,0,0,1,.08.23.29.29,0,0,1,0,.18A.37.37,0,0,1,49.3,3a.62.62,0,0,1-.25,0,.93.93,0,0,1-.24,0,.75.75,0,0,1-.2-.1l.09-.17a.4.4,0,0,0,.16.08.58.58,0,0,0,.19,0,.35.35,0,0,0,.18-.05.16.16,0,0,0,.06-.13.15.15,0,0,0-.06-.13A.33.33,0,0,0,49,2.51h-.11V2.36l.27-.31h-.53V1.87h.79V2l-.28.34A.39.39,0,0,1,49.43,2.46Z"></path><path class="cls-3" d="M57.88,3a.39.39,0,0,1-.18-.2.84.84,0,0,1-.06-.33.79.79,0,0,1,.06-.32.46.46,0,0,1,.18-.21.41.41,0,0,1,.25-.07.43.43,0,0,1,.25.07.51.51,0,0,1,.17.21.66.66,0,0,1,.07.32.7.7,0,0,1-.07.33.42.42,0,0,1-.17.2.43.43,0,0,1-.25.07A.41.41,0,0,1,57.88,3Zm.45-.22a.62.62,0,0,0,.07-.31.62.62,0,0,0-.07-.31.23.23,0,0,0-.2-.1.22.22,0,0,0-.2.1.53.53,0,0,0-.07.31.53.53,0,0,0,.07.31.23.23,0,0,0,.2.11A.24.24,0,0,0,58.33,2.76Z"></path><path class="cls-3" d="M59.81,2.77H59.6V3h-.21V2.77h-.64V2.62l.58-.75h.23L59,2.59h.38V2.35h.2v.24h.21Z"></path></g></svg> 