<?xml version="1.0" encoding="UTF-8"?> <svg xmlns="http://www.w3.org/2000/svg" id="Layer_1" data-name="Layer 1" viewBox="0 0 1037 139.68"><defs><style>.cls-1{fill:#28569d;}.cls-2{fill:none;stroke:#28569d;stroke-miterlimit:10;stroke-width:2px;}</style></defs><polygon class="cls-1" points="678.12 110.69 677.41 110.77 677.41 110.69 678.12 110.69"></polygon><path class="cls-1" d="M694.87,98.72H665.45v.71a3,3,0,0,0,1.85,2.78,3.14,3.14,0,0,0,1.15.23h26.42a1.85,1.85,0,0,0,1.85-1.85h0A1.86,1.86,0,0,0,694.87,98.72Z"></path><path class="cls-1" d="M675.8,104.72h-6.57a.58.58,0,0,1,0,.14,3.69,3.69,0,0,0,0,.58v.16a.57.57,0,0,0,0,.13,2.53,2.53,0,0,0,.13.62,1,1,0,0,0,0,.13,1,1,0,0,1,0,.12.22.22,0,0,1,0,.1s.05.11.08.16l0,.09a.24.24,0,0,0,.06.09c0,.07.08.13.13.19s0,0,0,.08l.08.1.16.17,0,0,.11.09.08.08.08.07h0s0,0,.06,0a2,2,0,0,0,.47.26l.1,0,.26.1.18,0,0,0h.13a.34.34,0,0,0,.14,0h0l.16,0h3.81a1.87,1.87,0,0,0,1.86-1.86h0A1.77,1.77,0,0,0,675.8,104.72Z"></path><path class="cls-1" d="M722.08,110.44H724v11.77a1.58,1.58,0,0,1-1.57,1.57h-.3a1.58,1.58,0,0,1-1.57-1.57h0a5.25,5.25,0,0,1-4.35,2,6.07,6.07,0,0,1-4.58-2,7.5,7.5,0,0,1,0-10,6,6,0,0,1,4.58-2,5.22,5.22,0,0,1,4.35,2h0A1.57,1.57,0,0,1,722.08,110.44Zm-7.91,9.37a3.51,3.51,0,0,0,2.64,1,3.58,3.58,0,0,0,2.65-1,4,4,0,0,0,0-5.43,3.59,3.59,0,0,0-2.65-1.06,3.52,3.52,0,0,0-2.64,1.06,3.69,3.69,0,0,0-1,2.71A3.6,3.6,0,0,0,714.17,119.81Z"></path><path class="cls-1" d="M727.07,122.05V112a1.57,1.57,0,0,1,1.57-1.57h1.87v11.61a1.72,1.72,0,0,1-1.73,1.73h0A1.73,1.73,0,0,1,727.07,122.05Z"></path><path class="cls-1" d="M733.67,122.05V105.87a1.57,1.57,0,0,1,1.57-1.57h1.87v17.75a1.72,1.72,0,0,1-1.73,1.73h0A1.73,1.73,0,0,1,733.67,122.05Z"></path><path class="cls-1" d="M746.81,124.14a8.37,8.37,0,0,1-4.68-1.24,6.64,6.64,0,0,1-1.81-1.73,1.74,1.74,0,0,1,.55-2.48l.24-.14a1.7,1.7,0,0,1,2.21.41,4.28,4.28,0,0,0,3.58,1.56,3.69,3.69,0,0,0,2.28-.57,1.71,1.71,0,0,0,.72-1.41A1.73,1.73,0,0,0,749,117a13.65,13.65,0,0,0-3.15-1.19,21.45,21.45,0,0,1-2.12-.76,8.77,8.77,0,0,1-1.73-1,4.14,4.14,0,0,1-1.32-1.59,5.21,5.21,0,0,1-.45-2.24,5,5,0,0,1,1.8-4,6.49,6.49,0,0,1,4.33-1.51,7.19,7.19,0,0,1,4,1.11,7.49,7.49,0,0,1,2.69,3.08l-1.46.85a2.05,2.05,0,0,1-2.51-.38,3.62,3.62,0,0,0-2.71-1.08,2.81,2.81,0,0,0-1.8.52,1.64,1.64,0,0,0-.66,1.35,1.69,1.69,0,0,0,.74,1.42,10.35,10.35,0,0,0,2.81,1.2l1.29.41c.29.09.69.25,1.2.45a6.81,6.81,0,0,1,1.18.58,9.15,9.15,0,0,1,.94.72,3.83,3.83,0,0,1,.82.93,5.25,5.25,0,0,1,.49,1.16,5.47,5.47,0,0,1-1.68,5.59A7.55,7.55,0,0,1,746.81,124.14Z"></path><path class="cls-1" d="M755.82,122.05V112a1.57,1.57,0,0,1,1.57-1.57h1.87v11.61a1.72,1.72,0,0,1-1.73,1.73h0A1.73,1.73,0,0,1,755.82,122.05Z"></path><path class="cls-1" d="M774.21,110.44H776v12.7a5.67,5.67,0,0,1-2,4.72A7.61,7.61,0,0,1,769,129.5a8.34,8.34,0,0,1-3.8-.84,6.57,6.57,0,0,1-1.17-.77,1.56,1.56,0,0,1,.23-2.55l.18-.1a1.56,1.56,0,0,1,1.86.24,4,4,0,0,0,2.81,1,3.61,3.61,0,0,0,2.56-.85,3.1,3.1,0,0,0,.95-2.43v-1.45a5.06,5.06,0,0,1-4.28,2,6.31,6.31,0,0,1-4.74-2,7.1,7.1,0,0,1,0-9.69,6.3,6.3,0,0,1,4.73-2,5,5,0,0,1,4.27,2V112A1.59,1.59,0,0,1,774.21,110.44Zm-8,9.07a4,4,0,0,0,5.37,0,3.76,3.76,0,0,0,0-5.23,3.66,3.66,0,0,0-2.68-1,3.78,3.78,0,0,0-2.69,1,3.78,3.78,0,0,0,0,5.23Z"></path><path class="cls-1" d="M793.88,110.06a4.78,4.78,0,0,1,3.67,1.49,5.68,5.68,0,0,1,1.38,4v6.5a1.72,1.72,0,0,1-1.72,1.73h0a1.72,1.72,0,0,1-1.73-1.73v-6.26a2.74,2.74,0,0,0-.58-1.87,2.1,2.1,0,0,0-1.65-.67,2.2,2.2,0,0,0-1.82.77,3.33,3.33,0,0,0-.66,2.24V122a1.72,1.72,0,0,1-1.73,1.73h0a1.72,1.72,0,0,1-1.72-1.73v-6.27a2.66,2.66,0,0,0-.59-1.86,2.09,2.09,0,0,0-1.64-.68,2.27,2.27,0,0,0-1.83.77,3.31,3.31,0,0,0-.67,2.24V122a1.72,1.72,0,0,1-1.73,1.73h0a1.72,1.72,0,0,1-1.72-1.73V110.4h2a1.4,1.4,0,0,1,1.41,1.42h0a4.14,4.14,0,0,1,3.71-1.79,4,4,0,0,1,3.63,1.91A4.58,4.58,0,0,1,793.88,110.06Z"></path><path class="cls-1" d="M813.58,110.44h1.87v11.77a1.58,1.58,0,0,1-1.57,1.57h-.3a1.58,1.58,0,0,1-1.57-1.57h0a5.23,5.23,0,0,1-4.35,2,6.07,6.07,0,0,1-4.58-2,7.5,7.5,0,0,1,0-10,6,6,0,0,1,4.58-2,5.2,5.2,0,0,1,4.35,2h0A1.55,1.55,0,0,1,813.58,110.44Zm-7.93,9.37a3.51,3.51,0,0,0,2.64,1,3.55,3.55,0,0,0,2.65-1,4,4,0,0,0,0-5.43,3.56,3.56,0,0,0-2.65-1.06,3.52,3.52,0,0,0-2.64,1.06,4.09,4.09,0,0,0,0,5.43Z"></path><path class="cls-1" d="M728.64,104.72h1.87v1.88a1.57,1.57,0,0,1-1.57,1.57h-1.87v-1.88A1.58,1.58,0,0,1,728.64,104.72Z"></path><path class="cls-1" d="M757.39,104.72h1.87v1.88a1.57,1.57,0,0,1-1.57,1.57h-1.87v-1.88A1.58,1.58,0,0,1,757.39,104.72Z"></path><path class="cls-1" d="M702.85,104.31v16.11H681.12v-6.73a3.14,3.14,0,0,0-.22-1.15,3.21,3.21,0,0,0-.66-1,3,3,0,0,0-2.12-.88l-.71.08v11.5a1.87,1.87,0,0,0,1.86,1.86H704.7a1.86,1.86,0,0,0,1.85-1.86V100.59a1.87,1.87,0,0,1-.7,1.46h0"></path><path class="cls-1" d="M704.7,98.72h0a1.75,1.75,0,0,0-1.13.4h0l-14.49,10.95-4.81-4.85h0a1.85,1.85,0,0,0-1.3-.53h0a1.85,1.85,0,0,0-1.85,1.85h0a1.82,1.82,0,0,0,.53,1.29h0l0,0h0l5.94,6h0l0,0h0a1.81,1.81,0,0,0,1.29.52h0a1.77,1.77,0,0,0,1.13-.4h0l15.79-12h0a1.82,1.82,0,0,0,.71-1.46h0A1.89,1.89,0,0,0,704.7,98.72Z"></path><path class="cls-1" d="M57.45,108.86v0Z"></path><path class="cls-1" d="M30.49,93.38Zm-.06,1.39Z"></path><path class="cls-1" d="M75.29,110.34a2.09,2.09,0,0,0-1-.48A2.32,2.32,0,0,0,73,110a1.35,1.35,0,0,0-.86.82,15.54,15.54,0,0,0-.66,1.84c-.24.79-.48,1.67-.73,2.64s-.49,2-.71,3-.43,2.13-.6,3.18c-.77-.15-1.53-.27-2.28-.38L65,120.86q.52-2.48,1.27-5t1.58-4.62a.83.83,0,0,0-.23-.94,2.09,2.09,0,0,0-1-.48,2.25,2.25,0,0,0-1.23.11,1.49,1.49,0,0,0-.88.82v.08c-.25.45-.52.89-.81,1.31a7,7,0,0,1-1.26,1.4,5.87,5.87,0,0,1-1.81,1,5.28,5.28,0,0,1-2.49.27,4.28,4.28,0,0,1-2-.77,2.05,2.05,0,0,1-.92-1.52c0-.32-.12-.48-.28-.48a.77.77,0,0,0-.53.31,3,3,0,0,0-.5.9,3,3,0,0,0-.19,1.22,3.35,3.35,0,0,0,.67,1.72,3.07,3.07,0,0,0,1.92,1.12,6.26,6.26,0,0,0,3.91-.4,7.89,7.89,0,0,0,3.2-2.58c-.25.92-.49,1.92-.73,3s-.46,2.15-.66,3.22a12.45,12.45,0,0,0-1.29,0,3.31,3.31,0,0,0-.88.15,1.54,1.54,0,0,0-.93.73,1.78,1.78,0,0,0-.23,1,1.24,1.24,0,0,0,.27.73.31.31,0,0,0,.42.09l.06-.06a2.94,2.94,0,0,1,1-.54,7.37,7.37,0,0,1,1.33-.32,25,25,0,0,0-.27,3.86,3.25,3.25,0,0,0,.64,2.25,2.56,2.56,0,0,0,.77.58,2.11,2.11,0,0,0,.79.22.7.7,0,0,0,.58-.21.88.88,0,0,0,.13-.74,12.75,12.75,0,0,1-.08-2.76,32.43,32.43,0,0,1,.45-3.39c.73,0,1.47.07,2.23.14s1.54.15,2.34.28a20.79,20.79,0,0,0-.24,3.7,3.26,3.26,0,0,0,.61,2.17,2.41,2.41,0,0,0,.77.58,2.1,2.1,0,0,0,.8.23.71.71,0,0,0,.59-.21.91.91,0,0,0,.13-.75,13.9,13.9,0,0,1,0-3.53,39,39,0,0,1,.76-4.43c.35-1.55.77-3.13,1.25-4.73s1-3.07,1.52-4.42A.78.78,0,0,0,75.29,110.34Z"></path><path class="cls-1" d="M139.56,120.11a.7.7,0,0,0-.53,0,1.09,1.09,0,0,0-.49.41c-.07.13-.2.37-.37.73s-.38.79-.63,1.32-.53,1.05-.83,1.61-.61,1.1-.93,1.62a6.92,6.92,0,0,1-.59.83,8.82,8.82,0,0,1-.76.86,3.07,3.07,0,0,0,0-1.85,5.28,5.28,0,0,0-1.37-2.15,7.51,7.51,0,0,0-.79-.69,2.6,2.6,0,0,1-.56-.54.56.56,0,0,1-.07-.47.67.67,0,0,1,.28-.34,1.09,1.09,0,0,1,.5-.16,1.73,1.73,0,0,1,.6,0,.43.43,0,0,0,.55-.24,1.44,1.44,0,0,0,.15-.84,2,2,0,0,0-.42-1,1.68,1.68,0,0,0-1.11-.58,2.87,2.87,0,0,0-1.79.36l-.18.11-.1.06a2.89,2.89,0,0,0-1.2,1.55c-.6,1-1.24,2.16-2,3.16.18-.87.35-1.75.52-2.63a1.14,1.14,0,0,0-.24-1,1.79,1.79,0,0,0-.88-.54,1.9,1.9,0,0,0-1.08.08,1.39,1.39,0,0,0-.83.86,1.86,1.86,0,0,0-.79-1,3.29,3.29,0,0,0-1.24-.47,3.6,3.6,0,0,0-1.31,0,2.06,2.06,0,0,0-1.07.51,5.27,5.27,0,0,0-.88,1,9.08,9.08,0,0,0-.69,1.31,1.7,1.7,0,0,0-.09.24,4.56,4.56,0,0,1-1.42,1.24,4.76,4.76,0,0,1-2,.55V123a5.77,5.77,0,0,0-.42-2,2.64,2.64,0,0,0-.84-1.14,1.79,1.79,0,0,0-1.06-.39,1.91,1.91,0,0,0-1,.24,1.81,1.81,0,0,0-1.37-.58,2.42,2.42,0,0,0-.88.17,5,5,0,0,0-1.24,1.35,8.64,8.64,0,0,0-1,2c-.06.15-.11.31-.16.47-.32.61-.66,1.25-1,1.9a17,17,0,0,1-1.1,1.78,5.32,5.32,0,0,1-1,1.14c-.33.25-.6.26-.82,0a2.06,2.06,0,0,1-.51-1.56,14.72,14.72,0,0,1,.19-2.39c.13-.86.31-1.7.51-2.53s.35-1.47.48-2a4.89,4.89,0,0,0,2.11-.6,7.52,7.52,0,0,0,1.84-1.43,7.63,7.63,0,0,0,1.32-1.92,6.81,6.81,0,0,0,.61-2.11,3.78,3.78,0,0,0-.26-1.94,3,3,0,0,0-1.39-1.47,3.79,3.79,0,0,0-4.56.79,5.67,5.67,0,0,0-.84,1.37,17,17,0,0,0-.73,1.83c-.23.68-.43,1.38-.6,2.11s-.32,1.42-.45,2.06a5.31,5.31,0,0,1-1.46-.28c-.6-.19-1.27-.44-2-.75s-1.56-.66-2.45-1S93,115.39,92.06,115c0-.17.09-.33.13-.47a3.1,3.1,0,0,1,.13-.4c.12-.42.22-.78.28-1.1a5.07,5.07,0,0,0,.09-.54,1.55,1.55,0,0,0-.39-1.06,1.61,1.61,0,0,0-.91-.52,1.49,1.49,0,0,0-1.07.24,2,2,0,0,0-.8,1.24c0,.2-.13.42-.22.67s-.16.52-.23.79a30.34,30.34,0,0,0-4.83-1.25,8.24,8.24,0,0,0-4.16.24,2.37,2.37,0,0,0-1.48,1.25,4,4,0,0,0-.36,1.81,4.11,4.11,0,0,0,.43,1.7,1.87,1.87,0,0,0,.89,1,.45.45,0,0,0,.43-.08,1,1,0,0,0,.31-.45,3.8,3.8,0,0,1,1.5-1.55,5.77,5.77,0,0,1,2-.63,9.66,9.66,0,0,1,2.28,0,20.06,20.06,0,0,1,2.23.35c-.25.83-.49,1.69-.73,2.58-.18.69-.35,1.35-.51,2-.09.16-.17.33-.27.48s-.25.44-.37.64a4.56,4.56,0,0,1-1.7,1.65,4.69,4.69,0,0,1-2,.56V123a6,6,0,0,0-.41-2,2.81,2.81,0,0,0-.84-1.14,1.83,1.83,0,0,0-1.08-.39,2,2,0,0,0-1,.24,1.77,1.77,0,0,0-1.36-.58,2.63,2.63,0,0,0-.88.16,5.1,5.1,0,0,0-1.23,1.35,9.12,9.12,0,0,0-1,2,11.19,11.19,0,0,0-.54,2.27,6.1,6.1,0,0,0,.09,2.17,3.6,3.6,0,0,0,.94,1.72,3.14,3.14,0,0,0,2,.86,4.35,4.35,0,0,0,2.06-.17,4.1,4.1,0,0,0,1.54-1,5.21,5.21,0,0,0,1-1.48,7.57,7.57,0,0,0,.58-1.78,5.14,5.14,0,0,0,3.73-1.18l.14-.12c0,.14,0,.28,0,.42a7,7,0,0,0,.12,2.46,4.54,4.54,0,0,0,.36.82,2.31,2.31,0,0,0,.53.67,3.4,3.4,0,0,0,2.7.9,2.88,2.88,0,0,0,1.52-.86,15.52,15.52,0,0,0,1.66-1.87,4.57,4.57,0,0,0,.3,1.14,2.74,2.74,0,0,0,.61.92,2.53,2.53,0,0,0,1,.56,3.25,3.25,0,0,0,1.32.11,3,3,0,0,0,1.48-.82,15.24,15.24,0,0,0,1.66-1.84,3.18,3.18,0,0,0,1.29,2,3.08,3.08,0,0,0,2.34.62,3,3,0,0,0,1.66-1,16.57,16.57,0,0,0,1.61-1.84,5.65,5.65,0,0,0,.11.7,3.63,3.63,0,0,0,1,1.72,3.06,3.06,0,0,0,2,.86,4.49,4.49,0,0,0,2.06-.16,3.9,3.9,0,0,0,1.53-1,5.05,5.05,0,0,0,1-1.48,7.3,7.3,0,0,0,.59-1.78,5.26,5.26,0,0,0,1.72-.14,4.65,4.65,0,0,0,1.18-.48.16.16,0,0,1,0,.1,5.41,5.41,0,0,0-.1,1.7A3.76,3.76,0,0,0,118,128a2.65,2.65,0,0,0,1.07,1,2.85,2.85,0,0,0,1.7.26,2.7,2.7,0,0,0,1.22-.63,11,11,0,0,0,1.4-1.42c-.05.35-.13.83-.24,1.45s-.25,1.32-.4,2.06-.32,1.51-.5,2.27a16.23,16.23,0,0,1-.64,2,7,7,0,0,1-.78,1.52,1.07,1.07,0,0,1-.93.56c-.72,0-1.12-.44-1.19-1.25a5.18,5.18,0,0,1,.75-2.86.89.89,0,0,0,0-.94.85.85,0,0,0-.84-.41,25.46,25.46,0,0,0-3.13.49c-1.19.26-2.45.52-3.76.77s-2.63.46-4,.64a18.84,18.84,0,0,1-3.68.14,7.78,7.78,0,0,1-3-.73,3.4,3.4,0,0,1-1.81-2,1.56,1.56,0,0,0-.3-.48.38.38,0,0,0-.42-.12,1.81,1.81,0,0,0-1,.88A4.53,4.53,0,0,0,97,133a3.83,3.83,0,0,0,.16,1.84,2.46,2.46,0,0,0,1.38,1.38,7.2,7.2,0,0,0,2.85.62,19.71,19.71,0,0,0,3.52-.22,34.32,34.32,0,0,0,3.78-.81c1.29-.35,2.52-.7,3.71-1s2.29-.69,3.29-1,1.85-.56,2.53-.71a8.46,8.46,0,0,0-.6,2.63,4.22,4.22,0,0,0,.32,1.89,2.62,2.62,0,0,0,1,1.16,2.82,2.82,0,0,0,1.35.45,3.17,3.17,0,0,0,1.46-.24,3.52,3.52,0,0,0,1.29-.94,6.29,6.29,0,0,0,1.1-1.89,20,20,0,0,0,.81-2.52q.33-1.35.6-2.7c.17-.89.34-1.69.49-2.39s.32-1.58.49-2.37c.93-1,1.89-2,2.63-2.76a3.15,3.15,0,0,0,.41.55,6.77,6.77,0,0,0,1,.92,8.67,8.67,0,0,1,1,.86,3.27,3.27,0,0,1,1,1.87c0,.5-.11.83-.39,1a1.06,1.06,0,0,1-1,0,1.83,1.83,0,0,1-.88-1.24c-.07-.22-.18-.34-.33-.34a.86.86,0,0,0-.44.15,1.21,1.21,0,0,0-.33.38.55.55,0,0,0-.1.37,2.42,2.42,0,0,0,.49,1,2.49,2.49,0,0,0,.75.57,2.38,2.38,0,0,0,.9.25,4.51,4.51,0,0,0,1,0,5.29,5.29,0,0,0,2.82-1.23,11.56,11.56,0,0,0,2-2.25,21.59,21.59,0,0,0,1.65-2.5,15.11,15.11,0,0,0,1-2,2,2,0,0,0,.18-1A.6.6,0,0,0,139.56,120.11Zm-35.16-3.39.51-1.77c.16-.58.32-1.1.47-1.58s.29-.89.41-1.22a2.06,2.06,0,0,1,.62-.9,1.28,1.28,0,0,1,.76-.25,1,1,0,0,1,.88.54,2.38,2.38,0,0,1,.23,1.31,6.7,6.7,0,0,1-.38,1.72,7,7,0,0,1-2.26,3.22,3.78,3.78,0,0,1-1.72.77C104.07,118,104.23,117.34,104.4,116.72ZM80.59,127.35a3,3,0,0,1-1.32,1.29c-.65.27-1.13.27-1.43,0a2.16,2.16,0,0,1-.48-1.42,7.75,7.75,0,0,1,.26-2.2,14.12,14.12,0,0,1,.88-2.43,4.43,4.43,0,0,0,.86,1.28,7.92,7.92,0,0,0,.91.71,5.56,5.56,0,0,0,1.15.56A7.23,7.23,0,0,1,80.59,127.35Zm1-3.38a3.36,3.36,0,0,1-1.54-.8,1.86,1.86,0,0,1-.76-1.4,1.25,1.25,0,0,1,.4-1,.88.88,0,0,1,.94-.14c.36.14.62.54.77,1.22a6.07,6.07,0,0,1,.19,1A9.91,9.91,0,0,1,81.57,124Zm17.78,0h0a11.44,11.44,0,0,1-.84,2,8.18,8.18,0,0,1-1.06,1.53c-.38.42-.72.58-1,.51s-.42-.34-.45-.79a6.84,6.84,0,0,1,.17-1.63,13.06,13.06,0,0,1,.6-1.93,11.66,11.66,0,0,1,.85-1.74,2.92,2.92,0,0,1,.63-.77,1,1,0,0,1,.62-.28.61.61,0,0,1,.48.32,2.33,2.33,0,0,1,.28,1A4.33,4.33,0,0,1,99.35,124Zm1-3.87h0c0,.19-.07.39-.12.58a1.91,1.91,0,0,0-.78-1,3.25,3.25,0,0,0-1.25-.46,3.77,3.77,0,0,0-1.34,0,2.24,2.24,0,0,0-1.09.51,4.73,4.73,0,0,0-1.14,1.45,10.57,10.57,0,0,0-.76,1.88c-.33.62-.67,1.27-1,2s-.72,1.2-1.12,1.77A6.14,6.14,0,0,1,90.61,128c-.32.27-.59.28-.82.06a1.55,1.55,0,0,1-.45-.92,5.78,5.78,0,0,1-.06-1.44,15.3,15.3,0,0,1,.26-1.8q.21-1,.48-2c.2-.8.42-1.62.67-2.49s.5-1.66.75-2.41q2.58.72,5,1.48a21.47,21.47,0,0,0,4,1C100.39,119.7,100.35,119.94,100.32,120.13Zm12.45,7.22h0a3.07,3.07,0,0,1-1.33,1.29c-.65.27-1.12.27-1.42,0a2.12,2.12,0,0,1-.49-1.42,7.77,7.77,0,0,1,.28-2.2,15,15,0,0,1,.88-2.43,4.64,4.64,0,0,0,.86,1.28,9,9,0,0,0,.92.71,5.48,5.48,0,0,0,1.14.56A7,7,0,0,1,112.77,127.35Zm1-3.38h0a3.32,3.32,0,0,1-1.53-.8,1.85,1.85,0,0,1-.77-1.4,1.29,1.29,0,0,1,.41-1,.86.86,0,0,1,.93-.14c.37.14.63.54.78,1.22a6.06,6.06,0,0,1,.18,1A7.92,7.92,0,0,1,113.76,124Zm9.86,0h0a10.36,10.36,0,0,1-.82,1.94,8.49,8.49,0,0,1-1.07,1.54c-.37.41-.71.57-1,.5s-.42-.34-.45-.8a5.76,5.76,0,0,1,.17-1.61,14.29,14.29,0,0,1,.58-1.93,8.52,8.52,0,0,1,.83-1.72c.42-.68.84-1,1.25-1.06s.66.43.77,1.37A4.83,4.83,0,0,1,123.62,124Z"></path><path class="cls-1" d="M78.36,98.78a1.53,1.53,0,0,0,.92-.27,2.19,2.19,0,0,0,.81-.92A3.37,3.37,0,0,0,80.52,96a2,2,0,0,0-.33-1.14,1.29,1.29,0,0,0-1.75-.35,2.15,2.15,0,0,0-.82,1,4.55,4.55,0,0,0-.34,1.93,1.45,1.45,0,0,0,.32,1A1.1,1.1,0,0,0,78.36,98.78Z"></path><path class="cls-1" d="M105.11,95.31a1.54,1.54,0,0,0,.53.26.51.51,0,0,0,.43-.06.66.66,0,0,0,.21-.51,6.51,6.51,0,0,1,.34-1.8,14.75,14.75,0,0,1,.69-1.7,1.17,1.17,0,0,0,0-1.16,1.47,1.47,0,0,0-1.73-.74,1,1,0,0,0-.71.66,10.9,10.9,0,0,0-.66,2.76,2.49,2.49,0,0,0,.31,1.79A2.84,2.84,0,0,0,105.11,95.31Z"></path><path class="cls-1" d="M109.6,102.33a7.43,7.43,0,0,0,1,.82,6.73,6.73,0,0,1,.91.77,3,3,0,0,1,1,1.69.92.92,0,0,1-.33.91,1.1,1.1,0,0,1-1,0,1.64,1.64,0,0,1-.92-1,.6.6,0,0,0-.34-.36.44.44,0,0,0-.35.07.91.91,0,0,0-.25.3.59.59,0,0,0-.06.37,2.6,2.6,0,0,0,.47.94,1.75,1.75,0,0,0,.71.52,2.49,2.49,0,0,0,.86.18,3.75,3.75,0,0,0,.88-.08,2.23,2.23,0,0,0,1.58-1,3,3,0,0,0,.37-.82,3.17,3.17,0,0,0,.15-.86,3,3,0,0,0-.3-1.48,3.75,3.75,0,0,0-.78-1c-.31-.28-.62-.53-.92-.77a2.78,2.78,0,0,1-.71-.74.52.52,0,0,1,.06-.71l.09-.06a1.23,1.23,0,0,1,1-.14.4.4,0,0,0,.5-.24,1.17,1.17,0,0,0,.11-.76,1.83,1.83,0,0,0-.42-.86,1.73,1.73,0,0,0-1.06-.54,2.62,2.62,0,0,0-1.89.55,2.67,2.67,0,0,0-1.1,1.62,2.91,2.91,0,0,0,0,1.55A3,3,0,0,0,109.6,102.33Z"></path><path class="cls-1" d="M104.67,99.11a.72.72,0,0,0-.5,0,.74.74,0,0,0-.45.38,15.43,15.43,0,0,0-.83,1.62,20.33,20.33,0,0,1-2.45,4.16,6.07,6.07,0,0,1-1.67,1.52,2.85,2.85,0,0,1-1.08.41A.88.88,0,0,1,97,107a1.27,1.27,0,0,1-.4-.63,3.11,3.11,0,0,1-.15-1,3,3,0,0,0,1.89-.64,5.19,5.19,0,0,0,1.3-1.58,5.48,5.48,0,0,0,.62-1.92,3.22,3.22,0,0,0-.17-1.68,1.84,1.84,0,0,0-.58-.69,3,3,0,0,0-.86-.42,3.06,3.06,0,0,0-1-.13,3.39,3.39,0,0,0-1,.17,2.9,2.9,0,0,0-1.29.92.65.65,0,0,0-.15.18,2.73,2.73,0,0,1-.21.3A8,8,0,0,0,94,102.4c0,.06,0,.13,0,.2-.2.45-.43.9-.68,1.35a12.06,12.06,0,0,1-.94,1.49c-.53.68-1,1.06-1.4,1.08a1.18,1.18,0,0,1-1-.42,3.49,3.49,0,0,1-.68-1.24,13.56,13.56,0,0,1-.37-1.39c.17-.1.38-.25.65-.45a7.83,7.83,0,0,0,.81-.7,5.88,5.88,0,0,0,.72-.85,2,2,0,0,0,.37-.92,2,2,0,0,0-.1-.73,1.93,1.93,0,0,0-.43-.66,1.43,1.43,0,0,0-.7-.39,1.34,1.34,0,0,0-.9.11,3.1,3.1,0,0,0-1.1.9,11.61,11.61,0,0,0-1,1.54,12,12,0,0,0-.85,1.86,9.43,9.43,0,0,0-.45,1.87c.08-.79.2-1.58.32-2.37s.26-1.58.43-2.36c.31-.45.63-.95,1-1.47s.67-1.08,1-1.63.65-1.09,1-1.6.56-1,.78-1.48a4,4,0,0,0,.55-2.62,2.12,2.12,0,0,0-1-1.45,2.47,2.47,0,0,0-1.75-.17,3.2,3.2,0,0,0-1.82,1.18,5.86,5.86,0,0,0-1,2,23.26,23.26,0,0,0-.76,2.68c-.22,1-.39,1.85-.52,2.72s-.25,1.55-.32,2a.2.2,0,0,1,0,.1c0,.11-.11.22-.16.36l-.72,1.54c-.26.59-.57,1.19-.9,1.84a15.44,15.44,0,0,1-1,1.67,4.59,4.59,0,0,1-.92,1.09c-.29.24-.54.26-.76.06a2.4,2.4,0,0,1-.5-1.75,8.54,8.54,0,0,1,.07-1.34c.08-.46.15-.88.21-1.27s.14-.76.22-1.09a3.85,3.85,0,0,0,.09-.76,1.31,1.31,0,0,0-.43-1,1.48,1.48,0,0,0-.89-.37,1.66,1.66,0,0,0-.93.18,1,1,0,0,0-.51.51l-.06.09c-.07.12-.2.41-.42.87s-.43,1-.7,1.55-.58,1.17-.9,1.8-.63,1.14-1,1.68a4.64,4.64,0,0,1-.87,1h0c-2.83.44-.66-12.17.47-15.89.16-.71,0-1-.47-1.29-2-.81-4.88,6.45-6,9.6,0,.09,0,.19-.08.27a.16.16,0,0,1-.11.13c-.11,0-.08-.07-.08-.15A64.66,64.66,0,0,1,68,90.57a1.09,1.09,0,0,0-2-.89,54.53,54.53,0,0,0-3.9,8.25c-.24.64-.46,1.3-.71,1.94-.76,2.15.53-5.67,1-7.9a2.46,2.46,0,0,0,.09-.44c.15-1.53-2.34-1.8-2.53,0,0,0,0,.08,0,.2l-.08.14a3.89,3.89,0,0,1-.71,1,3.76,3.76,0,0,1-1.1.79,3.17,3.17,0,0,1-1.58.27,2.38,2.38,0,0,1-1.3-.35,1.33,1.33,0,0,1-.63-.9c0-.2-.1-.3-.2-.3s-.2.07-.31.22a2,2,0,0,0-.27.6,1.77,1.77,0,0,0-.05.76,1.9,1.9,0,0,0,.48,1,2,2,0,0,0,1.26.6,4,4,0,0,0,2.41-.45,4.76,4.76,0,0,0,1.8-1.65c-.27,1.8-.65,4.65-1,8-.45,4.7-.48,4.23.3,5.08a1.38,1.38,0,0,0,1.32.37c.26-.06.41-.25.46-.62,0-.2,0-.41,0-.6.2-3.43,3.38-9.5,3.61-10,.08-.15.17-.32.26-.46s0,0,.06,0a.15.15,0,0,1,.06.09c-.29,2.49-2.08,9.74.32,11,.62.36,1.62.25,1.42-.6a28.43,28.43,0,0,1,3.22-10.68c0-.1.14-.13.12.08s-3.95,14,2.06,13.57a1.3,1.3,0,0,0,.58-.2.87.87,0,0,0,.27-.14,6,6,0,0,0,1.43-1.38c.5-.63,1-1.29,1.41-2l.26-.41A8.59,8.59,0,0,0,76,106a2.4,2.4,0,0,0,.89,1.57,3.17,3.17,0,0,0,2.56.75,2.81,2.81,0,0,0,1.5-1,15.61,15.61,0,0,0,1.66-2.08c.22-.34.44-.67.64-1V105a7.64,7.64,0,0,0,.25,1.78,2,2,0,0,0,.64,1.09,1.4,1.4,0,0,0,1.26.3,1.06,1.06,0,0,0,.8-.85c.08-.44.18-.92.3-1.45s.24-1,.35-1.34a6.53,6.53,0,0,0,1,2.64,2.48,2.48,0,0,0,1.52,1.08,2.67,2.67,0,0,0,1.86-.43,7,7,0,0,0,2-1.93c.17-.21.33-.42.49-.65a3,3,0,0,0,.76,1.76,4.07,4.07,0,0,0,1.55.92,3.41,3.41,0,0,0,1.84.18,5,5,0,0,0,2.19-1.11,12.42,12.42,0,0,0,1.91-2.06,23.19,23.19,0,0,0,1.56-2.38c.46-.81.84-1.53,1.15-2.13a1.49,1.49,0,0,0,.22-.9A.62.62,0,0,0,104.67,99.11Zm-7.65,3a9.82,9.82,0,0,1,1-2.05c.24-.4.49-.6.74-.63s.35.25.3.78a6.49,6.49,0,0,1-.29,1.29,9.05,9.05,0,0,1-.58,1.46,5.36,5.36,0,0,1-.78,1.16,1.06,1.06,0,0,1-.9.43A9.6,9.6,0,0,1,97,102.15Zm-9.38-6.53c.13-.62.26-1.2.39-1.75s.26-1,.41-1.45a2.76,2.76,0,0,1,.4-.85c.3-.3.53-.4.7-.27a.76.76,0,0,1,.32.56,2.62,2.62,0,0,1-.27,1.19c-.21.51-.47,1-.76,1.6s-.59,1.07-.91,1.57l-.68,1.15C87.35,96.82,87.5,96.24,87.64,95.62Zm0,7.23c.73-1.64,1.44-2.57,2.12-2.78.44-.15.66-.1.67.14a1.57,1.57,0,0,1-.39.9,6.25,6.25,0,0,1-1,1.07A2.92,2.92,0,0,1,87.67,102.85Z"></path><path class="cls-1" d="M51.07,105.86a19.23,19.23,0,0,0-20.19-15.7c-.73,0-1.46.14-2.19.26h0a19.22,19.22,0,0,0,4.8,38.08h0a18,18,0,0,0,2.19-.28h0A19.19,19.19,0,0,0,51.07,105.86ZM35.48,127.47a16,16,0,0,1-2.07.26A18.44,18.44,0,0,1,28.82,91.2h0a18.72,18.72,0,0,1,2.11-.27h0a18.45,18.45,0,0,1,4.54,36.55Z"></path><path class="cls-1" d="M51.85,105.72a20,20,0,0,0-21-16.35,19.46,19.46,0,0,0-2.28.29,20,20,0,1,0,23.3,16.06Zm-18.44,22A18.44,18.44,0,0,1,28.82,91.2h0a18.72,18.72,0,0,1,2.11-.27h0a18.45,18.45,0,0,1,4.54,36.55A16,16,0,0,1,33.41,127.73Z"></path><path class="cls-1" d="M46.28,99.42l-.08,0L46,99.5a10.93,10.93,0,0,0-4.33,2.27,11.33,11.33,0,0,0-2.6,3.24s0,0,0,0l-.2-.21a5.81,5.81,0,0,0-2-1.31,3.28,3.28,0,0,0-1.23-.24,4.48,4.48,0,0,0-3.3,1.78,5.74,5.74,0,0,0-.58.79l0,0-.29-.32a4.33,4.33,0,0,0-3-1.52,4.82,4.82,0,0,0-3.54,1.79,7.94,7.94,0,0,0-1.51,2.93,5.37,5.37,0,0,0-1.92-.1A5.31,5.31,0,0,0,17,111.35a6.47,6.47,0,0,0-.71,2.23,8.56,8.56,0,0,0,0,1.52l.05.37.12,1.13h0a1.39,1.39,0,0,0,.35-.09,1.5,1.5,0,0,0,1-1.14,1.27,1.27,0,0,0,0-.34v-.13a5.18,5.18,0,0,1,.71-3.12,3.87,3.87,0,0,1,3.05-1.68,4.51,4.51,0,0,1,1.42.07,2.23,2.23,0,0,0,0,.23.6.6,0,0,0,0,.12,17.66,17.66,0,0,0-.15,1.76,9.2,9.2,0,0,0,0,1c.25,2.6.75,4.22,1.56,4.87l.05,0a1.5,1.5,0,0,0,1.11.35l.2,0a1.57,1.57,0,0,0,.86-.56,3.59,3.59,0,0,0,.64-1.79,11.47,11.47,0,0,0,0-2A7.08,7.08,0,0,0,25.57,110h0c-.13-.13-.26-.26-.4-.38l-.27-.2-.18-.13A6.71,6.71,0,0,1,26,106.74l0,0a3.63,3.63,0,0,1,1.34-1,2,2,0,0,1,.94-.19,2.92,2.92,0,0,1,2,1.09v0c.1.1.19.21.29.33l.31.41a14.09,14.09,0,0,0-.71,5.23,18.46,18.46,0,0,0,.45,2.76,5.43,5.43,0,0,0,.67,1.59,2.27,2.27,0,0,0,.55.59h0a1.52,1.52,0,0,0,1,.29H33c.53-.06,1.19-.41,1.51-1.73a5.26,5.26,0,0,0,.12-.65,4,4,0,0,0,0-.61,12.65,12.65,0,0,0-1.95-7.51l-.07-.11a4.91,4.91,0,0,1,.79-1.22,2.65,2.65,0,0,1,2.83-1.12h0l0,0a1.92,1.92,0,0,1,.41.19,4.73,4.73,0,0,1,1,.71l.3.3,0,.06c.12.13.22.26.33.39-.06.17-.11.35-.16.53a14.23,14.23,0,0,0-.5,5.58c.05.53.34,3,1.43,3.91l.12.1h0a1.58,1.58,0,0,0,1.09.34,1.51,1.51,0,0,0,1.13-.72,3.7,3.7,0,0,0,.53-1.38,14,14,0,0,0-1.93-8.57,9.45,9.45,0,0,1,5.34-5.08,1.44,1.44,0,0,0,.93-1.34A1.31,1.31,0,0,0,46.28,99.42ZM24.81,111.48a.86.86,0,0,1,.1.16,6.54,6.54,0,0,1,.79,2.69,9.62,9.62,0,0,1,0,1.42c0,.18,0,.33,0,.46a2.18,2.18,0,0,1-.23.75c0,.06-.06.09-.07.09s-.19-.09-.41-.62a11,11,0,0,1-.65-3.23v0a11.81,11.81,0,0,1,0-1.88c0-.1,0-.21,0-.32A3.06,3.06,0,0,1,24.81,111.48Zm8,4.8c-.1,0-.38-.34-.65-1.33a16.47,16.47,0,0,1-.4-2.5,9.39,9.39,0,0,1,0-1.5A11.53,11.53,0,0,1,32,109.2c.12.26.25.52.35.8a10.92,10.92,0,0,1,.8,4.77h0a4.2,4.2,0,0,1-.07.62,2.33,2.33,0,0,1-.23.79A.41.41,0,0,1,32.8,116.28Zm7.42-.82-.07-.06a6,6,0,0,1-.89-2.9v0a13.13,13.13,0,0,1,0-2.66,11.94,11.94,0,0,1,.22-1.44,9.4,9.4,0,0,1,.34.88,9.25,9.25,0,0,1,.31,1.06h0a9.92,9.92,0,0,1,.37,4.45,1.66,1.66,0,0,1-.24.64Z"></path><path class="cls-1" d="M257.83,105.67l-.71-1.23L253,97.28h-9.71l-4.12,7.12-.71,1.23,0,.06,4.17,7.2.68,1.19H253l0,0,.67-1.16,4.16-7.2ZM244,98.51h8.29l4.14,7.16-4.16,7.19H244l-4.18-7.23Z"></path><path class="cls-1" d="M259.22,105.63l-.71-1.23-4.82-8.35H242.56l-4.82,8.35-.7,1.23,0,.06.67,1.17,4.17,7.22,0,0,.69,1.2h11.14l0,0,.67-1.17,0-.06,4.16-7.19.67-1.17Zm-19.36,0L244,98.51h8.29l4.14,7.16v0l-4.15,7.17H244l-4.15-7.17Z"></path><path class="cls-1" d="M257.64,122.19l-.51-.88-1.73-3-.66-1.14-1.07-1.86-.69-1.2h-9.71l-.69,1.2-1.07,1.86-.67,1.15-1.72,3-.51.88-.2.34.2.34.46.8.05.09,1.74,3,.59,1,1.82,3.15H253l1.82-3.15.63-1.09,1.69-2.94.05-.09.47-.8.19-.34Zm-5.37-6.84,1,1.83h-10.4l1.06-1.83Zm2.47,4.29,1,1.67H240.53l1-1.67Zm-2.47,10.07H244l-1.11-1.92h10.51Zm2.53-4.37H241.45l-.91-1.58h15.17Z"></path><path class="cls-1" d="M259.21,122.45l-4.82-8.34-.7-1.22H242.56l-.7,1.22-4.81,8.34-.05.08.66,1.14,4.9,8.5h11.13l4.9-8.5.66-1.14Zm-3.5,1.31-.91,1.58-1.42,2.45-1.11,1.92H244l-1.11-1.92-1.42-2.45-.91-1.58-.71-1.23.7-1.22,1-1.67,1.42-2.46,1.06-1.83h8.29l1,1.83,1.42,2.46,1,1.67.71,1.22Z"></path><path class="cls-1" d="M267.56,105.63h-9.71l0,0-4.17,7.22L253,114v0l.72,1.23,1.09,1.9.59,1,1.79,3.1.45.77.21.37h9.71l4.85-8.42Zm-.71,15.59h-8.29l-4.14-7.17,4.16-7.19h8.27L271,114Z"></path><path class="cls-1" d="M268.28,104.4H257.14l0,0-.71,1.23-4.16,7.19v0l-.66,1.14,0,.06v0l.69,1.2,1.07,1.86,1.42,2.46,1,1.67,1.36,2.36h11.14l5.56-9.64Zm-9.72,16.82-4.14-7.17v0l4.15-7.17h8.29L271,114l-4.15,7.19Z"></path><path class="cls-1" d="M242.63,112.89l-4.19-7.26h-9.72l-4.85,8.4,4.85,8.42h9.71l.18-.3.48-.84,1.75-3,.63-1.09,1.08-1.87.71-1.23,0,0Zm-13.18,8.33L225.29,114l4.16-7.17h8.22l4.17,7.22-4.12,7.14Z"></path><path class="cls-1" d="M244.05,112.89v0l-4.18-7.23-.71-1.23H228L222.45,114l5.57,9.64h11.12l1.37-2.36,1-1.67,1.41-2.46,1.08-1.86.69-1.2v0l0-.06Zm-6.33-6,4.15,7.17,0,0-4.12,7.14h-8.27L225.29,114l4.16-7.17Z"></path><rect class="cls-1" x="240.84" y="117.18" width="14.56" height="2.46"></rect><rect class="cls-1" x="240.86" y="125.34" width="14.57" height="2.45"></rect><rect class="cls-1" x="238.61" y="121.31" width="19.04" height="2.45"></rect><path class="cls-1" d="M281.47,97.28H288v8.77h8.33V97.28h6.5v23.45h-6.49v-8.91H288v8.91h-6.51Z"></path><path class="cls-1" d="M310.45,97.28H317v23.45h-6.53Z"></path><path class="cls-1" d="M322.74,97.28H330l5.33,14.84,5.33-14.84h7.11l-9.5,23.61h-6Z"></path><path class="cls-1" d="M353.42,97.28h18.86v5.52H359.86v3.56h11.26v5.12H359.86v3.72h12.59v5.53h-19Z"></path><path class="cls-1" d="M285.34,130.86v-3.23L284,129.74h0l-1.38-2.09v3.21h-1.07v-5h1.17l1.3,2.09,1.3-2.09h1.18v5Z"></path><path class="cls-1" d="M292.42,125.88h-1l-2.12,5h1.11l.45-1.11H293l.45,1.11h1.14Zm-1.18,2.91.66-1.6.67,1.6Z"></path><path class="cls-1" d="M300.89,130.86l-2.39-3.15v3.15h-1.08v-5h1l2.32,3.05v-3.05h1.07v5Z"></path><path class="cls-1" d="M309.2,129.68a2,2,0,0,1-.43.7,1.81,1.81,0,0,1-.69.42,3,3,0,0,1-.89.14,2,2,0,0,1-2.14-2.2v-2.83h1.08v2.8a1.31,1.31,0,0,0,.29.91,1,1,0,0,0,.78.31,1.05,1.05,0,0,0,.79-.29,1.31,1.31,0,0,0,.28-.9v-2.83h1.09v2.79A2.92,2.92,0,0,1,309.2,129.68Z"></path><path class="cls-1" d="M313.67,126.89V128H316v1h-2.36v1.92h-1.08v-5h3.76v1Z"></path><path class="cls-1" d="M322,125.88h-1l-2.13,5H320l.45-1.11h2.09l.45,1.11h1.13Zm-1.18,2.91.67-1.6.64,1.6Z"></path><path class="cls-1" d="M331,130.44a2.27,2.27,0,0,1-1,.46,3.49,3.49,0,0,1-.65.06,2.66,2.66,0,0,1-1-.2,2.47,2.47,0,0,1-1.52-2.33v0a2.47,2.47,0,0,1,.19-1,2.42,2.42,0,0,1,.53-.81,2.24,2.24,0,0,1,.81-.55,2.68,2.68,0,0,1,1-.21,3.39,3.39,0,0,1,.64.06,2.4,2.4,0,0,1,.52.16,2,2,0,0,1,.43.24,2.11,2.11,0,0,1,.36.31l-.69.8a2,2,0,0,0-.59-.41,1.36,1.36,0,0,0-.66-.15,1.29,1.29,0,0,0-.58.12,1.22,1.22,0,0,0-.45.33,1.54,1.54,0,0,0-.3.49,1.73,1.73,0,0,0-.11.6h0a1.77,1.77,0,0,0,.11.6,1.72,1.72,0,0,0,.29.49,1.49,1.49,0,0,0,.45.34,1.52,1.52,0,0,0,.59.12,1.56,1.56,0,0,0,.7-.16,2.73,2.73,0,0,0,.58-.43l.69.7A3,3,0,0,1,331,130.44Z"></path><path class="cls-1" d="M336.61,126.92v3.94h-1.08v-3.94H334v-1h4.1v1Z"></path><path class="cls-1" d="M345.15,129.68a2,2,0,0,1-.43.7,1.81,1.81,0,0,1-.69.42,3,3,0,0,1-.89.14,2.16,2.16,0,0,1-1.57-.56,2.2,2.2,0,0,1-.58-1.64v-2.83h1.09v2.8a1.29,1.29,0,0,0,.29.91,1,1,0,0,0,.78.31,1,1,0,0,0,.78-.29,1.27,1.27,0,0,0,.29-.9v-2.83h1.08v2.79A2.68,2.68,0,0,1,345.15,129.68Z"></path><path class="cls-1" d="M351.59,129.08a1.71,1.71,0,0,0,.77-.56,1.56,1.56,0,0,0,.29-.91v-.07a1.56,1.56,0,0,0-.49-1.2,2,2,0,0,0-1.38-.43h-2.25v5h1.09v-1.59h.86l1.06,1.59,1.26,0Zm0-1.47a.67.67,0,0,1-.22.51.87.87,0,0,1-.62.19h-1.1v-1.42h1.08a1,1,0,0,1,.63.18.64.64,0,0,1,.23.53Z"></path><path class="cls-1" d="M355.81,130.86v-5h1.09v5Z"></path><path class="cls-1" d="M363.72,130.86l-2.39-3.15v3.15h-1.08v-5h1l2.34,3.05v-3.05h1.07v5Z"></path><path class="cls-1" d="M371.54,130.71a2.92,2.92,0,0,1-1.2.23,2.76,2.76,0,0,1-1.06-.19,2.57,2.57,0,0,1-.82-.53,2.38,2.38,0,0,1-.53-.8,2.57,2.57,0,0,1-.19-1v0a2.47,2.47,0,0,1,.19-1,2.61,2.61,0,0,1,.54-.81,2.52,2.52,0,0,1,.82-.55,2.47,2.47,0,0,1,1-.2,4,4,0,0,1,.6,0,2.72,2.72,0,0,1,.51.13,2.58,2.58,0,0,1,.44.22,2.19,2.19,0,0,1,.39.29l-.68.82-.28-.21L371,127a2,2,0,0,0-.72-.13,1.3,1.3,0,0,0-.55.12,1.49,1.49,0,0,0-.45.34,1.57,1.57,0,0,0-.31.49,1.71,1.71,0,0,0-.11.59h0a1.9,1.9,0,0,0,.11.63,1.38,1.38,0,0,0,.32.5,1.29,1.29,0,0,0,.47.33,1.57,1.57,0,0,0,.6.12,1.71,1.71,0,0,0,1-.3v-.71h-1.1V128h2.15v2.15A3.51,3.51,0,0,1,371.54,130.71Z"></path><path class="cls-1" d="M973.78,123H961.52l-2.28,5.62h-8.37l12.8-29h8.08l12.84,29h-8.53Zm-2.4-6-3.73-9.28-3.73,9.28Z"></path><path class="cls-1" d="M990.27,128.32a16.56,16.56,0,0,1-5.39-2.32l2.69-6a17.33,17.33,0,0,0,4.5,2.07,17,17,0,0,0,5,.79c3.15,0,4.73-.79,4.72-2.36a1.94,1.94,0,0,0-1.34-1.84,25,25,0,0,0-4.33-1.27,39.88,39.88,0,0,1-5.47-1.5,9.26,9.26,0,0,1-3.77-2.58,7,7,0,0,1-1.58-4.81,8.35,8.35,0,0,1,1.46-4.79,9.72,9.72,0,0,1,4.33-3.37,17.74,17.74,0,0,1,7.06-1.24,24.72,24.72,0,0,1,5.62.64,17.12,17.12,0,0,1,4.88,1.87l-2.53,6.1a16.74,16.74,0,0,0-8-2.25,6.77,6.77,0,0,0-3.56.72,2.18,2.18,0,0,0-1.12,1.88,1.87,1.87,0,0,0,1.32,1.74A24.16,24.16,0,0,0,999,111a40.15,40.15,0,0,1,5.49,1.5,9.31,9.31,0,0,1,3.77,2.57,6.85,6.85,0,0,1,1.6,4.78,8.19,8.19,0,0,1-1.4,4.75,9.9,9.9,0,0,1-4.35,3.38,17.62,17.62,0,0,1-7,1.26A27.18,27.18,0,0,1,990.27,128.32Z"></path><path class="cls-1" d="M1037,122.27v6.34h-23.28v-29h22.74V106h-14.63v4.88h12.89V117h-12.89v5.3Z"></path><path class="cls-1" d="M939.74,118.33a4.9,4.9,0,0,0,1.54.87,5.89,5.89,0,0,0,1.76.33,4.72,4.72,0,0,0,1.79-.27,4.11,4.11,0,0,0,1.5-.93,10.22,10.22,0,0,1-1.64.46,7.51,7.51,0,0,1-1.64.12,11.56,11.56,0,0,1-1.65-.18C940.86,118.61,940.31,118.49,939.74,118.33Z"></path><path class="cls-1" d="M944.17,115.29a10.29,10.29,0,0,1-1.11,0,9.65,9.65,0,0,1-2.2-.31,13.8,13.8,0,0,1-2.16-.75,6.14,6.14,0,0,0,2,1.2,7,7,0,0,0,2.34.47,9.39,9.39,0,0,0,1.19-.08,5.9,5.9,0,0,0,1.16-.33,5.81,5.81,0,0,0,2-1.26,11.37,11.37,0,0,1-2.13.8C944.89,115.16,944.53,115.23,944.17,115.29Z"></path><path class="cls-1" d="M943.38,118.14a.34.34,0,1,0-.34.34h0A.34.34,0,0,0,943.38,118.14Z"></path><path class="cls-1" d="M948.29,110.12l0,0a1.91,1.91,0,0,1,.45-.23l.24-.08h.09a1.53,1.53,0,0,0,.44-.27,1.71,1.71,0,0,0,.57-.78,1.67,1.67,0,0,0,.1-1,1.88,1.88,0,0,0-.47-1,2.23,2.23,0,0,0-1.12-.69,2.93,2.93,0,0,0-1.66,0,4.93,4.93,0,0,1,1.21,2.88A7.59,7.59,0,0,1,948.29,110.12Z"></path><path class="cls-1" d="M941.85,116.47a.34.34,0,1,0-.33.34h0a.33.33,0,0,0,.33-.33Z"></path><path class="cls-1" d="M958.3,99H947.42l-.28.3c-.32.33-.62.66-.95,1a3.3,3.3,0,0,0-.82,3.47,3.81,3.81,0,0,0,1.24,2,2.83,2.83,0,0,1,.25.24,2.94,2.94,0,0,1,4.16.22,3,3,0,0,1,.62,1.08,3.24,3.24,0,0,1,.15,1,3.35,3.35,0,0,1-.2,1,3,3,0,0,1-1.26,1.5,2.67,2.67,0,0,1-.93.37,1.12,1.12,0,0,0-.4.14.84.84,0,0,0-.31.28.94.94,0,0,0,.25,1.32l.16.09a1,1,0,0,0,.82,0,1,1,0,0,0,.53-.66l.15,0a1.15,1.15,0,0,1-.05.58,1.41,1.41,0,0,1-.38.53,1.59,1.59,0,0,1-1.41.31,1.82,1.82,0,0,1-.7-.37c-.11.67-.25,1.35-.4,2a27.67,27.67,0,0,1-2.28,6.47c-.13.25-.27.48-.43.75a12.23,12.23,0,0,0,2.21,2c.05,0,.12.06.15.11a.62.62,0,0,1,.13.33.35.35,0,0,1-.25.19c-.85.14-1.71.29-2.57.38a18.56,18.56,0,0,1-5.66-.38c-.12,0-.3-.14-.3-.21a.51.51,0,0,1,.2-.37,11,11,0,0,0,2.27-2,26.62,26.62,0,0,1-3-8.7l-.09-.55a1.74,1.74,0,0,1-.68.34,1.62,1.62,0,0,1-1.42-.31,1.5,1.5,0,0,1-.37-.53,1.19,1.19,0,0,1-.06-.59l.16,0a1,1,0,0,0,.53.67,1,1,0,0,0,1.33-.46,1.16,1.16,0,0,0,.06-.15,1,1,0,0,0-.45-1.09,1.25,1.25,0,0,0-.41-.14,3.08,3.08,0,0,1-.94-.37,3,3,0,0,1-1.28-1.52,3.12,3.12,0,0,1-.2-1,3.37,3.37,0,0,1,.15-1,3,3,0,0,1,3.09-2.09,3.07,3.07,0,0,1,1.75.75l.13-.13a4.4,4.4,0,0,0,1.39-2.55,3.1,3.1,0,0,0-.87-2.86c-.38-.37-.73-.75-1.1-1.12l-.19-.22H927.78a1.2,1.2,0,0,0-1.22,1.2,1.16,1.16,0,0,0,.1.49l11.84,27.72a1.21,1.21,0,0,0,1.12.75h6.8a1.18,1.18,0,0,0,1.12-.75l11.88-27.72a1.21,1.21,0,0,0-.64-1.59A1.15,1.15,0,0,0,958.3,99Z"></path><path class="cls-1" d="M944.71,117.51l-.68-.42-.84-.5a.32.32,0,0,0-.3,0h0l-.81.49-.62.4-.36-.3c-.12-.11-.34-.3-.52-.44-.38-.29-.72-.57-1.1-.83.27.37.56.73.86,1.08l.44.52.46.5a.29.29,0,0,0,.32,0h0l.82-.45.65-.38.69.38.86.44h0a.24.24,0,0,0,.27,0,22.08,22.08,0,0,0,1.71-1.78A20.07,20.07,0,0,0,944.71,117.51Z"></path><path class="cls-1" d="M937.48,106a2.31,2.31,0,0,0-1.13.7,1.92,1.92,0,0,0-.48,1,1.89,1.89,0,0,0,1.12,2.07h.09l.24.08a1.6,1.6,0,0,1,.45.23v-.15a6.37,6.37,0,0,1,.81-3.24,3.92,3.92,0,0,1,.55-.67A3.08,3.08,0,0,0,937.48,106Z"></path><path class="cls-1" d="M945,116.47a.34.34,0,1,0-.34.34h0A.34.34,0,0,0,945,116.47Z"></path><path class="cls-1" d="M903.19,117.61l-4.88,9.88H895.9L891,117.61V129h-4V110.91h5.46l4.67,10,4.67-9.93h5.43V129h-4Z"></path><path class="cls-1" d="M926.32,116.91c0,2.9-1.14,4.77-3.44,5.63l4.58,6.46h-5l-4-5.78h-2.79V129h-4.05V110.91h6.84q4.21,0,6,1.43A5.57,5.57,0,0,1,926.32,116.91Zm-4.87,2.15a2.74,2.74,0,0,0,.75-2.14,2.31,2.31,0,0,0-.77-2,5,5,0,0,0-2.72-.54h-3v5.36h3a4.34,4.34,0,0,0,2.83-.68Z"></path><path class="cls-1" d="M930.34,128.53a2.31,2.31,0,1,1,3.27,0,2.28,2.28,0,0,1-1.65.7A2.2,2.2,0,0,1,930.34,128.53Z"></path><rect class="cls-1" x="887" y="107.18" width="40.46" height="1.73"></rect><rect class="cls-1" x="887" y="103.11" width="37.59" height="1.73"></rect><rect class="cls-1" x="887" y="99.03" width="34.71" height="1.73"></rect><polygon class="cls-1" points="514.19 123.89 504.48 114.18 514.32 104.33 517.13 107.15 510.1 114.18 517 121.08 514.19 123.89"></polygon><path class="cls-1" d="M521.92,102.71l-2.81,2.81c-1.84-1.83-3.51-3.43-5.05-4.82l-.4-.35c-1.11-1-2.14-1.86-3.11-2.62l-.58-.46a30.65,30.65,0,0,0-3.56-2.38c-4.22-2.37-6-1.47-7-.41-3.24,3.23,3.12,11.79,6.7,15.42l-2.83,2.8a46.37,46.37,0,0,1-5.76-7.33c-4.63-7.47-3.05-11.57-.93-13.7,2.92-2.92,6.89-3,11.81-.26.76.43,1.55.93,2.38,1.5.32.22.65.45,1,.7q1.2.89,2.52,2l.8.67h0C517.07,98,519.33,100.12,521.92,102.71Z"></path><path class="cls-1" d="M541.89,101.15A34.79,34.79,0,0,1,534.14,112l-2.82-2.81c6.36-6.36,9.2-12.74,6.77-15.17-1.85-1.85-5.44-.56-8.86,1.55l-.71.45c-1,.69-2.06,1.43-3,2.18l-.5.41c-.91.74-1.71,1.47-2.36,2.11l-2.8-2.83a49.14,49.14,0,0,1,4-3.4l1-.76c.72-.52,1.5-1.06,2.3-1.56l.06,0c.39-.25.78-.47,1.16-.69,6.74-3.78,10.52-2.26,12.54-.25C542.24,92.52,544.15,95.6,541.89,101.15Z"></path><path class="cls-1" d="M502.06,139.11A7,7,0,0,1,496.9,137c-1.7-1.7-3.27-4.83-1.07-10.06a35.82,35.82,0,0,1,7.83-10.73l2.82,2.81c-6.67,6.67-9.32,12.62-6.77,15.17,3.24,3.24,11.79-3.12,15.42-6.7l2.8,2.84a47.6,47.6,0,0,1-7.33,5.76C507,138.32,504.25,139.11,502.06,139.11Z"></path><polygon class="cls-1" points="523.48 123.89 520.67 121.08 527.7 114.05 520.8 107.15 523.61 104.33 533.33 114.05 523.48 123.89"></polygon><path class="cls-1" d="M536,138.76a13.49,13.49,0,0,1-6.39-1.94c-3.65-2-8-5.59-13.73-11.31l2.81-2.81c5.45,5.44,9.52,8.82,12.83,10.64,4.72,2.58,6.31,1,6.91.4,3.24-3.24-3.12-11.79-6.71-15.41l2.83-2.8a46.93,46.93,0,0,1,5.76,7.33c4.63,7.47,3.05,11.57.93,13.7A7.16,7.16,0,0,1,536,138.76Z"></path><circle class="cls-1" cx="518.9" cy="114.11" r="3.14"></circle><circle class="cls-1" cx="244.59" cy="16.44" r="4.23"></circle><path class="cls-1" d="M265.93,22.42,247.75,4.05a4.44,4.44,0,0,0-6.32,0L223.25,22.42A4.44,4.44,0,0,0,226.41,30h.32A18.47,18.47,0,0,0,236,43.52a25.19,25.19,0,0,0,8.42,3.15h.48l.17,0h0l.18-.06,0,0,.17-.08h0c.48-.28,11.67-7.07,11.67-18.38h0v0a.49.49,0,0,0,0-.12A7.18,7.18,0,0,0,255,23.18a7,7,0,0,0-10.37.55A7.09,7.09,0,0,0,232,28.18,12,12,0,0,0,238,38.52a2.26,2.26,0,0,0,1.19.32,2.33,2.33,0,0,0,1.17-.31l1.84-.69.06,0a3.57,3.57,0,1,0-1.19-3h0l-1.79.68a8.72,8.72,0,0,1-3.93-7.3,3.76,3.76,0,0,1,3.84-3.77A3.84,3.84,0,0,1,243,28.24a1.63,1.63,0,1,0,3.25,0,3.84,3.84,0,0,1,3.84-3.83,3.91,3.91,0,0,1,3.83,3.7c0,8.21-7.56,13.87-9.58,15.24a22.84,22.84,0,0,1-6.75-2.67,15.16,15.16,0,0,1-7.75-12.43v0a.28.28,0,0,0,0-.09.2.2,0,0,0,0-.07.19.19,0,0,0,0-.08.24.24,0,0,0,0-.08.19.19,0,0,0,0-.07l0-.08,0-.06a.2.2,0,0,0,0-.08l0-.06-.05-.08,0,0-.06-.09,0,0a.6.6,0,0,0-.08-.08l0,0-.08-.08,0,0-.09-.06,0,0-.1-.06,0,0-.1,0,0,0-.1,0h0l-.1,0h-.06l-.1,0h-2A1.16,1.16,0,0,1,225.3,26a1.18,1.18,0,0,1,.25-1.31L243.73,6.33a1.2,1.2,0,0,1,1.71,0L263.62,24.7a1.2,1.2,0,0,1-.85,2H261A1.63,1.63,0,1,0,261,30h1.77a4.44,4.44,0,0,0,3.16-7.57ZM244.59,33.69a1.45,1.45,0,1,1-1.45,1.45A1.45,1.45,0,0,1,244.59,33.69Z"></path><path class="cls-1" d="M294.14,27.56a5.86,5.86,0,0,1-1.34-.11.62.62,0,0,1-.39-.33,3.58,3.58,0,0,1-.18-1.08l-.57-12.34a1.38,1.38,0,0,1,.41-1.2,3.06,3.06,0,0,1,1.72-.36c.07,0,.39,0,.39-.49s-.32-.5-.39-.5q-.62,0-.93,0l-1.32,0a5.86,5.86,0,0,1-.66,0l-.43,0a1.2,1.2,0,0,0-1.11.87L284,24.39,278.3,12.73a6,6,0,0,0-.72-1.22,1.08,1.08,0,0,0-.81-.36l-.61,0q-.35,0-.87,0a7.12,7.12,0,0,1-.74,0l-1.08,0c-.15,0-.41.11-.41.5a.43.43,0,0,0,.41.49,2.18,2.18,0,0,1,1.91,1l-.23,12.08a2.93,2.93,0,0,1-.49,1.82,1.67,1.67,0,0,1-1.37.52.51.51,0,0,0,0,1c.47,0,.82,0,1.08,0l1.43,0,1.42,0c.28,0,.66,0,1.18,0,.06,0,.39,0,.39-.5s-.33-.5-.39-.5a1.9,1.9,0,0,1-1.5-.5,2.91,2.91,0,0,1-.42-1.83l.19-9.62,6,12.62,0,0a.67.67,0,0,0,.48.2.53.53,0,0,0,.51-.29l5.43-12.57.44,10.46a2.48,2.48,0,0,1-.07,1,.56.56,0,0,1-.37.33,4.48,4.48,0,0,1-1.23.12c-.07,0-.39,0-.39.5s.32.5.39.5c.53,0,.93,0,1.21,0l1.78,0,1.84,0q.51,0,1.38,0c.15,0,.41-.11.41-.5S294.29,27.56,294.14,27.56Z"></path><path class="cls-1" d="M309.11,23.8h0a.5.5,0,0,0-.39.12.35.35,0,0,0-.12.24,4.46,4.46,0,0,1-1.19,2.33,2.92,2.92,0,0,1-2.12.81h-1.9a3.35,3.35,0,0,1-1.12-.13.6.6,0,0,1-.37-.32,2.25,2.25,0,0,1-.13-.91V20.15h2.69a2.84,2.84,0,0,1,1.79.44,1.83,1.83,0,0,1,.5,1.45c0,.06,0,.38.49.38s.5-.32.5-.39l0-1.35c0-.26,0-.65,0-1.16l0-2.22c0-.07,0-.39-.5-.39s-.49.32-.49.39a1.39,1.39,0,0,1-.47,1.2,3,3,0,0,1-1.74.39h-2.74V13.76c0-.69.15-1,.28-1.08s.46-.27,1.44-.27H305a2.68,2.68,0,0,1,1.93.69,3.14,3.14,0,0,1,.89,2,.44.44,0,0,0,.48.39.43.43,0,0,0,.48-.42l-.05-3.34a.55.55,0,0,0-.58-.58H297.25c-.07,0-.39,0-.39.5s.32.49.39.49a4.56,4.56,0,0,1,1.34.14.58.58,0,0,1,.41.33,2.87,2.87,0,0,1,.13,1.05V26.05a3.06,3.06,0,0,1-.13,1.07.58.58,0,0,1-.4.32,5.36,5.36,0,0,1-1.35.12c-.07,0-.39,0-.39.5s.32.5.39.5h11.32a.77.77,0,0,0,.57-.2.71.71,0,0,0,.19-.54,25.56,25.56,0,0,1,.24-3.54v-.05A.44.44,0,0,0,309.11,23.8Z"></path><path class="cls-1" d="M330,21.3h0c-.93.05-1.83.08-2.66.08s-2,0-3.43-.13h0a.44.44,0,0,0-.38.23.57.57,0,0,0-.09.32.49.49,0,0,0,.5.54,6.73,6.73,0,0,1,1.94.18.74.74,0,0,1,.53.51,6.48,6.48,0,0,1,.16,1.84,3.24,3.24,0,0,1-.63,2.32,3.41,3.41,0,0,1-2.35.62,7.5,7.5,0,0,1-4.22-1.17,7.36,7.36,0,0,1-2.65-3.07,9.78,9.78,0,0,1-.91-4.18,8.27,8.27,0,0,1,.91-3.94,6.31,6.31,0,0,1,2.47-2.57,6.92,6.92,0,0,1,3.51-.9,5.09,5.09,0,0,1,3.48,1.15,6.5,6.5,0,0,1,1.88,3,.45.45,0,0,0,.55.28A.46.46,0,0,0,329,16l-.35-3.26a1.24,1.24,0,0,0-.12-.56.83.83,0,0,0-.38-.3,7.11,7.11,0,0,0-2.14-.77,14,14,0,0,0-2.73-.26A12.7,12.7,0,0,0,318,12a8.91,8.91,0,0,0-3.76,3.13,8.18,8.18,0,0,0-1.38,4.71,8.88,8.88,0,0,0,1.21,4.57,8.69,8.69,0,0,0,3.49,3.3,11.08,11.08,0,0,0,5.32,1.22,28.18,28.18,0,0,0,5.8-.73h0a.83.83,0,0,0,.39-.19.61.61,0,0,0,.15-.45,4.21,4.21,0,0,0-.1-.71,10.19,10.19,0,0,1-.09-1.65,19.32,19.32,0,0,1,.08-2.1c.06-.43.17-.56.21-.59s.21-.12.69-.11a.47.47,0,0,0,.33-.13.52.52,0,0,0,.12-.41A.46.46,0,0,0,330,21.3Z"></path><path class="cls-1" d="M351.22,27.56A1.63,1.63,0,0,1,350,27a11.17,11.17,0,0,1-1.5-2.57l-6.36-13.27a.5.5,0,0,0-.5-.28.53.53,0,0,0-.49.23l0,0-5.66,13.26a12.85,12.85,0,0,1-1,2.06,2.75,2.75,0,0,1-.88.89,2.38,2.38,0,0,1-1.12.24.5.5,0,0,0,0,1c.39,0,.85,0,1.39-.06s1.18-.05,1.61-.05,1.08,0,1.75.05,1.08.06,1.41.06a.5.5,0,0,0,0-1c-2,0-2.26-.77-2.26-1.35a3.47,3.47,0,0,1,.32-1.34l1.49-3.46h6L346.31,26a2.92,2.92,0,0,1,.34,1.07.3.3,0,0,1-.21.32,3.79,3.79,0,0,1-1.25.14.5.5,0,0,0,0,1c.33,0,.79,0,1.36-.06s1.11-.05,1.51-.05.85,0,1.56.05,1.25.06,1.6.06a.5.5,0,0,0,0-1Zm-12.56-7.38L341,14.84l2.56,5.34Z"></path><path class="cls-1" d="M371.54,11.15l-1.12,0c-.56,0-1,.05-1.35.05s-.78,0-1.35-.05l-1.06,0c-.06,0-.39,0-.39.5s.33.49.39.49a1.49,1.49,0,0,1,1.31.52,3.18,3.18,0,0,1,.42,1.85v9.7l-9.52-11.54c-.21-.26-.42-.55-.63-.86a4.68,4.68,0,0,0-.35-.47.77.77,0,0,0-.54-.19,4.8,4.8,0,0,0-.59,0l-1.23,0c-.39,0-.68,0-.89,0l-1,0a.44.44,0,0,0-.42.5.43.43,0,0,0,.42.49,2.83,2.83,0,0,1,1.88.88v12.2a3,3,0,0,1-.44,1.83,1.75,1.75,0,0,1-1.42.51c-.06,0-.39,0-.39.5s.33.5.39.5c.52,0,.9,0,1.16,0l1.41,0,1.35,0c.26,0,.6,0,1,0a.51.51,0,0,0,0-1,1.54,1.54,0,0,1-1.31-.51,3,3,0,0,1-.44-1.83V14.51l12,14.33,0,0a.47.47,0,0,0,.34.13h.15a.46.46,0,0,0,.4-.44v-14a3,3,0,0,1,.45-1.84,1.64,1.64,0,0,1,1.36-.53.43.43,0,0,0,.41-.49C372,11.26,371.69,11.15,371.54,11.15Z"></path><path class="cls-1" d="M281.07,35.28h-2.28V33.1h-1.05v5.4h1.05V36.29h2.28V38.5h1.05V36.66c0-.28,0-.57,0-.85V33.1h-1.06Z"></path><polygon class="cls-1" points="288.4 36.29 290.7 36.29 290.7 35.3 288.4 35.3 288.4 34.09 290.98 34.09 290.98 33.1 287.34 33.1 287.34 38.5 291.08 38.5 291.08 37.51 288.4 37.51 288.4 36.29"></polygon><path class="cls-1" d="M300,38l-.27-.62c-.1-.25-.21-.52-.34-.81l-.38-.89-.38-.89c-.13-.29-.24-.56-.34-.8l-.26-.63-.15-.36-.13-.3-2.5,5.85h1.07l.61-1.46h1.62c.05.13.11.26.16.38l.17.43.15.34.1.23,0,.08h1.06l-.08-.19ZM297.3,36.1l.42-1,0,.07.13.32.16.39c0,.08.07.17.11.25Z"></path><polygon class="cls-1" points="305.79 33.1 304.73 33.1 304.73 38.5 308.33 38.5 308.33 37.49 305.79 37.49 305.79 33.1"></polygon><polygon class="cls-1" points="312.02 34.12 313.28 34.12 313.28 38.5 314.33 38.5 314.33 34.12 315.63 34.12 315.63 33.1 312.02 33.1 312.02 34.12"></polygon><polygon class="cls-1" points="323.82 35.28 321.54 35.28 321.54 33.1 320.49 33.1 320.49 38.5 321.54 38.5 321.54 36.29 323.82 36.29 323.82 38.5 324.87 38.5 324.88 33.1 323.82 33.1 323.82 35.28"></polygon><path class="cls-1" d="M339.59,37l-.14.19-.09.06a1.79,1.79,0,0,1-.26.1,1.62,1.62,0,0,1-.35.09,1.72,1.72,0,0,1-.39,0,1.66,1.66,0,0,1-1.24-.52,1.77,1.77,0,0,1-.35-.55,1.59,1.59,0,0,1-.13-.64,1.79,1.79,0,0,1,.13-.65,1.76,1.76,0,0,1,.93-.93,1.67,1.67,0,0,1,.71-.14h.23l.26,0,.24.07a.51.51,0,0,1,.18.09l.13.08.07-.13.12-.21.07-.13a.75.75,0,0,0,.07-.12l.08-.13.07-.1-.09-.09a1.18,1.18,0,0,0-.26-.16,2.38,2.38,0,0,0-.35-.12,2.61,2.61,0,0,0-.42-.08,2.93,2.93,0,0,0-1.51.18,2.54,2.54,0,0,0-.89.58,2.6,2.6,0,0,0-.6.88,3,3,0,0,0,0,2.16,2.58,2.58,0,0,0,.53.87,2.8,2.8,0,0,0,.86.59,2.71,2.71,0,0,0,1.13.22,3.43,3.43,0,0,0,.56,0l.47-.11.38-.15a1.5,1.5,0,0,0,.26-.15l.09-.07-.38-.8Z"></path><path class="cls-1" d="M348.73,38l-.26-.62c-.11-.25-.22-.52-.35-.81l-.38-.89c-.13-.3-.25-.6-.38-.89l-.34-.8-.26-.63-.15-.36-.13-.3L344,38.5h1.07l.6-1.46h1.62c.05.13.11.26.16.38s.12.3.18.43l.14.34.1.23,0,.08H349l-.09-.19Zm-2.68-1.85.42-1,.43,1Z"></path><path class="cls-1" d="M356.8,37.23c-.19-.31-.37-.6-.54-.86a2,2,0,0,0,.27-.23,1.66,1.66,0,0,0,.26-.39,1.76,1.76,0,0,0,.15-.44,2.3,2.3,0,0,0,.05-.45,1.72,1.72,0,0,0-.15-.74,1.66,1.66,0,0,0-.41-.56,1.75,1.75,0,0,0-.63-.34,2.45,2.45,0,0,0-.78-.12h-1.54v5.4h1.06V36.68h.64l.23.36.3.46.3.48.29.46.05.06h1.26l-.14-.22C357.24,37.94,357,37.59,356.8,37.23Zm-.91-2.1a.91.91,0,0,1-.13.26.85.85,0,0,1-.25.2,1,1,0,0,1-.41.08h-.56V34.11h.56a.93.93,0,0,1,.4.07.9.9,0,0,1,.26.2.8.8,0,0,1,.13.24.82.82,0,0,1,0,.26A.81.81,0,0,1,355.89,35.13Z"></path><polygon class="cls-1" points="363.2 37.51 363.2 36.29 365.51 36.29 365.51 35.3 363.2 35.3 363.2 34.09 365.79 34.09 365.79 33.1 362.15 33.1 362.15 38.5 365.89 38.5 365.89 37.51 363.2 37.51"></polygon><path class="cls-1" d="M911.43,25.74a12.35,12.35,0,0,1-24.39,0,2.65,2.65,0,0,0,1.77.68h0a2.67,2.67,0,0,0,1.88-.78,8.59,8.59,0,0,0,1.67,3.53l.15.19A8.5,8.5,0,0,0,894,30.77a8.73,8.73,0,0,0,12-1.39c.06-.07.12-.13.17-.2a8.72,8.72,0,0,0,1.64-3.48,2.63,2.63,0,0,0,1.84.75h0A2.65,2.65,0,0,0,911.43,25.74Z"></path><path class="cls-1" d="M911.42,23.8a1.81,1.81,0,0,1-1.8,1.81h0a1.82,1.82,0,0,1-1.42-.7,2.57,2.57,0,0,1-.26-.41h0a1.86,1.86,0,0,1,0-1.39h0a1.82,1.82,0,0,1,2.36-1,1.85,1.85,0,0,1,.72.55A1.76,1.76,0,0,1,911.42,23.8Z"></path><path class="cls-1" d="M890.61,23.8a1.84,1.84,0,0,1-.11.62h0a1.82,1.82,0,0,1-1.69,1.19h0a1.81,1.81,0,1,1,1.69-2.41h0A1.77,1.77,0,0,1,890.61,23.8Z"></path><path class="cls-1" d="M892.11,16l0,0h0Z"></path><path class="cls-1" d="M905.32,17.68l-3.51,5.46a2.66,2.66,0,0,0-2.12-1.95h0a2.15,2.15,0,0,0-.45,0l-.4,0h-.05a2.66,2.66,0,0,0-2.12,1.95l-3.51-5.45a2.58,2.58,0,0,0,.29,0h.4a2.67,2.67,0,0,0,2.34-2l3,4.75,3-4.75a2.65,2.65,0,0,0,2.41,2h.4C905.17,17.71,905.24,17.68,905.32,17.68Z"></path><path class="cls-1" d="M906.65,15.06a2.45,2.45,0,0,1,0,.27,1.86,1.86,0,0,1-.25.68,1,1,0,0,1-.12.16,1.77,1.77,0,0,1-1.26.68h-.27a1.8,1.8,0,0,1-1.66-1.49,1.51,1.51,0,0,1,0-.3V14.9a1.78,1.78,0,0,1,1.53-1.61,1.09,1.09,0,0,1,.26,0l.3,0a1.8,1.8,0,0,1,1.49,1.66A.49.49,0,0,1,906.65,15.06Z"></path><path class="cls-1" d="M895.42,15.06a1.23,1.23,0,0,1,0,.27,1.8,1.8,0,0,1-1.63,1.52h-.27a1.8,1.8,0,0,1-1.3-.68l-.09-.14h0l0,0a1.71,1.71,0,0,1-.24-.65,1.53,1.53,0,0,1,0-.3V14.9a1.81,1.81,0,0,1,1.52-1.63h.28l.31,0A1.84,1.84,0,0,1,895,14c.06.09.12.18.17.27a1.81,1.81,0,0,1,.21.73Z"></path><path class="cls-1" d="M892.11,16l0,0h0Z"></path><path class="cls-1" d="M901,23.8a2.13,2.13,0,0,1,0,.27,1.85,1.85,0,0,1-.27.72,1.13,1.13,0,0,1-.1.13,1.77,1.77,0,0,1-1.26.68h-.27a1.76,1.76,0,0,1-1.29-.68l-.1-.13a1.88,1.88,0,0,1-.26-.68,1.63,1.63,0,0,1,0-.31v-.15a1.68,1.68,0,0,1,.19-.66s0,0,0,0h0l.14-.21h0l0,0A1.8,1.8,0,0,1,899,22l.27,0a1.55,1.55,0,0,1,.31,0,1.78,1.78,0,0,1,1.11.66l0,0,.13.21,0,0a1.66,1.66,0,0,1,.19.69A.53.53,0,0,1,901,23.8Z"></path><path class="cls-1" d="M893,17.64h0a5.57,5.57,0,0,0-.52.57l-.23.28a8.62,8.62,0,0,0-1.6,3.44,2.65,2.65,0,0,0-3.64-.1,12.34,12.34,0,0,1,2.68-5.9A12.58,12.58,0,0,1,891,14.59h0a2.42,2.42,0,0,0,0,.47,2.66,2.66,0,0,0,1.54,2.41A2.88,2.88,0,0,0,893,17.64Z"></path><path class="cls-1" d="M911.43,21.86a2.65,2.65,0,0,0-3.66,0,8.65,8.65,0,0,0-1.57-3.38l-.23-.3c-.17-.2-.34-.39-.52-.57h0a3.53,3.53,0,0,0,.46-.15l.06,0,.11-.05,0,0,.12-.07h0l0,0,.05,0a2.68,2.68,0,0,0,1.17-2.19,3.73,3.73,0,0,0,0-.47A12.37,12.37,0,0,1,911.43,21.86Z"></path><path class="cls-1" d="M922.3,20.49a4.74,4.74,0,0,1,3.54,1.43,5.46,5.46,0,0,1,1.4,4v8h-3.37V26.31a2.68,2.68,0,0,0-.7-2,2.57,2.57,0,0,0-1.88-.69,2.73,2.73,0,0,0-2.09.81,3.34,3.34,0,0,0-.79,2.43v7.06H915V20.85h3.37v1.46A4.34,4.34,0,0,1,922.3,20.49Z"></path><path class="cls-1" d="M937.58,24.09h-3v5.45a1.3,1.3,0,0,0,.34,1,1.56,1.56,0,0,0,1,.35,14.59,14.59,0,0,0,1.62,0v3.05c-2.32.26-4,0-4.9-.66s-1.43-1.94-1.43-3.72V24.09H929V20.85h2.27V18.21l3.37-1v3.66h3Z"></path><path class="cls-1" d="M950.7,32.28a6.93,6.93,0,1,1,2-4.9A6.62,6.62,0,0,1,950.7,32.28ZM943.26,30a3.36,3.36,0,0,0,2.52,1,3.42,3.42,0,0,0,2.53-1,3.76,3.76,0,0,0,0-5.17,3.42,3.42,0,0,0-2.54-1,3.37,3.37,0,0,0-2.52,1,3.5,3.5,0,0,0-1,2.58,3.47,3.47,0,0,0,1,2.59Z"></path><path class="cls-1" d="M969.54,20.49A4.62,4.62,0,0,1,973.13,22a5.54,5.54,0,0,1,1.34,3.92v8.05h-3.36V26.1a2.71,2.71,0,0,0-.58-1.83,2,2,0,0,0-1.63-.65,2.16,2.16,0,0,0-1.78.76,3.24,3.24,0,0,0-.64,2.19v7.35h-3.37V26.1a2.71,2.71,0,0,0-.57-1.83,2.05,2.05,0,0,0-1.63-.65,2.26,2.26,0,0,0-1.79.76,3.24,3.24,0,0,0-.67,2.19v7.35h-3.36V20.85h3.37v1.4a4.07,4.07,0,0,1,3.63-1.76,3.88,3.88,0,0,1,3.56,1.89A4.42,4.42,0,0,1,969.54,20.49Z"></path><path class="cls-1" d="M987.28,20.85h3.37V33.92h-3.37V32.37A5.11,5.11,0,0,1,983,34.28a5.87,5.87,0,0,1-4.48-2,6.88,6.88,0,0,1-1.86-4.9,6.91,6.91,0,0,1,1.86-4.9,5.89,5.89,0,0,1,4.48-2,5.13,5.13,0,0,1,4.26,1.9ZM981.06,30a3.52,3.52,0,0,0,2.59,1,3.56,3.56,0,0,0,2.6-1,3.94,3.94,0,0,0,0-5.31,3.52,3.52,0,0,0-2.6-1,3.48,3.48,0,0,0-2.59,1,3.63,3.63,0,0,0-1,2.65A3.64,3.64,0,0,0,981.06,30Z"></path><path class="cls-1" d="M1001.18,24.09h-2.95v5.45a1.26,1.26,0,0,0,.34,1,1.55,1.55,0,0,0,1,.35,14.79,14.79,0,0,0,1.63,0v3.05q-3.48.39-4.91-.66c-.95-.7-1.43-1.94-1.42-3.72V24.09h-2.28V20.85h2.28V18.21l3.37-1v3.66h2.95Z"></path><path class="cls-1" d="M1005.23,19.28a1.93,1.93,0,0,1-1.45-.61,2,2,0,0,1-.62-1.46,2,2,0,0,1,.62-1.45,2,2,0,0,1,2.92,0,2,2,0,0,1,.62,1.45,2.1,2.1,0,0,1-2.09,2.07Zm-1.67,14.64V20.85h3.37V33.92Z"></path><path class="cls-1" d="M1016.23,34.28a6.76,6.76,0,0,1-6.9-6.9,6.75,6.75,0,0,1,6.63-6.89h.27a6.7,6.7,0,0,1,3.47.91,6.06,6.06,0,0,1,2.38,2.46l-2.9,1.69a3,3,0,0,0-1.19-1.28,3.49,3.49,0,0,0-1.79-.46,3.37,3.37,0,0,0-2.51,1,3.57,3.57,0,0,0-1,2.58,3.51,3.51,0,0,0,1,2.55,3.41,3.41,0,0,0,2.51,1,3.62,3.62,0,0,0,1.82-.46,2.87,2.87,0,0,0,1.19-1.27l2.92,1.67a6.5,6.5,0,0,1-2.43,2.48A6.72,6.72,0,0,1,1016.23,34.28Z"></path><path class="cls-1" d="M1033.63,20.85H1037V33.92h-3.37V32.37a5.11,5.11,0,0,1-4.26,1.91,5.87,5.87,0,0,1-4.48-2,6.88,6.88,0,0,1-1.86-4.9,6.91,6.91,0,0,1,1.86-4.9,5.91,5.91,0,0,1,4.47-2,5.13,5.13,0,0,1,4.26,1.9ZM1027.41,30a3.52,3.52,0,0,0,2.59,1,3.56,3.56,0,0,0,2.6-1,3.94,3.94,0,0,0,0-5.31,3.52,3.52,0,0,0-2.6-1,3.48,3.48,0,0,0-2.59,1,3.6,3.6,0,0,0-1,2.65A3.61,3.61,0,0,0,1027.41,30Z"></path><path class="cls-1" d="M508.18,29.4l-.57.79c-.22.31-.47.64-.74,1l-.8,1.11-.79,1.1-.7,1-.47.66-.18-.25-.84-1.16-1-1.42-1-1.43-.86-1.19c-.24-.33-.4-.56-.47-.67l-.64-1V39.28h2.11V34.47l.19.27.73,1,.76,1,.61.87.36.48.32.39.27-.42c.06-.09.17-.25.32-.49l.57-.82.69-1,.69-1,.27-.39v4.81h2.21V28.12l-.64.79Z"></path><path class="cls-1" d="M516.19,33.65a2.83,2.83,0,0,0-1.82-.64,3.09,3.09,0,0,0-1.24.25,3.36,3.36,0,0,0-1,.69,3.4,3.4,0,0,0-.69,1,3.14,3.14,0,0,0,0,2.48,3.36,3.36,0,0,0,.69,1,3.44,3.44,0,0,0,1,.68,3.23,3.23,0,0,0,1.26.26,4,4,0,0,0,1.27-.23,3.13,3.13,0,0,0,1.05-.63l.28-.25L515.66,37l-.25.25a1.13,1.13,0,0,1-.45.26,1.43,1.43,0,0,1-.58.11,1.31,1.31,0,0,1-.75-.21,1,1,0,0,1-.29-.24l.64-.24,1.12-.44,1.07-.44.9-.34.32-.12-.11-.32A3.41,3.41,0,0,0,516.19,33.65ZM515,35l-.18.07-.76.32-.78.32-.18.08,0-.08a1.48,1.48,0,0,1,.3-.45,1.43,1.43,0,0,1,.44-.32,1.28,1.28,0,0,1,.55-.1,1.24,1.24,0,0,1,.53.12Z"></path><path class="cls-1" d="M523.28,33.45l-.08-.05a2.73,2.73,0,0,0-1.44-.38,3.45,3.45,0,0,0-1.24.23,3.27,3.27,0,0,0-1,.66,3.09,3.09,0,0,0-.66,1,3.5,3.5,0,0,0-.24,1.28,3.6,3.6,0,0,0,.21,1.22,2.85,2.85,0,0,0,1.6,1.71,3.44,3.44,0,0,0,2.08.17,2.48,2.48,0,0,0,.62-.24l.16-.09v.29h1.82V28.52h-1.82Zm-.86,1.47a1.52,1.52,0,0,1,.46.3,1.42,1.42,0,0,1,.29.43,1.62,1.62,0,0,1,0,1.12,1.43,1.43,0,0,1-.3.44,1.37,1.37,0,0,1-.45.3,1.65,1.65,0,0,1-1.16,0,1.23,1.23,0,0,1-.44-.3,1.2,1.2,0,0,1-.29-.45,1.17,1.17,0,0,1-.11-.56,1.35,1.35,0,0,1,.84-1.28,1.42,1.42,0,0,1,.58-.1A1.45,1.45,0,0,1,522.42,34.92Z"></path><rect class="cls-1" x="527.37" y="33.16" width="1.8" height="6.12"></rect><path class="cls-1" d="M527.57,30.67a1,1,0,0,0-.07,1.48.46.46,0,0,0,.07.07,1,1,0,0,0,1.44,0,1,1,0,0,0,.33-.78,1,1,0,0,0-1.76-.78Z"></path><path class="cls-1" d="M533.27,35.22a1.41,1.41,0,0,1,.46-.3,1.66,1.66,0,0,1,1.08,0,1.26,1.26,0,0,1,.39.22l.27.22,1.18-1.39-.3-.23a3.57,3.57,0,0,0-.92-.5A3.39,3.39,0,0,0,534.3,33a3.23,3.23,0,0,0-1.26.26,3.31,3.31,0,0,0-1,.68,3.08,3.08,0,0,0-.69,1,3.14,3.14,0,0,0,0,2.48,3.2,3.2,0,0,0,1.71,1.7,3.25,3.25,0,0,0,2.37.07,3.42,3.42,0,0,0,.91-.51l.27-.21-.21-.28-.34-.43-.34-.42-.23-.27-.27.22a1.26,1.26,0,0,1-.39.22,1.7,1.7,0,0,1-1.09,0,1.48,1.48,0,0,1-.45-.3,1.6,1.6,0,0,1-.29-.44,1.62,1.62,0,0,1,0-1.12A1.42,1.42,0,0,1,533.27,35.22Z"></path><path class="cls-1" d="M542.42,33.47l-.09-.06a3,3,0,0,0-.64-.28,3.22,3.22,0,0,0-.81-.11,3,3,0,0,0-1.24.27,3.21,3.21,0,0,0-1,.7,3.4,3.4,0,0,0-.69,1,3.22,3.22,0,0,0-.25,1.26,3.06,3.06,0,0,0,.24,1.2,3.2,3.2,0,0,0,3.77,1.82,3.51,3.51,0,0,0,.61-.24l.05,0v.25h1.82V33.16h-1.75Zm-.91,4a1.65,1.65,0,0,1-1.16,0,1.38,1.38,0,0,1-.74-.74,1.54,1.54,0,0,1-.1-.56,1.36,1.36,0,0,1,.4-1,1.43,1.43,0,0,1,.44-.3,1.51,1.51,0,0,1,1.62.3,1.26,1.26,0,0,1,.29.43,1.62,1.62,0,0,1,0,1.12,1.6,1.6,0,0,1-.29.44A1.41,1.41,0,0,1,541.51,37.51Z"></path><rect class="cls-1" x="546.47" y="28.52" width="1.8" height="10.76"></rect><path class="cls-1" d="M564.89,29.46l-.64,1.67c-.22.57-.44,1.13-.64,1.67s-.39,1-.55,1.51c-.06.16-.11.32-.16.47l-.22-.58-.37-1c-.14-.35-.27-.7-.4-1.06l-1-2.7-.09-.23H558.7l.15.46c0,.13.11.34.2.63s.19.6.29.9.22.66.35,1c-.23.52-.44,1-.64,1.45l-.26.61c-.09.19-.17.38-.24.55l0,.07c0-.18-.12-.37-.19-.57-.15-.45-.32-1-.52-1.5s-.41-1.09-.63-1.67-.43-1.15-.64-1.72l-.08-.23h-2.35l.18.48c.64,1.65,1.26,3.3,1.88,4.89s1.28,3.3,1.88,4.88l.3.8.35-.78c.09-.22.2-.46.32-.73s.23-.55.36-.84.24-.58.37-.87l.37-.85.63-1.42L563,40.33l.32-.87c.21-.57.46-1.25.76-2s.63-1.61,1-2.49.69-1.76,1-2.66.68-1.76,1-2.58l.18-.48H565Z"></path><path class="cls-1" d="M570.63,33.15a3.52,3.52,0,0,0-.67.34,3.26,3.26,0,0,0-.55.43,3.22,3.22,0,0,0,0-.43l0-.32h-1.65v6.12h1.8V36.35a1.06,1.06,0,0,1,.44-.87,1.49,1.49,0,0,1,.49-.24,2.47,2.47,0,0,1,.6-.08h.3l.37-2.13h-.42A1.84,1.84,0,0,0,570.63,33.15Z"></path><path class="cls-1" d="M573.36,30.67a1,1,0,0,0-.07,1.48.23.23,0,0,0,.07.07,1,1,0,0,0,1.43,0,1,1,0,0,0,.34-.78,1.06,1.06,0,0,0-.32-.77,1,1,0,0,0-1.44,0Z"></path><rect class="cls-1" x="573.16" y="33.16" width="1.8" height="6.12"></rect><polygon class="cls-1" points="579.51 30.78 577.7 30.78 577.7 33.18 576.73 33.18 576.73 34.87 577.7 34.87 577.7 39.28 579.51 39.28 579.51 34.87 580.96 34.87 580.96 33.18 579.51 33.18 579.51 30.78"></polygon><path class="cls-1" d="M587.11,33.65a2.81,2.81,0,0,0-1.82-.64,3.12,3.12,0,0,0-1.24.25,3.44,3.44,0,0,0-1,.69,3.26,3.26,0,0,0-.7,1,3.14,3.14,0,0,0,0,2.48,3.36,3.36,0,0,0,.69,1,3.44,3.44,0,0,0,1,.68,3.23,3.23,0,0,0,1.26.26,4,4,0,0,0,1.27-.23,3.23,3.23,0,0,0,1-.63l.28-.25L586.57,37l-.24.25a1.13,1.13,0,0,1-.45.26,1.46,1.46,0,0,1-.58.11,1.31,1.31,0,0,1-.75-.21,1,1,0,0,1-.29-.24l.62-.24,1.12-.44,1.07-.44c.34-.13.64-.25.91-.34l.32-.12-.11-.32A3.44,3.44,0,0,0,587.11,33.65ZM585.88,35l-.19.07-.75.32-.79.32-.18.08,0-.08a1.37,1.37,0,0,1,.3-.45,1.71,1.71,0,0,1,.44-.32,1.31,1.31,0,0,1,.55-.1,1.18,1.18,0,0,1,.53.12Z"></path><path class="cls-1" d="M593.47,33a2,2,0,0,0-.64.13,3.74,3.74,0,0,0-1.22.77,3.22,3.22,0,0,0,0-.43l0-.32h-1.65v6.12h1.8V36.35a1.18,1.18,0,0,1,.11-.5,1.14,1.14,0,0,1,.32-.37,1.59,1.59,0,0,1,.49-.24,2.49,2.49,0,0,1,.61-.08h.29L593.9,33Z"></path><path class="cls-1" d="M513.29,9.56c-.28.75-.58,1.51-.88,2.29s-.62,1.6-.9,2.34-.55,1.47-.78,2.12a16.44,16.44,0,0,0-.51,1.69l-.06.3-.06.32-.12.52-.11-.52c0-.11-.05-.22-.07-.32a1.47,1.47,0,0,0-.08-.3c0-.15-.13-.38-.25-.7L509,16.17l-.53-1.38-.55-1.5c-.45-1.14-.92-2.39-1.44-3.74h-1.67l.23.74c.13.42.27.84.41,1.26s.34,1,.55,1.6v.09c-.36.81-.68,1.56-1,2.23l-.36.85c-.12.28-.24.54-.32.78s-.18.44-.26.61S504,18,504,18s-.06.17-.11.32a1.52,1.52,0,0,0-.09.28l-.1.55L503.43,18c-.12-.44-.29-1-.5-1.63s-.47-1.35-.74-2.1-.56-1.53-.88-2.35-.59-1.58-.87-2.36h-2c.84,2.25,1.71,4.51,2.58,6.73s1.72,4.45,2.54,6.62c.11-.24.22-.49.32-.76s.33-.77.51-1.17.34-.82.53-1.24l.53-1.2,1.22-2.79,0-.14a.33.33,0,0,1,0-.13V14.41l.23.94a.44.44,0,0,0,.07.19l.09.23L510,22.88c.27-.74.6-1.6,1-2.56s.88-2.28,1.35-3.51l1.47-3.75c.47-1.21.91-2.38,1.33-3.48Z"></path><path class="cls-1" d="M519,20.9V16.79h5.95v-1.6H519V11.08h6.68V9.51h-8.46v13h8.71v-1.6Z"></path><path class="cls-1" d="M530.22,20.84V9.51h-1.77v13h8.33V20.84Z"></path><path class="cls-1" d="M540.65,20.84V9.51h-1.78v13h8.33V20.84Z"></path><path class="cls-1" d="M558.92,9.51V18L559,19l-.6-.88a7.12,7.12,0,0,0-.64-.7l-1.08-1.09c-.42-.42-.88-.86-1.39-1.34l-1.53-1.47-1.54-1.48c-.5-.49-1-1-1.39-1.37s-.78-.78-1.09-1.1l-.47-.49V22.51h1.78V13.9l-.1-1,.6.82c.15.2.47.55.94,1s1,1.05,1.66,1.67,1.3,1.29,2,2,1.38,1.35,2,2l1.69,1.67c.32.33.59.61.78.83V9.51Z"></path><path class="cls-1" d="M565.93,20.9V16.79h6v-1.6h-6V11.08h6.68V9.51h-8.45v13h8.71v-1.6Z"></path><path class="cls-1" d="M582.76,17.13A4.11,4.11,0,0,0,581.57,16,6.86,6.86,0,0,0,580,15.2c-.57-.19-1.1-.4-1.6-.6a5.62,5.62,0,0,1-1.25-.69,1.3,1.3,0,0,1-.54-1.09,1.54,1.54,0,0,1,.73-1.3,3.3,3.3,0,0,1,1.91-.5,7.08,7.08,0,0,1,1.44.17,11.76,11.76,0,0,1,1.4.41l.62-1.42-.35-.13c-.24-.09-.53-.18-.86-.27s-.72-.17-1.13-.24a7.9,7.9,0,0,0-1.28-.11,5.07,5.07,0,0,0-1.85.31,3.78,3.78,0,0,0-1.32.79,3.2,3.2,0,0,0-.8,1.13,3.33,3.33,0,0,0-.26,1.28,2.49,2.49,0,0,0,.27,1.2,3.06,3.06,0,0,0,.72.88,4.55,4.55,0,0,0,1,.64c.39.18.8.35,1.21.52l1.21.47a6.72,6.72,0,0,1,1.08.52,2.71,2.71,0,0,1,.78.69,1.56,1.56,0,0,1,.32,1,1.51,1.51,0,0,1-.39,1.05,2.93,2.93,0,0,1-.88.64,4.46,4.46,0,0,1-1.06.32,5.86,5.86,0,0,1-.93.09,6.25,6.25,0,0,1-1.66-.26A7.88,7.88,0,0,1,575,20l-.77,1.52c.16.1.35.2.57.31a7.88,7.88,0,0,0,3.47.75,7.87,7.87,0,0,0,2.17-.27,4.31,4.31,0,0,0,1.53-.76,3.26,3.26,0,0,0,.92-1.17,3.89,3.89,0,0,0,.32-1.53A3.12,3.12,0,0,0,582.76,17.13Z"></path><path class="cls-1" d="M593.08,17.13A4.24,4.24,0,0,0,591.89,16a7.54,7.54,0,0,0-1.56-.77c-.57-.19-1.11-.4-1.61-.6a5.78,5.78,0,0,1-1.24-.69,1.3,1.3,0,0,1-.54-1.09,1.52,1.52,0,0,1,.74-1.3,3.25,3.25,0,0,1,1.9-.5,7,7,0,0,1,1.44.17,11.76,11.76,0,0,1,1.4.41l.62-1.42-.35-.13c-.24-.09-.53-.18-.86-.27s-.72-.17-1.13-.24a7.69,7.69,0,0,0-1.27-.11,5.1,5.1,0,0,0-1.85.31,3.87,3.87,0,0,0-1.32.79,3.3,3.3,0,0,0-.79,1.13,3.54,3.54,0,0,0-.27,1.28,2.49,2.49,0,0,0,.27,1.2,3.06,3.06,0,0,0,.72.88,4.79,4.79,0,0,0,1,.64c.39.18.8.35,1.22.52l1.21.47a7,7,0,0,1,1.07.52,2.75,2.75,0,0,1,.79.69,1.56,1.56,0,0,1,.32,1,1.51,1.51,0,0,1-.39,1.05,2.7,2.7,0,0,1-.89.64,4.33,4.33,0,0,1-1.06.32,5.62,5.62,0,0,1-.92.09,6.25,6.25,0,0,1-1.66-.26,7.63,7.63,0,0,1-1.54-.62l-.77,1.55c.16.1.35.2.56.31a7.09,7.09,0,0,0,.9.37,8.77,8.77,0,0,0,1.15.28,9.73,9.73,0,0,0,1.43.11,7.61,7.61,0,0,0,2.17-.28,4.48,4.48,0,0,0,1.53-.76,3.25,3.25,0,0,0,.91-1.17,3.81,3.81,0,0,0,.32-1.53A3.14,3.14,0,0,0,593.08,17.13Z"></path><path class="cls-1" d="M468.48,48.82c-.27-.54-.5-1.11-.74-1.67s-.44-1.14-.64-1.73a7.8,7.8,0,0,1-.51-1.77,5.18,5.18,0,0,1,.08-1.88,0,0,0,0,1,.06,0l0,0a9,9,0,0,1,.67,1.72,14.92,14.92,0,0,1,.33,1.77c.12.59.24,1.18.38,1.77s.27,1.18.41,1.77a0,0,0,0,1,0,.05s0,0,0,0Z"></path><circle class="cls-1" cx="466.72" cy="41.77" r="0.9"></circle><line class="cls-2" x1="468.6" y1="48.25" x2="490.79" y2="48.25"></line><path class="cls-1" d="M464.73,8.66a.46.46,0,0,1-.46-.45.44.44,0,0,1,.31-.43l6.9-2.46a.45.45,0,0,1,.58.28.46.46,0,0,1-.28.58l-6.9,2.45Z"></path><path class="cls-1" d="M463.53,11.66a.45.45,0,1,1,0-.9l10.16,0h0a.45.45,0,0,1,0,.9Z"></path><path class="cls-1" d="M463.56,16.38a.46.46,0,0,1-.1-.9l10-2.19a.45.45,0,1,1,.19.88l-10,2.21Z"></path><path class="cls-1" d="M472.42,34.47h-.07l-9.08-1.4a.44.44,0,0,1-.37-.51.44.44,0,0,1,.51-.38l9.08,1.39a.46.46,0,0,1-.07.91Z"></path><path class="cls-1" d="M461.76,38.15a.46.46,0,0,1,0-.91l10.88-.58a.46.46,0,0,1,.05.91l-10.88.58Z"></path><circle class="cls-1" cx="470.93" cy="11.18" r="1.46"></circle><circle class="cls-1" cx="464.69" cy="37.47" r="1.46"></circle><circle class="cls-1" cx="466.47" cy="15.3" r="1.41"></circle><circle class="cls-1" cx="469.47" cy="33.56" r="1.52"></circle><path class="cls-1" d="M455.06,29.56c.1-.6.25-1.18.39-1.75s.32-1.15.48-1.72c.34-1.13.73-2.24,1.14-3.36l.11.44c-.32-.29-.64-.59-.94-.9s-.61-.62-.91-.94l-.88-1c-.29-.32-.57-.67-.84-1,.38.24.74.49,1.09.74s.7.52,1,.8l1,.82,1,.86a.41.41,0,0,1,.12.43h0c-.39,1.12-.81,2.23-1.27,3.33-.23.54-.46,1.09-.72,1.62S455.36,29,455.06,29.56Z"></path><path class="cls-1" d="M445.62,26.16A19.68,19.68,0,0,1,449.18,24a19.08,19.08,0,0,1,4-1.35,11.32,11.32,0,0,1,4.22-.25,8.56,8.56,0,0,1,3.89,1.6,0,0,0,0,1,0,.05h-.05c-.67-.2-1.31-.42-2-.55a14.62,14.62,0,0,0-2-.29c-.67-.05-1.33-.09-2-.08a13.37,13.37,0,0,0-2,.16,18.89,18.89,0,0,0-3.91,1.08,21.66,21.66,0,0,0-3.68,1.81h-.06a0,0,0,0,1,0-.06Z"></path><path class="cls-1" d="M451.49,27.59c0-.4.09-.8.16-1.2s.15-.79.25-1.17c.19-.78.41-1.54.67-2.3l.11.43c-.44-.44-.86-.9-1.27-1.38l-.58-.74a8.47,8.47,0,0,1-.54-.79c.28.16.54.34.8.52s.51.37.75.57c.49.39,1,.8,1.42,1.22a.43.43,0,0,1,.11.42h0c-.24.76-.5,1.51-.8,2.24-.15.37-.32.74-.49,1.1A11.3,11.3,0,0,1,451.49,27.59Z"></path><path class="cls-1" d="M481.33,19.71c-.1.59-.25,1.17-.39,1.74s-.32,1.15-.48,1.72q-.51,1.7-1.14,3.36l-.11-.44c.32.3.64.6.94.9s.61.63.91.94.59.65.88,1,.57.66.84,1c-.38-.23-.74-.48-1.09-.74s-.7-.52-1-.79l-1-.83-1-.86a.39.39,0,0,1-.11-.43h0c.38-1.12.8-2.23,1.26-3.32.23-.55.46-1.1.72-1.63S481,20.22,481.33,19.71Z"></path><path class="cls-1" d="M484.9,21.66a9.87,9.87,0,0,1-.16,1.2c-.07.4-.15.79-.25,1.18a23,23,0,0,1-.67,2.29l-.11-.43c.44.45.86.91,1.27,1.39.2.24.39.49.58.74a7.33,7.33,0,0,1,.54.79,8.52,8.52,0,0,1-.8-.53c-.26-.18-.5-.37-.75-.56-.49-.4-1-.8-1.42-1.23a.43.43,0,0,1-.11-.42h0c.24-.76.5-1.51.8-2.24.15-.37.32-.73.49-1.09A10.36,10.36,0,0,1,484.9,21.66Z"></path><path class="cls-1" d="M490.78,23.11a21.39,21.39,0,0,1-3.57,2.12,19.68,19.68,0,0,1-4,1.35,11.53,11.53,0,0,1-4.22.25,8.47,8.47,0,0,1-3.88-1.6,0,0,0,0,1,0-.06h0s0,0,0,0h0c.67.2,1.31.42,2,.55a14.53,14.53,0,0,0,2,.29c.66.05,1.32.09,2,.08a13.61,13.61,0,0,0,2-.16,18.26,18.26,0,0,0,3.91-1.07,22.79,22.79,0,0,0,3.68-1.8h0a0,0,0,0,1,.06.06Z"></path><path class="cls-1" d="M473.72,8.19a12.53,12.53,0,0,0-3.06-4.54,15.59,15.59,0,0,0-4.54-3h0a.59.59,0,0,0-.37-.05.64.64,0,0,0-.53.74v0a10,10,0,0,1,.11,2.94,11.87,11.87,0,0,1-.78,2.89c-.38,1-.83,1.92-1.2,2.93a10.69,10.69,0,0,0-.67,3.21,10,10,0,0,0,.45,3.26,15.22,15.22,0,0,0,1.28,3,25.91,25.91,0,0,0,1.7,2.69c.61.86,1.28,1.69,1.95,2.49a38.16,38.16,0,0,1-3.15-5.43c-.22-.47-.41-1-.58-1.44a10.36,10.36,0,0,1-.47-1.46,9.18,9.18,0,0,1-.25-3,9.34,9.34,0,0,1,.74-2.88c.38-1,.86-1.88,1.28-2.89a12.9,12.9,0,0,0,.93-3.16,10.42,10.42,0,0,0,.09-2.09,16.27,16.27,0,0,1,3.08,2.26,12.41,12.41,0,0,1,2.91,4,10.53,10.53,0,0,1,.85,4.89,16.29,16.29,0,0,1-1.23,5,12.87,12.87,0,0,0,2-4.92A10.43,10.43,0,0,0,473.72,8.19Z"></path><path class="cls-1" d="M472.94,33a14,14,0,0,0-1.23-3,23.55,23.55,0,0,0-1.7-2.74c-.62-.88-1.28-1.72-2-2.53a36.82,36.82,0,0,1,3.18,5.51,14.43,14.43,0,0,1,.57,1.47,13.22,13.22,0,0,1,.42,1.49,8.64,8.64,0,0,1,.12,3,9.29,9.29,0,0,1-1,2.86c-.47.92-1,1.81-1.57,2.76a16.09,16.09,0,0,0-1.37,3,10.34,10.34,0,0,0-.46,2.07,26.08,26.08,0,0,1-2.77-2.48,10.55,10.55,0,0,1-2.51-4,9.36,9.36,0,0,1-.42-2.34,11.67,11.67,0,0,1,.14-2.43,22.4,22.4,0,0,1,1.41-4.8,16.21,16.21,0,0,0-2.15,4.64,10.12,10.12,0,0,0-.09,5.24,9.59,9.59,0,0,0,1,2.47,12.36,12.36,0,0,0,1.6,2.13,26.84,26.84,0,0,0,3.94,3.35h0a.64.64,0,0,0,.9-.11.6.6,0,0,0,.14-.42,10.22,10.22,0,0,1,.41-3,15.3,15.3,0,0,1,1.22-2.82c.49-.92,1-1.85,1.49-2.86a10.48,10.48,0,0,0,.6-1.56,8.51,8.51,0,0,0,0-5Z"></path><path class="cls-1" d="M492.16,22.42a.64.64,0,0,0-.73-.54h0a9.67,9.67,0,0,1-2.94.11,11.67,11.67,0,0,1-2.89-.78c-1-.38-1.92-.82-2.93-1.19a10.7,10.7,0,0,0-3.21-.68,9.88,9.88,0,0,0-3.24.45,15.22,15.22,0,0,0-3,1.28,25.91,25.91,0,0,0-2.69,1.7c-.86.61-1.69,1.28-2.49,1.95a38.16,38.16,0,0,1,5.43-3.15c.47-.22,1-.41,1.44-.58a12.47,12.47,0,0,1,1.47-.45,9.12,9.12,0,0,1,3-.25,9.27,9.27,0,0,1,2.88.74c1,.38,1.88.87,2.89,1.28a12.43,12.43,0,0,0,3.17.93,9,9,0,0,0,2.08.09,16.34,16.34,0,0,1-2.26,3.09,12.23,12.23,0,0,1-4,2.9,10.47,10.47,0,0,1-4.91.83,16.14,16.14,0,0,1-5-1.23,12.88,12.88,0,0,0,4.94,2,10.43,10.43,0,0,0,5.42-.52,12.52,12.52,0,0,0,4.52-3.05,15.8,15.8,0,0,0,3-4.55h0A.68.68,0,0,0,492.16,22.42Z"></path><path class="cls-1" d="M462.61,27.86c-.47.22-1,.41-1.44.58a14.64,14.64,0,0,1-1.47.44,9.42,9.42,0,0,1-3,.25,9.92,9.92,0,0,1-2.89-.74c-.94-.39-1.87-.87-2.88-1.29a12.9,12.9,0,0,0-3.16-.93,10.49,10.49,0,0,0-2.09-.09A15.45,15.45,0,0,1,448,23a12.3,12.3,0,0,1,4-2.91,10.5,10.5,0,0,1,4.89-.83,16.08,16.08,0,0,1,5,1.23,13.16,13.16,0,0,0-4.93-2,10.6,10.6,0,0,0-5.41.52A12.53,12.53,0,0,0,447,22.09a15.39,15.39,0,0,0-3,4.54h0a.63.63,0,0,0,0,.38.64.64,0,0,0,.74.53h0a10,10,0,0,1,2.94-.11,11.67,11.67,0,0,1,2.89.78c1,.38,1.92.83,2.93,1.19a10.7,10.7,0,0,0,3.2.68,9.94,9.94,0,0,0,3.25-.45,15.14,15.14,0,0,0,3-1.26,25.91,25.91,0,0,0,2.69-1.7q1.29-.92,2.49-2A39.45,39.45,0,0,1,462.61,27.86Z"></path><polygon class="cls-1" points="683.47 13.41 683.47 15.45 671.08 15.45 669.04 13.41 669.04 12.56 682.62 12.56 683.47 13.41"></polygon><polygon class="cls-1" points="679.88 19.18 679.88 21.22 667.49 21.22 665.45 19.18 665.45 18.34 679.03 18.34 679.88 19.18"></polygon><polygon class="cls-1" points="677 24.11 676.64 24.11 674.11 24.11 671.57 24.11 671.22 24.11 669.18 24.11 668.34 24.11 668.34 24.95 670.38 26.99 671.22 26.99 674.11 26.99 677 26.99 679.88 26.99 679.88 24.95 679.03 24.11 677 24.11"></polygon><path class="cls-1" d="M714.65,9.68h-22.1l-3.4,3.4v3.67h-3.68l-2.81,2.82V31.79l2.64,2.64h3.85v5.31h1.66l.13-.13,1-1,7.64-7.64h4.71l1.81-1.81,1.75-1.75,0,0h3.85l2.5,0,3.41-3.44V12.69Zm1.24,6.56L714.62,15h-1.79v1.79h1l2,2v4.41L713.5,25.6h-4.59l-1.79-1.79-1.25-1.27-1.27-1.25L703.34,20V16.44l-1.28-1.27h-4.62l-.75-.75-1.27,1.27L696.69,17h4.62l.22.22V20H698V21.8h4.63l.75.75,1.26,1.27,1.27,1.25.89.9-3.17,3.17h-4.72l-7.93,7.93v-4.4l1.26-1.26,1.27-1.27V24.79l-1.27-1.27h-3.58v1.77h2.84l.22.22V29.4l-.75.75-1.27,1.27-1.26,1.26h-2.32L684.45,31v-.15H688l1.27-1.27L688,28.36l-.75.75h-2.82v-8.8l1.8-1.81h4.69v1.79l1.26,1.27,1.27,1.26,1.26,1.27L696,25.35l1.26,1.27h3.58V24.83H698l-2-2h0l-1.26-1.27-1.27-1.27-.75-.75V16.71h-1.79V13.82l2.39-2.39h12.89V19h0l3.06,3.05h1.79V20.27h-1l-2-2V12.69l1.26-1.26h4.6l2,2Z"></path><polygon class="cls-1" points="682.65 29.08 682.66 29.09 682.63 29.06 682.65 29.08"></polygon><path class="cls-1" d="M713.06,21.16a1.45,1.45,0,1,0-1.44,1.45h0A1.44,1.44,0,0,0,713.06,21.16Zm-2,0a.56.56,0,0,1,.56-.55.56.56,0,0,1,0,1.11h0a.56.56,0,0,1-.56-.56Z"></path><path class="cls-1" d="M710.81,15.85a1.45,1.45,0,1,0,1.45-1.44h0A1.45,1.45,0,0,0,710.81,15.85Zm2,0a.55.55,0,0,1-.56.55.56.56,0,0,1,0-1.11.56.56,0,0,1,.55.56Z"></path><path class="cls-1" d="M690.06,27.57a1.45,1.45,0,1,0,0,2.05,1.44,1.44,0,0,0,0-2.05ZM688.65,29a.55.55,0,0,1,0-.78.55.55,0,0,1,.78.78.55.55,0,0,1-.77,0Z"></path><path class="cls-1" d="M686.62,24.41A1.45,1.45,0,1,0,688.07,23h0A1.45,1.45,0,0,0,686.62,24.41Zm2,0a.55.55,0,0,1-1.1,0,.55.55,0,1,1,1.1,0Z"></path><path class="cls-1" d="M694.65,13.65a1.45,1.45,0,1,0,2.05,0,1.45,1.45,0,0,0-2.05,0Zm1.41,1.41a.54.54,0,0,1-.78,0,.56.56,0,1,1,.78-.79h0A.53.53,0,0,1,696.06,15.06Z"></path><path class="cls-1" d="M702.84,25.72a1.45,1.45,0,1,0-1.45,1.45h0A1.45,1.45,0,0,0,702.84,25.72Zm-2,0a.55.55,0,0,1,.55-.55.55.55,0,0,1,.55.55.55.55,0,0,1-1.1,0Z"></path><path class="cls-1" d="M696,20.91a1.45,1.45,0,1,0,1.45-1.45h0A1.45,1.45,0,0,0,696,20.91Zm2,0a.55.55,0,1,1-1.1,0,.55.55,0,1,1,1.1,0Z"></path><path class="cls-1" d="M725.75,26.88a6,6,0,0,1-3.3-.86,4.73,4.73,0,0,1-1.89-2.34l2.56-1.49a2.75,2.75,0,0,0,2.72,1.8c1.18,0,1.75-.35,1.75-1.06A1,1,0,0,0,727,22a11.37,11.37,0,0,0-2.12-.75,9.33,9.33,0,0,1-1.43-.5,5.85,5.85,0,0,1-1.19-.73,2.93,2.93,0,0,1-.89-1.14,3.82,3.82,0,0,1-.3-1.57,3.56,3.56,0,0,1,1.28-2.87,4.59,4.59,0,0,1,3.07-1.07,5.25,5.25,0,0,1,2.81.75,5.13,5.13,0,0,1,1.93,2.17l-2.5,1.46a2.89,2.89,0,0,0-.87-1.12,2.32,2.32,0,0,0-1.37-.38,1.63,1.63,0,0,0-1,.29.86.86,0,0,0-.37.69,1,1,0,0,0,.46.83,6.22,6.22,0,0,0,1.88.78l1.2.39a8.79,8.79,0,0,1,1.08.5,3.59,3.59,0,0,1,1,.72,3.68,3.68,0,0,1,.61,1,3.62,3.62,0,0,1,.28,1.41,3.53,3.53,0,0,1-1.34,2.91A5.41,5.41,0,0,1,725.75,26.88Z"></path><path class="cls-1" d="M737.1,20h-1.91v3.27a.66.66,0,0,0,.45.7,4.22,4.22,0,0,0,1.46.09v2.52c-1.76.18-3,0-3.66-.5a3.33,3.33,0,0,1-1-2.8V20h-1.48V17.36h1.48V15.61l2.77-.83v2.58h1.91Z"></path><path class="cls-1" d="M741.64,19a2.27,2.27,0,0,1,1.05-1.36,3.2,3.2,0,0,1,1.73-.47v3.14a2.8,2.8,0,0,0-1.9.35,1.85,1.85,0,0,0-.88,1.77v4.18h-2.78V17.37h2.78Z"></path><path class="cls-1" d="M752.15,17.36h2.78v9.25h-2.78v-.86a3.45,3.45,0,0,1-2.75,1.13,4.1,4.1,0,0,1-3.13-1.42A4.93,4.93,0,0,1,745,22a5,5,0,0,1,1.29-3.47,4.13,4.13,0,0,1,3.13-1.42,3.44,3.44,0,0,1,2.75,1.13Zm-3.79,6.28a2.38,2.38,0,0,0,3.18,0,2.54,2.54,0,0,0,0-3.3,2.38,2.38,0,0,0-3.18,0,2.54,2.54,0,0,0,0,3.3Z"></path><path class="cls-1" d="M762.39,20h-1.9v3.27a.65.65,0,0,0,.44.7,4.22,4.22,0,0,0,1.46.09v2.52c-1.76.18-3,0-3.66-.5a3.33,3.33,0,0,1-1-2.8V20h-1.48V17.36h1.48V15.61l2.77-.83v2.58h1.91Z"></path><path class="cls-1" d="M766.26,23.1a2.09,2.09,0,0,0,2.22,1.3,2.29,2.29,0,0,0,1.78-.71L772.48,25a4.63,4.63,0,0,1-4,1.91,5,5,0,0,1-3.73-1.39,4.69,4.69,0,0,1-1.4-3.5,4.75,4.75,0,0,1,4.6-4.89h.32a4.48,4.48,0,0,1,3.36,1.4A4.85,4.85,0,0,1,773,22a5.24,5.24,0,0,1-.12,1.11Zm0-2.06h4a2.09,2.09,0,0,0-4,0Z"></path><path class="cls-1" d="M781.22,17.36h2.7v8.8a4,4,0,0,1-1.42,3.3A5.42,5.42,0,0,1,779,30.58a4.6,4.6,0,0,1-4.39-2.25L777,27a2.2,2.2,0,0,0,2.11,1.17,2.28,2.28,0,0,0,1.54-.5,1.93,1.93,0,0,0,.55-1.48V25.3a3.24,3.24,0,0,1-2.7,1.21,4.26,4.26,0,0,1-3.25-1.38,4.87,4.87,0,0,1,0-6.65,4.33,4.33,0,0,1,3.25-1.38,3.26,3.26,0,0,1,2.7,1.21Zm-3.85,6a2.48,2.48,0,0,0,3.22,0,2.05,2.05,0,0,0,.63-1.55,2.07,2.07,0,0,0-.63-1.56,2.48,2.48,0,0,0-3.22,0,2.07,2.07,0,0,0-.63,1.56A2.05,2.05,0,0,0,777.37,23.36Z"></path><path class="cls-1" d="M788.52,16.06a1.66,1.66,0,0,1-2.42-2.28l.07-.07a1.67,1.67,0,0,1,2.36,0,1.65,1.65,0,0,1,.48,1.17A1.6,1.6,0,0,1,788.52,16.06ZM786,26.62V17.37h2.78v9.25Z"></path><path class="cls-1" d="M796.75,17.36h2.78v9.25h-2.78v-.86a3.06,3.06,0,0,1-2.64,1.13,3.34,3.34,0,0,1-2.48-1,3.87,3.87,0,0,1-1-2.81V17.36h2.78v5.28a1.66,1.66,0,0,0,.45,1.25,1.6,1.6,0,0,0,1.16.43,1.62,1.62,0,0,0,1.25-.48,2,2,0,0,0,.46-1.42Z"></path><path class="cls-1" d="M811.93,17.1a3.33,3.33,0,0,1,2.56,1,4,4,0,0,1,1,2.79v5.68h-2.78V21.18a1.63,1.63,0,0,0-.34-1.11,1.19,1.19,0,0,0-1-.41,1.3,1.3,0,0,0-1.06.46,1.9,1.9,0,0,0-.38,1.28v5.22h-2.77V21.18a1.69,1.69,0,0,0-.34-1.11,1.19,1.19,0,0,0-1-.41,1.33,1.33,0,0,0-1.07.46,2,2,0,0,0-.38,1.28v5.22h-2.76V17.37h2.77v.85a2.78,2.78,0,0,1,2.48-1.11,2.73,2.73,0,0,1,2.43,1.22A3.08,3.08,0,0,1,811.93,17.1Z"></path><path class="cls-1" d="M726.69,29.82v1h-1.13v3.39h-1V30.79h-1.11v-1Z"></path><path class="cls-1" d="M728.42,33.21h1.74v.95h-2.73V29.82h2.7v1h-1.71v.72H730v.94h-1.55Z"></path><path class="cls-1" d="M733.07,34.25A2.25,2.25,0,1,1,734.14,30a2.13,2.13,0,0,1,.79.73l-.86.5a1.1,1.1,0,0,0-.41-.39,1.36,1.36,0,0,0-.6-.14,1.27,1.27,0,0,0-.92.35,1.45,1.45,0,0,0,0,1.88,1.23,1.23,0,0,0,.93.34,1.12,1.12,0,0,0,.59-.14,1,1,0,0,0,.41-.39l.86.5a2,2,0,0,1-.78.73A2.16,2.16,0,0,1,733.07,34.25Z"></path><path class="cls-1" d="M738.07,29.82h1v4.34h-1V32.44H736.7v1.72h-1V29.82h1v1.67h1.37Z"></path><path class="cls-1" d="M742.52,29.82h1v4.34h-.75l-1.67-2.35v2.35h-1V29.82h.75l1.67,2.36Z"></path><path class="cls-1" d="M748.23,33.6a2.29,2.29,0,1,1,0-3.24,2.32,2.32,0,0,1,.68,1.63A2.2,2.2,0,0,1,748.23,33.6Zm-2.5-.68a1.32,1.32,0,0,0,1.81,0,1.38,1.38,0,0,0,0-1.86,1.32,1.32,0,0,0-1.81,0A1.38,1.38,0,0,0,745.73,32.92Z"></path><path class="cls-1" d="M750.75,33.21h1.55v.95h-2.54V29.82h1Z"></path><path class="cls-1" d="M756.47,33.6a2.31,2.31,0,1,1,.65-1.61A2.19,2.19,0,0,1,756.47,33.6Zm-2.5-.68a1.3,1.3,0,0,0,1.8,0,1.38,1.38,0,0,0,0-1.86,1.3,1.3,0,0,0-1.8,0A1.36,1.36,0,0,0,754,32.92Z"></path><path class="cls-1" d="M762.29,31.75v.37a2.09,2.09,0,0,1-.61,1.55,2.11,2.11,0,0,1-1.53.58,2.28,2.28,0,0,1-1.68-.65,2.11,2.11,0,0,1-.66-1.6,2.24,2.24,0,0,1,2.27-2.26,2.25,2.25,0,0,1,1.11.27,2.19,2.19,0,0,1,.79.72l-.85.48a1.05,1.05,0,0,0-.42-.36,1.43,1.43,0,0,0-.64-.15,1.25,1.25,0,0,0-.91.37,1.27,1.27,0,0,0-.37.94,1.24,1.24,0,0,0,.38.92,1.35,1.35,0,0,0,1,.35,1.05,1.05,0,0,0,1.11-.67h-1.16v-.86Z"></path><path class="cls-1" d="M763.15,29.82h1v4.34h-1Z"></path><path class="cls-1" d="M766.19,33.21h1.74v.95H765.2V29.82h2.7v1h-1.71v.72h1.55v.94h-1.55Z"></path><path class="cls-1" d="M770.32,34.25a2.05,2.05,0,0,1-1.11-.29,1.56,1.56,0,0,1-.63-.78l.86-.5a.9.9,0,0,0,.91.6c.39,0,.59-.12.59-.36a.38.38,0,0,0-.19-.3,4.61,4.61,0,0,0-.71-.25,3.38,3.38,0,0,1-.48-.16,2.06,2.06,0,0,1-.4-.25,1,1,0,0,1-.3-.39,1.3,1.3,0,0,1-.1-.52,1.21,1.21,0,0,1,.43-1,1.54,1.54,0,0,1,1-.36,1.75,1.75,0,0,1,.94.25,1.66,1.66,0,0,1,.64.72l-.84.5a.94.94,0,0,0-.29-.37.73.73,0,0,0-.46-.13.52.52,0,0,0-.34.1.29.29,0,0,0-.12.23.35.35,0,0,0,.15.28,2.13,2.13,0,0,0,.63.25l.4.13.37.16a1.37,1.37,0,0,1,.33.25,1.28,1.28,0,0,1-.15,1.79A1.82,1.82,0,0,1,770.32,34.25Z"></path><path class="cls-1" d="M48.83,19.81h6.86v3.07H45.62V6.58h10V9.66H48.83v3.47H55v3H48.83Z"></path><path class="cls-1" d="M57.81,22.88V6.58h3v16.3Z"></path><path class="cls-1" d="M66.1,18.29c.4,1.46,1.5,2.19,3.28,2.19A3.06,3.06,0,0,0,72,19.32l2.42,1.39a5.8,5.8,0,0,1-5.07,2.5,6.24,6.24,0,0,1-4.63-1.74A6,6,0,0,1,63,17.07a6,6,0,0,1,1.74-4.39,5.94,5.94,0,0,1,4.42-1.76,5.58,5.58,0,0,1,4.23,1.77A6.17,6.17,0,0,1,75,17.07a6.41,6.41,0,0,1-.12,1.23Zm0-2.32H72a2.83,2.83,0,0,0-1.06-1.77,3.07,3.07,0,0,0-1.83-.58,3.2,3.2,0,0,0-2,.61A3,3,0,0,0,66.05,16Z"></path><path class="cls-1" d="M82.54,23.21a6,6,0,0,1-6.15-5.9v-.25a6,6,0,0,1,5.9-6.14h.25a6.1,6.1,0,0,1,3.09.81,5.39,5.39,0,0,1,2.12,2.19l-2.58,1.51a2.69,2.69,0,0,0-1-1.14,3.05,3.05,0,0,0-1.59-.42,3,3,0,0,0-2.24.9,3.14,3.14,0,0,0-.88,2.29,3.08,3.08,0,0,0,.88,2.27,3,3,0,0,0,2.24.89,3.09,3.09,0,0,0,1.62-.4,2.5,2.5,0,0,0,1-1.13l2.61,1.49a5.87,5.87,0,0,1-2.17,2.2A6,6,0,0,1,82.54,23.21Z"></path><path class="cls-1" d="M96,14.13H93.41V19a1.14,1.14,0,0,0,.29.88,1.36,1.36,0,0,0,.88.32c.49,0,1,0,1.45,0v2.72c-2.06.24-3.52,0-4.36-.58A3.89,3.89,0,0,1,90.4,19V14.13h-2v-2.9h2V8.89l3-.91v3.26H96Z"></path><path class="cls-1" d="M101.35,13.24a3.07,3.07,0,0,1,1.38-1.67,4.19,4.19,0,0,1,2.15-.56v3.35a3.54,3.54,0,0,0-2.45.56,2.66,2.66,0,0,0-1.08,2.39v5.57h-3V11.24h3Z"></path><path class="cls-1" d="M116.11,21.43a6.18,6.18,0,1,1,1.79-4.37A6,6,0,0,1,116.11,21.43Zm-6.63-2.07a3,3,0,0,0,2.25.91,3.06,3.06,0,0,0,2.26-.91,3.12,3.12,0,0,0,.91-2.31,3.11,3.11,0,0,0-3.17-3.23,3.06,3.06,0,0,0-2.25.91,3.18,3.18,0,0,0-.89,2.32A3.14,3.14,0,0,0,109.48,19.36Z"></path><path class="cls-1" d="M126.49,10.91a4.21,4.21,0,0,1,3.15,1.3,4.85,4.85,0,0,1,1.25,3.54v7.13h-3V16.1a2.44,2.44,0,0,0-.63-1.78,2.32,2.32,0,0,0-1.68-.61,2.45,2.45,0,0,0-1.86.72,3,3,0,0,0-.7,2.16v6.29h-3V11.24h3v1.3A3.91,3.91,0,0,1,126.49,10.91Z"></path><path class="cls-1" d="M134.94,10.29a1.88,1.88,0,0,1-1.84-1.85,1.78,1.78,0,0,1,.55-1.3,1.75,1.75,0,0,1,1.29-.56,1.85,1.85,0,0,1,1.32,3.16A1.8,1.8,0,0,1,134.94,10.29Zm-1.49,12.59V11.68h3v11.2Z"></path><path class="cls-1" d="M144.74,23.21a6,6,0,0,1-6.15-5.9v-.25a6,6,0,0,1,5.9-6.14h.25a6,6,0,0,1,3.09.81A5.32,5.32,0,0,1,150,13.92l-2.58,1.51a2.65,2.65,0,0,0-1.06-1.14,3.23,3.23,0,0,0-3.83.48,3.14,3.14,0,0,0-.88,2.29,3.08,3.08,0,0,0,.88,2.27,3,3,0,0,0,2.24.9,3.14,3.14,0,0,0,1.61-.41,2.57,2.57,0,0,0,1.06-1.13L150,20.18a5.73,5.73,0,0,1-2.17,2.2A6,6,0,0,1,144.74,23.21Z"></path><path class="cls-1" d="M48.83,39.42H55v3.07H45.62V26.21h3.21Z"></path><path class="cls-1" d="M64.87,30.86h3V42.5h-3V41.13a4.59,4.59,0,0,1-3.8,1.7,5.29,5.29,0,0,1-4-1.78,6.57,6.57,0,0,1,0-8.73,5.29,5.29,0,0,1,4-1.78,4.59,4.59,0,0,1,3.8,1.7Zm-5.54,8.19a3.13,3.13,0,0,0,2.31.92A3.17,3.17,0,0,0,64,39.05a3.49,3.49,0,0,0,0-4.73,3.17,3.17,0,0,0-2.32-.92,3.09,3.09,0,0,0-2.31.92A3.51,3.51,0,0,0,59.33,39.05Z"></path><path class="cls-1" d="M77.37,30.54a5.25,5.25,0,0,1,4,1.78,6.54,6.54,0,0,1,0,8.73,5.25,5.25,0,0,1-4,1.78,4.5,4.5,0,0,1-3.77-1.7V42.5h-3V26.21h3v6A4.5,4.5,0,0,1,77.37,30.54Zm-2.86,8.51a3.1,3.1,0,0,0,2.31.92,3.17,3.17,0,0,0,2.32-.92,3.51,3.51,0,0,0,0-4.73,3.17,3.17,0,0,0-2.32-.92,3.06,3.06,0,0,0-2.31.92A3.51,3.51,0,0,0,74.51,39.05Z"></path><path class="cls-1" d="M87.7,37.92c.41,1.46,1.5,2.19,3.29,2.19A3.06,3.06,0,0,0,93.59,39L96,40.34a5.78,5.78,0,0,1-5.07,2.5A6.28,6.28,0,0,1,86.3,41.1a6.16,6.16,0,0,1,4.43-10.55A5.56,5.56,0,0,1,95,32.32a6.18,6.18,0,0,1,1.67,4.38,7.22,7.22,0,0,1-.12,1.23Zm0-2.32h5.93a2.79,2.79,0,0,0-1.06-1.77,3.06,3.06,0,0,0-1.82-.58,3.22,3.22,0,0,0-2,.62,2.94,2.94,0,0,0-1,1.72Z"></path><path class="cls-1" d="M98.34,42.5V26.21h3V42.5Z"></path><path class="cls-1" d="M17.76,38.61l-4-4,5-5L17.47,26,6.06,37.36,7.38,41l3.9-3.9,5.24,5.24a1.74,1.74,0,0,0,1.91.37,1.61,1.61,0,0,0,.56-.37L30.85,30.45l-3.6-1.33Z"></path><path class="cls-1" d="M16.34,22.85l-.5-1.38L8.23,29.09l-4-4L13.7,15.6l-.2-.54h0l-.08-.25h0l-1-2.85L1,23.38H1l-.46.46,0,0a1.75,1.75,0,0,0,0,2.44l5.25,5.25L4.43,32.89l1.31,3.6,0,0,11.4-11.4Z"></path><path class="cls-1" d="M34.57,6.59H18.48l-.62.12a1.64,1.64,0,0,0-.61.39l-3.19,3.19,1.32,3.62,3.83-3.82H32.75V23.62l-3.82,3.82,3.63,1.32,3.18-3.19a1.73,1.73,0,0,0,.51-1.24V8.24a1.73,1.73,0,0,0-1.66-1.65Z"></path><path class="cls-1" d="M27,15.88l-.34-.34a.89.89,0,0,0-.66-.26,1.82,1.82,0,0,0-1.48,3.07l.34.35a.9.9,0,0,0,.66.25A1.82,1.82,0,0,0,27,15.88Z"></path></svg> 