<?xml version="1.0" encoding="UTF-8"?> <svg xmlns="http://www.w3.org/2000/svg" viewBox="0 0 50 50"><defs><style>.cls-1{fill:#ffd9d8;}.cls-2{fill:#afcaf4;}.cls-3{fill:#fff;}.cls-4{fill:#a5efae;}.cls-5{fill:#1c2b3a;}.cls-6{fill:#ffd983;}</style></defs><g id="Layer_7" data-name="Layer 7"><path class="cls-1" d="M30.73,8a3.45,3.45,0,0,1,4.74,1.27l14.2,24.69a2.25,2.25,0,0,1-1.92,3.41H4a4,4,0,0,1-4-4V28.74a5.19,5.19,0,0,1,2.65-4.53Z"></path><path class="cls-2" d="M40.63,16.78A3.77,3.77,0,1,1,44.4,13,3.78,3.78,0,0,1,40.63,16.78Z"></path><path class="cls-3" d="M40.63,9.64A3.37,3.37,0,1,1,37.25,13a3.37,3.37,0,0,1,3.38-3.37m0-.8A4.17,4.17,0,1,0,44.8,13a4.18,4.18,0,0,0-4.17-4.17Z"></path><path class="cls-4" d="M10.16,42.12a.3.3,0,0,1-.13,0l-5.69-2a.4.4,0,0,1-.27-.38l.14-6a.41.41,0,0,1,.29-.37l5.78-1.73.11,0a.39.39,0,0,1,.33.17l3.43,5a.39.39,0,0,1,0,.47L10.48,42A.39.39,0,0,1,10.16,42.12Z"></path><path class="cls-3" d="M10.39,32l3.44,5-3.67,4.8-5.69-2,.14-6L10.39,32m0-.8a.57.57,0,0,0-.22,0L4.38,32.93a.79.79,0,0,0-.57.74l-.14,6a.81.81,0,0,0,.53.77l5.7,2a.82.82,0,0,0,.26,0,.81.81,0,0,0,.64-.31l3.66-4.8a.8.8,0,0,0,0-.94l-3.43-5a.8.8,0,0,0-.66-.35Z"></path><g id="Page-1"><g id="_013---Creative-Idea" data-name="013---Creative-Idea"><path id="Shape" class="cls-5" d="M24.25,6.18c-.09,0-2.3,0-3,2.83a.75.75,0,0,0,.54.91.62.62,0,0,0,.19,0,.76.76,0,0,0,.73-.57c.4-1.61,1.39-1.69,1.52-1.69h0a.75.75,0,1,0,0-1.5Z"></path><path id="Shape-2" data-name="Shape" class="cls-5" d="M32.49,2.41a.83.83,0,0,0-.81.69,3.69,3.69,0,0,1-.54,1.35,8.26,8.26,0,0,0-13.69,6.34,10.16,10.16,0,0,0,.48,3,16.8,16.8,0,0,0,.75,1.86c.19.42.38.84.54,1.27a20.47,20.47,0,0,1,.88,3.15c0,.28.36,2.8.37,3.31,0,0,0,.08,0,.12V37.8a.72.72,0,0,0,.06.29L24,46.36a1.82,1.82,0,0,0,1.71,1.23,1.79,1.79,0,0,0,1.69-1.18l3.52-8.32A.72.72,0,0,0,31,37.8V23.49a.49.49,0,0,0,0-.12c0-.51.33-3,.38-3.32a18.6,18.6,0,0,1,.87-3.13c.16-.44.35-.86.54-1.28a16.85,16.85,0,0,0,.76-1.86,9.83,9.83,0,0,0,.47-3,8.21,8.21,0,0,0-.12-1.41,3.66,3.66,0,0,1,.46-.58,3.73,3.73,0,0,1,2-1,.82.82,0,0,0,0-1.62,3.81,3.81,0,0,1-3-3A.84.84,0,0,0,32.49,2.41ZM24.94,19.25l-1.85-5.54,2.35.47a1.47,1.47,0,0,0,.59,0l2.34-.47-1.85,5.54a1,1,0,0,0,0,.24v3.25H25V19.49A.67.67,0,0,0,24.94,19.25Zm4.56,5v2.26H22V24.25ZM27.62,42.08a3.71,3.71,0,0,0-3.78,0l-1.49-3.53h6.76Zm.37-5V31.78a.76.76,0,1,0-1.51,0v5.27H25v-.76a.76.76,0,0,0-1.51,0v.76H22V28h1.5v5.27a.76.76,0,0,0,1.51,0V28h1.5v.75a.76.76,0,1,0,1.51,0V28H29.5v9Zm-2,8.83a.3.3,0,0,1-.31.2.31.31,0,0,1-.27-.26l-1-2.34a2.22,2.22,0,0,1,2.58,0ZM32.1,13.33A16.62,16.62,0,0,1,31.41,15c-.2.45-.41.91-.58,1.37a20.81,20.81,0,0,0-.94,3.37,27.25,27.25,0,0,0-.37,3H28V19.61l1.81-5.43a1.51,1.51,0,0,0-.3-1.47,1.54,1.54,0,0,0-1.43-.48l-2.34.47-2.34-.47a1.54,1.54,0,0,0-1.43.48,1.51,1.51,0,0,0-.3,1.47l1.81,5.43v3.13H21.94a27.07,27.07,0,0,0-.37-3,20.92,20.92,0,0,0-.94-3.38c-.17-.47-.38-.92-.58-1.37a16.62,16.62,0,0,1-.69-1.69,8.43,8.43,0,0,1-.4-2.54,6.83,6.83,0,0,1,6.77-6.87,6.69,6.69,0,0,1,4.36,1.61,3.71,3.71,0,0,1-1.45.61.82.82,0,0,0,0,1.62,3.78,3.78,0,0,1,3,3,.82.82,0,0,0,.79.68A8.92,8.92,0,0,1,32.1,13.33Zm1.19-5.59a4.87,4.87,0,0,0-.8,1,5.12,5.12,0,0,0-.79-1,4.87,4.87,0,0,0-1-.8,5.2,5.2,0,0,0,1-.83h0a5,5,0,0,0,.75-1,5.5,5.5,0,0,0,.79,1,5.18,5.18,0,0,0,1,.79,5.12,5.12,0,0,0-1,.79Z"></path><path id="Shape-3" data-name="Shape" class="cls-5" d="M14.44,15.21a.76.76,0,0,0-1.51,0v1.51a.76.76,0,0,0,1.51,0Z"></path><path id="Shape-4" data-name="Shape" class="cls-5" d="M12.18,17.47H10.67a.76.76,0,0,0,0,1.51h1.51a.76.76,0,0,0,0-1.51Z"></path><path id="Shape-5" data-name="Shape" class="cls-5" d="M13.69,22a.76.76,0,0,0,.75-.75V19.73a.76.76,0,0,0-1.51,0v1.51A.76.76,0,0,0,13.69,22Z"></path><path id="Shape-6" data-name="Shape" class="cls-5" d="M15.19,19H16.7a.76.76,0,0,0,0-1.51H15.19a.76.76,0,0,0,0,1.51Z"></path><path id="Shape-7" data-name="Shape" class="cls-5" d="M39.06,20.08a.75.75,0,0,0-1.06,0l-1.07,1.06a.77.77,0,0,0-.2.74.73.73,0,0,0,.54.53.74.74,0,0,0,.73-.2l1.06-1.07A.74.74,0,0,0,39.06,20.08Z"></path><path id="Shape-8" data-name="Shape" class="cls-5" d="M35.87,21.14,34.8,20.08a.75.75,0,0,0-1.06,1.06l1.06,1.07a.76.76,0,0,0,1.07-1.07Z"></path><path id="Shape-9" data-name="Shape" class="cls-5" d="M34.8,23.27l-1.06,1.07a.74.74,0,0,0-.21.73.77.77,0,0,0,.54.54.74.74,0,0,0,.73-.21l1.07-1.06a.76.76,0,0,0-1.07-1.07Z"></path><path id="Shape-10" data-name="Shape" class="cls-5" d="M38,23.27a.76.76,0,0,0-1.07,1.07L38,25.4a.73.73,0,0,0,1,0,.74.74,0,0,0,0-1.05Z"></path></g></g><path class="cls-6" d="M40.3,46.29l4.92-2.75a.37.37,0,0,0,0-.65l-5.18-3.06a.38.38,0,0,0-.57.34L39.75,46A.37.37,0,0,0,40.3,46.29Z"></path></g></svg> 