<?xml version="1.0" encoding="UTF-8"?> <svg xmlns="http://www.w3.org/2000/svg" id="Layer_1" data-name="Layer 1" viewBox="0 0 905.6 274"><defs><style>.cls-1{fill:#001021;}.cls-2{fill:#0f5fdf;}</style></defs><path class="cls-1" d="M213.3,184.66V92.37H238a8.86,8.86,0,0,1,8.85,8.86v92.28H222.15A8.85,8.85,0,0,1,213.3,184.66Z"></path><path class="cls-1" d="M338.5,92.37h24.32a8.86,8.86,0,0,1,8.86,8.86v88.24A48.91,48.91,0,0,1,367.13,211a39.24,39.24,0,0,1-12.24,15A55.84,55.84,0,0,1,338,234.27,68.31,68.31,0,0,1,318.48,237q-16.78,0-29.94-6.27a43.15,43.15,0,0,1-19.82-18.41l21.42-12.42a8.84,8.84,0,0,1,10.57,1.29q6.75,6.48,17.37,6.48,9.09,0,14.76-4.65t5.66-13.55v-9.71Q328.2,192.3,310.19,192.3q-20.83,0-34.49-15t-13.65-36.41q0-21.43,13.65-36.41t34.49-15q18,0,28.31,12.54ZM301.59,156q6,6,15.47,6t15.48-6a22,22,0,0,0,0-30.14q-6-6-15.48-6t-15.47,6a22,22,0,0,0,0,30.14Z"></path><path class="cls-1" d="M391.1,184.66V92.37h24.72a8.86,8.86,0,0,1,8.85,8.86v92.28H400A8.85,8.85,0,0,1,391.1,184.66Z"></path><path class="cls-1" d="M501.13,68.3q-17.4-1.22-17.39,12.34h17.39V104a8.85,8.85,0,0,1-8.85,8.85h-8.54v78H450.16v-78H437.41V89.5a8.86,8.86,0,0,1,8.86-8.86h3.89q0-21.84,12.84-33.37t38.13-10.12Z"></path><path class="cls-1" d="M510.84,184.81V37h24.72a8.85,8.85,0,0,1,8.85,8.85V193.66H519.69A8.85,8.85,0,0,1,510.84,184.81Z"></path><path class="cls-2" d="M612.78,143.8q-22.44,0-38.23-15.47T558.78,90.4q0-22.45,15.77-37.93T612.78,37q22.65,0,38.33,15.47T666.79,90.4q0,22.46-15.68,37.93T612.78,143.8Zm0-32.36a19.69,19.69,0,0,0,14.67-5.87q5.76-5.86,5.76-15.17t-5.76-15.17a19.69,19.69,0,0,0-14.67-5.87,19.43,19.43,0,0,0-14.46,5.87q-5.76,5.86-5.76,15.17t5.76,15.17A19.43,19.43,0,0,0,612.78,111.44Z"></path><path class="cls-1" d="M753,92.37h24.72a8.86,8.86,0,0,1,8.86,8.86v92.28H761.81a8.85,8.85,0,0,1-8.85-8.85v-.45q-10.32,12.14-28.73,12.13-20.22,0-33.88-15.27T676.7,142.94q0-22.84,13.65-38.13t33.88-15.27q18.4,0,28.73,12.14Zm-36.61,66.55q5.86,6.08,15.37,6.07t15.37-6.07q5.86-6.06,5.87-16t-5.87-16q-5.87-6.06-15.37-6.07T716.35,127q-5.88,6.08-5.87,16T716.35,158.92Z"></path><path class="cls-1" d="M859.8,124.54H847.62v29.33q0,6.66,4.85,8.29t16.19,1v30.34q-30.15,3.65-42.38-5.56T814,154.67V124.54H798.87V101.23a8.86,8.86,0,0,1,8.86-8.86H814V74.17l33.58-10.11V92.37h21v23.31A8.86,8.86,0,0,1,859.8,124.54Z"></path><path class="cls-1" d="M73.89,55.47A18.47,18.47,0,0,1,56,73.93h0l-.61,0-.62,0h0a18.15,18.15,0,0,1-5.45-1A18.48,18.48,0,1,1,73.89,55.47Z"></path><path class="cls-1" d="M248.56,55.47A18.47,18.47,0,0,1,230.7,73.93h0l-.61,0-.62,0h0a18.15,18.15,0,0,1-5.45-1,18.48,18.48,0,1,1,24.54-17.45Z"></path><path class="cls-1" d="M426.36,55.47A18.47,18.47,0,0,1,408.5,73.93h0l-.62,0-.61,0h0a18.15,18.15,0,0,1-5.45-1,18.48,18.48,0,1,1,24.54-17.45Z"></path><path class="cls-1" d="M115.84,73.94h0Z"></path><path class="cls-1" d="M193.39,115.2a78.16,78.16,0,0,1-78.22,78.21H36.94V96.71H54.51l.46,0h.89a18.46,18.46,0,0,1,18,18.46v41.26H116a41.27,41.27,0,0,0-.18-82.52h-1.3A18.46,18.46,0,0,1,96.73,55.48V37h18.44A78.21,78.21,0,0,1,193.39,115.2Z"></path></svg> 