<?xml version="1.0" encoding="UTF-8"?> <svg xmlns="http://www.w3.org/2000/svg" viewBox="0 0 50 50"><defs><style>.cls-1{fill:#e4edfb;}.cls-2{fill:#ffd9d8;}.cls-3{fill:#a5efae;}.cls-4{fill:#fff;}.cls-5{fill:#1c2b3a;}</style></defs><g id="Layer_7" data-name="Layer 7"><path class="cls-1" d="M4.76,20.33l-.24,26a3.62,3.62,0,0,0,5.38,3.2L43,31.1a4.6,4.6,0,0,0,1.76-6.27L32,2.32a4.59,4.59,0,0,0-6.94-1.24L6.38,16.87A4.58,4.58,0,0,0,4.76,20.33Z"></path><path class="cls-2" d="M39.87,39.39,46,44a.51.51,0,0,0,.81-.35l.94-8.12A.51.51,0,0,0,47,35L40,38.53A.51.51,0,0,0,39.87,39.39Z"></path><path class="cls-3" d="M7,15.88a4.48,4.48,0,1,1,4.55-4.4A4.47,4.47,0,0,1,7,15.88Z"></path><path class="cls-4" d="M7.18,7.3a4.1,4.1,0,1,1-4.17,4,4.11,4.11,0,0,1,4.17-4m0-.75A4.86,4.86,0,1,0,12,11.48,4.85,4.85,0,0,0,7.19,6.55Z"></path><g id="Page-1"><g id="_035---Creative-Thinking" data-name="035---Creative-Thinking"><path id="Shape" class="cls-5" d="M40.55,35.47a9.74,9.74,0,0,0,.05-3.65L44,24h0a13.5,13.5,0,0,1,2.37-4,1.08,1.08,0,0,0,.28-1L45.4,13.21a.67.67,0,0,0-.07-.18,0,0,0,0,0,0,0l0-.05a.63.63,0,0,0-.1-.12l-.08-.05a.41.41,0,0,0-.11-.07.47.47,0,0,0-.17,0l0,0a.78.78,0,0,0-.4.08l0,0h0l-5.1,3.07a1,1,0,0,0-.52.87,13.56,13.56,0,0,1-1.28,4.44h0l-1.7,3.93a9.64,9.64,0,0,0-2.54-1,38.48,38.48,0,0,0,.49-7,7.83,7.83,0,0,0,1.87-5.7C35.18,7.2,31.46,4.12,31.3,4a.71.71,0,0,0-.83,0,.69.69,0,0,0-.31.77c.34,1.39,0,2.85-2.77,5.8a4.2,4.2,0,0,0-1.06,4.55,5.71,5.71,0,0,0,1,1.66c-.19,1.1-.34,2.14-.45,3.16A35.78,35.78,0,0,0,26.66,25a10,10,0,0,0-1.8,1.21L21.64,11.28s0,0,0,0a.78.78,0,0,0-.05-.14L18.14,4.5A1.66,1.66,0,0,0,15,5.18l-.39,7.43a.47.47,0,0,0,0,.16v0L17.93,28a8.49,8.49,0,0,0-1.66.22l-3.73-9.47a1.45,1.45,0,0,0-1.86-.79l-6,2.36a1.43,1.43,0,0,0-.8,1.86L9,35a5.72,5.72,0,0,0,.1,11.43l31.47.53a5.73,5.73,0,0,0,0-11.45ZM40.13,17l3-1.82-1.1,2.54a.71.71,0,0,0,1.31.57l1.1-2.54.74,3.45a14.23,14.23,0,0,0-2.13,3.39,2.94,2.94,0,0,1-4-1.72A14.1,14.1,0,0,0,40.13,17Zm-1.74,5.58a4.34,4.34,0,0,0,1.76,1.33,4.61,4.61,0,0,0,1.75.4,3.1,3.1,0,0,0,.43,0L40,29.71a9.7,9.7,0,0,0-3-3.85Zm-9.71-5.27,3.59.28c0,.67,0,1.36,0,2.06a14.81,14.81,0,0,1-3.58-.23l-.27,0c.08-.67.18-1.35.3-2.07Zm-.25-5.76c1.94-2.06,2.95-3.66,3.2-5.17a9.57,9.57,0,0,1,2.5,5.17,6.41,6.41,0,0,1-1.53,4.63l-4.18-.32a3,3,0,0,1,0-4.31Zm-.2,9.26.2,0a21.64,21.64,0,0,0,2.78.28l.93,0c-.09.92-.21,1.87-.36,2.87a4.73,4.73,0,0,0-.53,0,9.47,9.47,0,0,0-3.17.49,30.87,30.87,0,0,1,.15-3.6ZM22.56,29l-1.91-8.75a.71.71,0,0,0-1.39.3L21,28.45A9.43,9.43,0,0,0,19.41,28L16.5,14.59a3.34,3.34,0,0,0,1.39.33H18l.47,2.16a.7.7,0,0,0,.48.54.71.71,0,0,0,.92-.84l-.47-2.17a3.32,3.32,0,0,0,1.26-.93l3,13.7A9.12,9.12,0,0,0,22.56,29Zm-4.12-15.6a2.36,2.36,0,0,1-2.37-1l.13-2.52A4.78,4.78,0,0,0,17,10a3.61,3.61,0,0,0,.73-.07A3.65,3.65,0,0,0,19,9.3l1.17,2.24a2.39,2.39,0,0,1-1.75,1.9ZM16.62,5.05a.23.23,0,0,1,.25.11L18.35,8a2.29,2.29,0,0,1-1,.52,2.41,2.41,0,0,1-1.1-.07l.17-3.22A.21.21,0,0,1,16.62,5.05Zm-5.41,14.2.53,1.33L9.07,21.63A.72.72,0,0,0,9.32,23,.87.87,0,0,0,9.6,23l2.66-1.06.53,1.33-1.33.53a.71.71,0,0,0,.25,1.38.65.65,0,0,0,.27-.05l1.33-.52.53,1.33L11.17,27a.73.73,0,0,0-.44.79.71.71,0,0,0,.69.59.87.87,0,0,0,.28,0l2.66-1.05.56,1.41a8.3,8.3,0,0,0-4.73,5.55l-5-12.58ZM40.55,45.49,9.09,45a4.29,4.29,0,1,1,1.36-8.38.72.72,0,0,0,.93-.66,6.8,6.8,0,0,1,11-5.12.7.7,0,0,0,1.1-.3,8.23,8.23,0,0,1,15.48,5.57.71.71,0,0,0,.82.92,5,5,0,0,1,1-.09,4.3,4.3,0,0,1-.15,8.59Z"></path><path id="Shape-2" data-name="Shape" class="cls-5" d="M31.53,15.08a.72.72,0,0,0,.58-.28,5.37,5.37,0,0,0,1-4.19.72.72,0,1,0-1.39.34,4,4,0,0,1-.76,3,.75.75,0,0,0-.08.75.72.72,0,0,0,.64.4Z"></path><path id="Shape-3" data-name="Shape" class="cls-5" d="M30.23,36.73a3.56,3.56,0,0,0-1.54.33,4.29,4.29,0,0,0-7.48,4.09.72.72,0,0,0,.65.45.75.75,0,0,0,.67-.44.66.66,0,0,0,0-.55,3,3,0,0,1-.21-1.15,2.85,2.85,0,0,1,2.91-2.81,2.81,2.81,0,0,1,2.55,1.68l0,.07,0,.08,0,0,.11.1.12.07.13,0a.5.5,0,0,0,.13,0,1.26,1.26,0,0,0,.27,0l.06,0,.07,0,.07,0a2.11,2.11,0,0,1,1.34-.45,2.15,2.15,0,0,1,1.92,1.28.72.72,0,0,0,.94.37.71.71,0,0,0,.37-.94A3.56,3.56,0,0,0,30.23,36.73Z"></path><path id="Shape-4" data-name="Shape" class="cls-5" d="M16.24,31.53A3.88,3.88,0,0,0,13.54,35a.72.72,0,0,0,.71.73.71.71,0,0,0,.72-.7,2.48,2.48,0,0,1,1.7-2.16.72.72,0,1,0-.43-1.37Z"></path><path id="Shape-5" data-name="Shape" class="cls-5" d="M26.31,30.92a1.13,1.13,0,0,0,.18,0,.74.74,0,0,0,.7-.53,3.06,3.06,0,0,1,2.92-2.28.72.72,0,0,0,.73-.7.72.72,0,0,0-.71-.73A4.46,4.46,0,0,0,25.81,30,.71.71,0,0,0,26.31,30.92Z"></path></g></g></g></svg> 