<?xml version="1.0" encoding="UTF-8"?> <svg xmlns="http://www.w3.org/2000/svg" viewBox="0 0 50 50"><defs><style>.cls-1{fill:#7aa6ed;}.cls-2{fill:#fd6762;}.cls-3{fill:#1c2b3a;}</style></defs><g id="Layer_7" data-name="Layer 7"><polygon class="cls-1" points="42.69 1.34 30.83 4.88 30.54 17.26 42.22 21.36 49.73 11.52 42.69 1.34"></polygon><rect class="cls-2" x="1.34" y="38.58" width="9.81" height="9.81" rx="2" transform="matrix(0.87, 0.5, -0.5, 0.87, 22.58, 2.71)"></rect><path class="cls-3" d="M34.49,5.86a1,1,0,1,0,1,1A1,1,0,0,0,34.49,5.86Z"></path><path class="cls-3" d="M30.58,5.86H15a1,1,0,1,0,0,1.95H30.58a1,1,0,1,0,0-1.95Z"></path><path class="cls-3" d="M44.25,42.19H41.32V34.76a1,1,0,0,0-1-1H33.51V30.86a1,1,0,0,0-1-1H25.7v-4.2h6.84a1,1,0,0,0,1-1V18.85a1,1,0,0,0-1-1H25.7v-4.2H38.4a2.93,2.93,0,0,0,2.92-2.93V2.93A2.93,2.93,0,0,0,38.4,0H11.06A2.93,2.93,0,0,0,8.13,2.93v7.81a2.93,2.93,0,0,0,2.93,2.93H23.75v4.2H16.91a1,1,0,0,0-1,1v5.86a1,1,0,0,0,1,1h6.84v4.2H16.91a1,1,0,0,0-1,1v2.93H9.1a1,1,0,0,0-1,1v7.43H5.2a1,1,0,0,0-1,1V49a1,1,0,0,0,1,1H13a1,1,0,0,0,1-1V43.16a1,1,0,0,0-1-1H10.08V35.74h5.86v1a1,1,0,0,0,1,1h6.84v4.5H20.82a1,1,0,0,0-1,1V49a1,1,0,0,0,1,1h7.81a1,1,0,0,0,1-1V43.16a1,1,0,0,0-1-1H25.7v-4.5h6.84a1,1,0,0,0,1-1v-1h5.86v6.45H36.44a1,1,0,0,0-1,1V49a1,1,0,0,0,1,1h7.81a1,1,0,0,0,1-1V43.16A1,1,0,0,0,44.25,42.19ZM12,44.14V48H6.17v-3.9Zm-1-32.42a1,1,0,0,1-1-1V2.93a1,1,0,0,1,1-1H38.4a1,1,0,0,1,1,1v7.81a1,1,0,0,1-1,1Zm6.83,12V19.82H31.56v3.91Zm9.76,20.41V48H21.8v-3.9Zm3.91-8.4H17.89v-3.9H31.56ZM43.28,48H37.42v-3.9h5.86Z"></path></g></svg> 