<?xml version="1.0" encoding="UTF-8"?> <svg xmlns="http://www.w3.org/2000/svg" xmlns:xlink="http://www.w3.org/1999/xlink" id="Layer_1" data-name="Layer 1" viewBox="0 0 1350 300"><defs><style>.cls-1,.cls-11,.cls-12,.cls-13,.cls-4,.cls-6,.cls-7,.cls-8,.cls-9{fill:none;}.cls-2{fill:#0f5fdf;}.cls-3{clip-path:url(#clip-path);}.cls-11,.cls-13,.cls-4,.cls-7,.cls-8,.cls-9{stroke:#ffaf00;}.cls-4,.cls-6,.cls-7{stroke-width:4.17px;}.cls-5{fill:#010101;}.cls-12,.cls-6{stroke:#010101;}.cls-11,.cls-12,.cls-6,.cls-7,.cls-9{stroke-linecap:round;stroke-linejoin:round;}.cls-8{stroke-width:3.46px;}.cls-9{stroke-width:2.08px;}.cls-10{fill:#ffaf00;}.cls-11{stroke-width:31.25px;}.cls-12{stroke-width:4.76px;}.cls-13{stroke-width:3.69px;}</style><clipPath id="clip-path"><rect class="cls-1" width="1350" height="300"></rect></clipPath></defs><rect class="cls-2" width="1350" height="300"></rect><g class="cls-3"><path id="Path_30" data-name="Path 30" class="cls-4" d="M995.75,251h106.92a3.07,3.07,0,0,1,3.06,3.07V360.93a3.06,3.06,0,0,1-3.06,3.06H995.75a3.06,3.06,0,0,1-3.06-3.06V254A3.07,3.07,0,0,1,995.75,251Z"></path><path id="Path_31" data-name="Path 31" class="cls-5" d="M1115.46,387.9a1.77,1.77,0,1,1,1.77,1.77A1.77,1.77,0,0,1,1115.46,387.9Zm-27.73,0a1.77,1.77,0,1,1,1.77,1.77A1.78,1.78,0,0,1,1087.73,387.9Zm-27.72,0a1.77,1.77,0,1,1,1.77,1.77A1.77,1.77,0,0,1,1060,387.9Zm-27.73,0a1.77,1.77,0,1,1,1.77,1.77A1.77,1.77,0,0,1,1032.28,387.9Zm-27.73,0a1.77,1.77,0,1,1,1.77,1.77A1.77,1.77,0,0,1,1004.55,387.9Zm110.91-24.77a1.77,1.77,0,1,1,1.77,1.76A1.77,1.77,0,0,1,1115.46,363.13Zm-27.73,0a1.77,1.77,0,1,1,1.77,1.76A1.77,1.77,0,0,1,1087.73,363.13Zm-27.72,0a1.77,1.77,0,1,1,1.77,1.76A1.77,1.77,0,0,1,1060,363.13Zm-27.73,0a1.77,1.77,0,1,1,1.77,1.76A1.77,1.77,0,0,1,1032.28,363.13Zm-27.73,0a1.77,1.77,0,1,1,1.77,1.76A1.77,1.77,0,0,1,1004.55,363.13Zm110.91-24.78a1.77,1.77,0,1,1,1.77,1.77A1.77,1.77,0,0,1,1115.46,338.35Zm-27.73,0a1.77,1.77,0,1,1,1.77,1.77A1.77,1.77,0,0,1,1087.73,338.35Zm-27.72,0a1.77,1.77,0,1,1,1.77,1.77A1.77,1.77,0,0,1,1060,338.35Zm-27.73,0a1.77,1.77,0,1,1,1.77,1.77A1.77,1.77,0,0,1,1032.28,338.35Zm-27.73,0a1.77,1.77,0,1,1,1.77,1.77A1.77,1.77,0,0,1,1004.55,338.35Zm110.91-24.78a1.77,1.77,0,1,1,1.77,1.77A1.77,1.77,0,0,1,1115.46,313.57Zm-27.73,0a1.77,1.77,0,1,1,1.77,1.77A1.77,1.77,0,0,1,1087.73,313.57Zm-27.72,0a1.77,1.77,0,1,1,1.77,1.77A1.77,1.77,0,0,1,1060,313.57Zm-27.73,0a1.77,1.77,0,1,1,1.77,1.77A1.77,1.77,0,0,1,1032.28,313.57Zm-27.73,0a1.77,1.77,0,1,1,1.77,1.77A1.77,1.77,0,0,1,1004.55,313.57Zm110.91-24.78a1.77,1.77,0,1,1,1.77,1.77A1.77,1.77,0,0,1,1115.46,288.79Zm-27.73,0a1.77,1.77,0,1,1,1.77,1.77A1.78,1.78,0,0,1,1087.73,288.79Zm-27.72,0a1.77,1.77,0,1,1,1.77,1.77A1.77,1.77,0,0,1,1060,288.79Zm-27.73,0a1.77,1.77,0,1,1,1.77,1.77A1.77,1.77,0,0,1,1032.28,288.79Zm-27.73,0a1.77,1.77,0,1,1,1.77,1.77A1.77,1.77,0,0,1,1004.55,288.79ZM1115.46,264a1.77,1.77,0,1,1,1.77,1.77A1.77,1.77,0,0,1,1115.46,264Zm-27.73,0a1.77,1.77,0,1,1,1.77,1.77A1.78,1.78,0,0,1,1087.73,264ZM1060,264a1.77,1.77,0,1,1,1.77,1.77A1.77,1.77,0,0,1,1060,264Zm-27.73,0a1.77,1.77,0,1,1,1.77,1.77A1.77,1.77,0,0,1,1032.28,264Zm-27.73,0a1.77,1.77,0,1,1,1.77,1.77A1.77,1.77,0,0,1,1004.55,264Z"></path><path id="Path_32" data-name="Path 32" class="cls-6" d="M207.56,22.71l59.11,41.68,59.14-41.65m-354.7-.11,59.1,41.68L89.33,22.67l59.11,41.68M-147.11,22.59-88,64.27"></path><path id="Path_33" data-name="Path 33" class="cls-7" d="M148.45,26.85l59.13-41.64,59.11,41.68,59.13-41.65m-472.92-.15L-88,26.77l59.12-41.64,59.1,41.68L89.35-14.83"></path><path id="Path_34" data-name="Path 34" class="cls-6" d="M1267.7,152.25l59.11,41.67,59.11-41.67L1445,193.92l59.11-41.67,59.12,41.67,59.11-41.67,59.13,41.67,59.12-41.67"></path><path id="Path_35" data-name="Path 35" class="cls-7" d="M1267.7,114.75l59.11,41.67,59.11-41.67L1445,156.42l59.11-41.67,59.12,41.67,59.11-41.67,59.13,41.67,59.12-41.67"></path><path id="Path_41" data-name="Path 41" class="cls-8" d="M320.52,315.55,270.4,365.67a2,2,0,0,1-2.87,0l-50.12-50.12a2,2,0,0,1,0-2.87l50.12-50.12a2,2,0,0,1,2.87,0l50.12,50.12A2,2,0,0,1,320.52,315.55Z"></path><path id="Path_42" data-name="Path 42" class="cls-5" d="M294.86,318.52,273.37,340a6.23,6.23,0,0,1-8.81,0l-21.49-21.49a6.23,6.23,0,0,1,0-8.81l21.49-21.49a6.23,6.23,0,0,1,8.81,0l21.49,21.49A6.23,6.23,0,0,1,294.86,318.52Z"></path><path id="Path_56" data-name="Path 56" class="cls-5" d="M550.37,16.19,533.72,32.85,517.06,16.19,504,29.25l16.66,16.66L504,62.57l13.07,13.06L533.72,59l16.65,16.65,13.07-13.06L546.78,45.91l16.66-16.66Z"></path><path id="Path_57" data-name="Path 57" class="cls-9" d="M548.22,3.56,531.56,20.22,514.9,3.56,501.84,16.63,518.5,33.29,498.71,47.86l13.07,13.07,19.78-14.58L548.22,63l13.06-13.07L544.62,33.29l16.66-16.66Z"></path><path id="Path_58" data-name="Path 58" class="cls-10" d="M703.21,352.82l-84.84-75.36,8.25,121.11Z"></path><path id="Path_59" data-name="Path 59" class="cls-6" d="M719.27,325.14,629,256.39l17.36,120.14ZM629,256.39c1.39,1.73,44.79,71.18,44.79,71.18l-27.43,49Zm90.28,68.75-45.49,2.43L629,256.39Z"></path><path id="Path_60" data-name="Path 60" class="cls-10" d="M1217-13.77l110-27.79L1263.92,62.11Z"></path><path id="Path_61" data-name="Path 61" class="cls-6" d="M1215.53-45.74l111.8-19.42-70.76,98.62Zm111.8-19.42c-2,.9-72.55,42.53-72.55,42.53l1.79,56.09Zm-111.8,19.42,39.25,23.11,72.55-42.53Z"></path><path id="Path_68" data-name="Path 68" class="cls-11" d="M855.43-8.56a37,37,0,0,1-37,36.91,37,37,0,0,1-36.91-37"></path><path class="cls-10" d="M5,138.67a3.73,3.73,0,1,1,.45,0A3.4,3.4,0,0,1,5,138.67Z"></path><path class="cls-10" d="M28,147.31a3.77,3.77,0,1,1,2.12.66A3.71,3.71,0,0,1,28,147.31Z"></path><path class="cls-10" d="M44.37,165.66a3.76,3.76,0,1,1,5.09,1.57,3.72,3.72,0,0,1-1.75.44A3.77,3.77,0,0,1,44.37,165.66Z"></path><path class="cls-10" d="M50.34,189.72v-.2a3.76,3.76,0,0,1,7.52,0v.23a3.76,3.76,0,0,1-7.52,0Z"></path><path class="cls-10" d="M46.05,218.68a3.76,3.76,0,1,1,1.74.43A3.73,3.73,0,0,1,46.05,218.68Z"></path><path class="cls-10" d="M27.21,237.25a3.76,3.76,0,1,1,5.24.95,3.84,3.84,0,0,1-2.15.67A3.76,3.76,0,0,1,27.21,237.25Z"></path><path class="cls-10" d="M1.91,244.94a3.76,3.76,0,1,1,4.19,3.28l-.47,0A3.75,3.75,0,0,1,1.91,244.94Z"></path><path class="cls-10" d="M3.89,148a3.08,3.08,0,1,1,.35,0A2.06,2.06,0,0,1,3.89,148Z"></path><path class="cls-10" d="M22.71,155a3.07,3.07,0,1,1,4.29-.8,3.11,3.11,0,0,1-2.55,1.34A3,3,0,0,1,22.71,155Z"></path><path class="cls-10" d="M36.11,170a3.07,3.07,0,1,1,2.72,1.64A3.08,3.08,0,0,1,36.11,170Z"></path><path class="cls-10" d="M41,189.72h0v-.05s0-.07,0-.11a3.08,3.08,0,1,1,6.15,0v.18a3.08,3.08,0,1,1-6.15,0Z"></path><path class="cls-10" d="M37.49,213.42a3.07,3.07,0,1,1,1.43.35A3,3,0,0,1,37.49,213.42Z"></path><path class="cls-10" d="M22.07,228.61a3.08,3.08,0,1,1,4.29.78,3.19,3.19,0,0,1-1.76.54A3.09,3.09,0,0,1,22.07,228.61Z"></path><path class="cls-10" d="M1.37,234.89a3.08,3.08,0,1,1,3.42,2.69,2.3,2.3,0,0,1-.37,0A3.08,3.08,0,0,1,1.37,234.89Z"></path><path class="cls-10" d="M3,155.89a2.51,2.51,0,0,1-2.19-2.78,2.48,2.48,0,0,1,2.77-2.17,2.49,2.49,0,0,1-.29,5Z"></path><path class="cls-10" d="M18.19,161.61A2.49,2.49,0,0,1,21,157.5a2.49,2.49,0,0,1-1.4,4.55A2.58,2.58,0,0,1,18.19,161.61Z"></path><path class="cls-10" d="M29.06,173.77a2.49,2.49,0,0,1,4.4-2.33,2.47,2.47,0,0,1-2.2,3.66A2.46,2.46,0,0,1,29.06,173.77Z"></path><path class="cls-10" d="M33,189.72v-.13a2.5,2.5,0,0,1,5,0s0,.05,0,.08,0,0,0,.07a2.5,2.5,0,1,1-5,0Z"></path><path class="cls-10" d="M30.17,208.92a2.51,2.51,0,1,1,1.15.28A2.63,2.63,0,0,1,30.17,208.92Z"></path><path class="cls-10" d="M17.68,221.23a2.51,2.51,0,1,1,2,1.06A2.45,2.45,0,0,1,17.68,221.23Z"></path><path class="cls-10" d="M.91,226.32a2.47,2.47,0,0,1,2.16-2.77,2.49,2.49,0,1,1,.61,4.95h-.3A2.49,2.49,0,0,1,.91,226.32Z"></path><path id="Path_100" data-name="Path 100" class="cls-10" d="M-14.92-364.85a6.8,6.8,0,0,1-9.61.38,6.79,6.79,0,0,1-.38-9.6,6.8,6.8,0,0,1,9.61-.39A6.8,6.8,0,0,1-14.92-364.85Zm53.69.45a6.8,6.8,0,0,1-9.61.38,6.79,6.79,0,0,1-.38-9.6,6.8,6.8,0,0,1,9.61-.39A6.8,6.8,0,0,1,38.77-364.4Zm29.21,27a6.8,6.8,0,0,1-9.61.38,6.8,6.8,0,0,1-.38-9.61A6.8,6.8,0,0,1,67.6-347,6.8,6.8,0,0,1,68-337.43Zm804.34,975a6.8,6.8,0,1,1-.56-9.6A6.8,6.8,0,0,1,872.32,637.54Z"></path><path id="Path_119" data-name="Path 119" class="cls-12" d="M101.42,259.06a9.73,9.73,0,1,1-9.73-9.73A9.73,9.73,0,0,1,101.42,259.06Z"></path><path id="Path_120" data-name="Path 120" class="cls-10" d="M107.84,265.48a9.72,9.72,0,1,1-9.72-9.72A9.72,9.72,0,0,1,107.84,265.48Z"></path><path id="Path_124" data-name="Path 124" class="cls-10" d="M1297.13,292.47a28.54,28.54,0,0,1,0,40.62l-41-40.62A29.19,29.19,0,0,1,1297.13,292.47Z"></path><path id="Path_125" data-name="Path 125" class="cls-13" d="M1223,311.48a28.53,28.53,0,0,1,0-40.61l41,40.62A29.2,29.2,0,0,1,1223,311.48Z"></path></g></svg> 