<?xml version="1.0" encoding="UTF-8"?> <svg xmlns="http://www.w3.org/2000/svg" viewBox="0 0 50 50"><defs><style>.cls-1{fill:#d2f7d7;}.cls-2{fill:#afcaf4;}.cls-3{fill:#ffd9d8;}.cls-4{fill:#fff;}.cls-5{fill:#1c2b3a;}</style></defs><g id="Layer_7" data-name="Layer 7"><path class="cls-1" d="M22.5,5.82,48.75,27.53a3.64,3.64,0,0,1-.54,6L22,48.17a.66.66,0,0,1-.9-.23L.18,14.59a.68.68,0,0,1,.19-.92L12.62,5.35A8.23,8.23,0,0,1,22.5,5.82Z"></path><rect class="cls-2" x="40.27" y="41.67" width="6.22" height="6.22" rx="2" transform="translate(28.2 -15.69) rotate(30)"></rect><circle class="cls-3" cx="5.6" cy="6.17" r="4.09"></circle><path class="cls-4" d="M5.6,2.46A3.72,3.72,0,1,1,1.88,6.17,3.71,3.71,0,0,1,5.6,2.46m0-.75a4.47,4.47,0,1,0,4.46,4.46A4.47,4.47,0,0,0,5.6,1.71Z"></path><path class="cls-5" d="M45.21,4.84v14l-1.34-.67V4.84H42.53V18.27l-.67.5-.67-.5V4.84H39.84V18.19l-1.34.67v-14H37.16v15.3l4.7,7.44,4.7-7.44V4.84ZM41.86,25.07,40.53,23h2.65ZM44,21.63H39.68l-.89-1.41,1.66-.83,1.41,1.06,1.41-1.06,1.65.83Z"></path><path class="cls-5" d="M22.54,19.61,20.19,29H30l-2.35-9.4Zm-.63,8.06L23.59,21h3l1.68,6.71Z"></path><path class="cls-5" d="M29.77,13.47V8.87h2.69V7.53H29.77V4.84H28.43V7.53H21.72V4.84H20.38V7.53H17.69V8.87h2.69v4.6l-2,6.14H9V16.93H7.62v2.68h-4V21h4v6.71h-4V29h4V31.7H9V29h6.37L11,42.44H7.62v1.34h2.92l-1,3.15,1.28.41L12,43.78h4.17L15.22,47l1.29.37,1-3.54h3.52V42.44H17.91l2.3-8.06h9.73l2.3,8.06H29.1v1.34h3.52l1,3.54L34.93,47,34,43.78h4.17l1.16,3.56,1.28-.41-1-3.15h2.92V42.44H39.17Zm-8-4.6h6.71v4H21.72ZM9,27.67V21h9l-2.18,6.71Zm7.55,14.77H12.39l1.09-3.36h4Zm15.78-4.7L31,33H19.2l-1.34,4.7H13.91l7.63-23.5h7.07l7.62,23.5Zm1.35,4.7-1-3.36h4l1.09,3.36Z"></path></g></svg> 