<?xml version="1.0" encoding="UTF-8"?> <svg xmlns="http://www.w3.org/2000/svg" viewBox="0 0 50 50"><defs><style>.cls-1{fill:#78e886;}.cls-2{fill:#fe8d89;}.cls-3{fill:#1c2b3a;}</style></defs><g id="Layer_7" data-name="Layer 7"><circle class="cls-1" cx="41.2" cy="41.03" r="8.41"></circle><path class="cls-2" d="M1.51,18.14l16.56-.2A1.1,1.1,0,0,0,19,16.27L9.9,1.09A1.1,1.1,0,0,0,8,1.17L.5,16.55A1.11,1.11,0,0,0,1.51,18.14Z"></path><path class="cls-3" d="M42.88,21.18a1,1,0,1,0,1,1A1,1,0,0,0,42.88,21.18Z"></path><path class="cls-3" d="M26.92,11.57a1,1,0,1,0-1-1A1,1,0,0,0,26.92,11.57Z"></path><path class="cls-3" d="M46.73,15.41H33.65V6.76a2.88,2.88,0,0,0-2.88-2.88H3.27A2.88,2.88,0,0,0,.39,6.76V26a2.88,2.88,0,0,0,2.88,2.88H6.16v4.81a1,1,0,0,0,1.64.68l5.49-5.49h3.06v8.65a2.89,2.89,0,0,0,2.88,2.89H36.71l5.49,5.48a1,1,0,0,0,1.64-.68v-4.8h2.89a2.89,2.89,0,0,0,2.88-2.89V18.3A2.89,2.89,0,0,0,46.73,15.41ZM7.12,17.34h9.39a3,3,0,0,0-.16,1v2.88H7.12a1,1,0,1,0,0,1.92h9.23V27H12.89a1,1,0,0,0-.68.28L8.08,31.36V27.91a1,1,0,0,0-1-1H3.27a1,1,0,0,1-1-1V6.76a1,1,0,0,1,1-1h27.5a1,1,0,0,1,1,1v8.65H7.12a1,1,0,0,0,0,1.93ZM47.69,37.52a1,1,0,0,1-1,1H42.88a1,1,0,0,0-1,1v3.44l-4.13-4.12a1,1,0,0,0-.68-.28H19.23a1,1,0,0,1-1-1V18.3a1,1,0,0,1,1-1h27.5a1,1,0,0,1,1,1Z"></path><path class="cls-3" d="M7.12,11.57h16a1,1,0,1,0,0-1.92h-16a1,1,0,1,0,0,1.92Z"></path><path class="cls-3" d="M23.08,23.1H39a1,1,0,0,0,0-1.92h-16a1,1,0,0,0,0,1.92Z"></path><path class="cls-3" d="M42.88,27H23.08a1,1,0,0,0,0,1.92h19.8a1,1,0,0,0,0-1.92Z"></path><path class="cls-3" d="M42.88,32.72H23.08a1,1,0,0,0,0,1.92h19.8a1,1,0,0,0,0-1.92Z"></path></g></svg> 