<?xml version="1.0" encoding="UTF-8"?> <svg xmlns="http://www.w3.org/2000/svg" viewBox="0 0 50 50"><defs><style>.cls-1{fill:#7aa6ed;}.cls-2{fill:#ffc951;}.cls-3{fill:#1c2b3a;}</style></defs><g id="Layer_7" data-name="Layer 7"><circle class="cls-1" cx="8.57" cy="9.82" r="8.54"></circle><rect class="cls-2" x="35.96" y="35.21" width="12.05" height="12.05" rx="2" transform="translate(26.24 -15.47) rotate(30)"></rect><path class="cls-3" d="M45.1,25.3a1,1,0,0,0,0,1.95,1,1,0,1,0,0-1.95Z"></path><path class="cls-3" d="M43.15,35.05A2.92,2.92,0,1,0,46.08,38,2.92,2.92,0,0,0,43.15,35.05Zm0,3.9a1,1,0,1,1,1-1A1,1,0,0,1,43.15,39Z"></path><path class="cls-3" d="M43.15,3.86A6.83,6.83,0,0,0,36.4,9.7H3A2.93,2.93,0,0,0,.07,12.63V41.87A2.92,2.92,0,0,0,3,44.79H43.15A6.83,6.83,0,0,0,50,38V10.68A6.82,6.82,0,0,0,43.15,3.86ZM3,42.84a1,1,0,0,1-1-1V12.63a1,1,0,0,1,1-1H36.33V38a6.81,6.81,0,0,0,2.05,4.87Zm40.16,0A4.87,4.87,0,1,1,48,38,4.88,4.88,0,0,1,43.15,42.84ZM48,33.2a6.82,6.82,0,0,0-9.75,0V10.68a4.88,4.88,0,1,1,9.75,0Z"></path><path class="cls-3" d="M16.3,23.35h.93a1,1,0,0,0,0-2H13.78a3.94,3.94,0,1,0-1.36,1.38l.94,3.73A1,1,0,1,0,15.25,26l-.33-1.3c3.29,3,3.29,6.67,3.28,12.25v.65a1,1,0,1,0,1.95,0V37C20.16,31.25,20.16,26.87,16.3,23.35Zm-5.9-2a1.95,1.95,0,1,1,1.95-1.95A2,2,0,0,1,10.4,21.4Z"></path><path class="cls-3" d="M31.56,15.84a1,1,0,0,0-1.38,0L28,18.07l-2.24-2.23a1,1,0,0,0-1.38,1.38l2.24,2.23-2.24,2.24a1,1,0,0,0,1.38,1.37L28,20.83l2.23,2.23a1,1,0,0,0,1.38-1.37l-2.23-2.24,2.23-2.23A1,1,0,0,0,31.56,15.84Z"></path><path class="cls-3" d="M31.56,31.43a1,1,0,0,0-1.38,0L28,33.67l-2.24-2.24a1,1,0,0,0-1.38,1.38l2.24,2.24-2.24,2.23a1,1,0,0,0,1.38,1.38L28,36.43l2.23,2.23a1,1,0,0,0,1.38-1.38l-2.23-2.23,2.23-2.24A1,1,0,0,0,31.56,31.43Z"></path><path class="cls-3" d="M14,31.43a1,1,0,0,0-1.38,0L10.4,33.67,8.17,31.43a1,1,0,0,0-1.38,1.38L9,35.05,6.79,37.28a1,1,0,0,0,1.38,1.38l2.23-2.23,2.24,2.23A1,1,0,1,0,14,37.28l-2.24-2.23L14,32.81A1,1,0,0,0,14,31.43Z"></path><path class="cls-3" d="M45.1,11.65a1,1,0,0,0-1,1v9.75a1,1,0,0,0,1.95,0V12.63A1,1,0,0,0,45.1,11.65Z"></path></g></svg> 